<?xml version="1.0" encoding="utf-8"?>
<!-- Generator: Adobe Illustrator 23.0.6, SVG Export Plug-In . SVG Version: 6.00 Build 0)  -->
<svg version="1.1" id="Layer_1" xmlns="http://www.w3.org/2000/svg" xmlns:xlink="http://www.w3.org/1999/xlink" x="0px" y="0px"
	 viewBox="0 0 474.9 344.7" enable-background="new 0 0 474.9 344.7" xml:space="preserve">
<rect fill="none" width="474.9" height="344.7"/>
<g>
	<path fill="none" d="M86.7,35.4c3.8,0,7.6,0,11.5,0.1C94.3,35.4,90.5,35.4,86.7,35.4z"/>
	<path fill="none" d="M49.1,36.7c0-0.1,0-0.2,0-0.3C49,36.6,49,36.7,49.1,36.7z"/>
	<path fill="none" d="M90.5,103c-0.3,0-0.7,0-1-0.2C89.8,103,90.2,103,90.5,103z"/>
	<path fill="none" d="M49.1,36.7c0,0.4,0.2,0.9,0.4,1.6c0,0,0,0,0,0c0,0,0,0,0,0C49.2,37.6,49.1,37.1,49.1,36.7z"/>
	<path fill="none" d="M199.5,182.5c-0.4-0.3-0.8-0.6-1.2-0.8c0.4,0.3,0.9,0.6,1.3,0.9c0.3,0.2,0.5,0.4,0.7,0.6
		C200,183,199.8,182.7,199.5,182.5z"/>
	<path fill="none" d="M187.7,173.9c0.1,0.1,0.3,0.2,0.4,0.3c0.8,0.6,1.6,1.2,2.4,1.7c-0.8-0.6-1.6-1.2-2.5-1.8
		C187.9,174,187.8,174,187.7,173.9z"/>
	<path fill="none" d="M231.8,0.4c3.5,0,7,0,10.5,0c27.7,0,55.3,0,83,0c0,0,0,0,0,0c0,0,0,0,0,0c2,0,4,0,6,0h0c27.3,0,54.7,0,82,0
		c3.5,0,7,0,10.5,0c4.2,3.2,8.4,6.5,12.8,9.5c1.2,0.8,1.7,1.6,1.8,2.6c0-1.1-0.6-1.9-1.8-2.8c-4.4-3-8.5-6.3-12.8-9.5
		c16.8,0.1,33.7,0.1,50.5,0.2V0.1h-325c0,0.1,0,0.2,0,0.3C176.9,0.4,204.3,0.4,231.8,0.4z"/>
	<path fill="none" d="M213,202.8c-4.6,0-9.2,0-13.8,0c-1.5,0-2.5,0-3-0.2c0.5,0.3,1.4,0.3,3.1,0.3C203.9,202.9,208.5,203,213,202.8
		c0.9,0.1,1.6,0.2,2,0.6C214.5,202.9,213.8,202.8,213,202.8z"/>
	<path fill="none" d="M88.3,102.2C88.3,102.2,88.3,102.2,88.3,102.2c0.2,0.2,0.4,0.3,0.6,0.4C88.7,102.5,88.6,102.4,88.3,102.2
		C88.3,102.2,88.3,102.2,88.3,102.2z"/>
	<path fill="none" d="M185.6,172.1c0.3,0.2,0.5,0.5,0.8,0.7C186.1,172.6,185.8,172.3,185.6,172.1
		C185.6,172.1,185.6,172.1,185.6,172.1z"/>
	<path fill="none" d="M114.4,86.2c0.9-0.7,1.8-1.8,2.1-2.9c2-6,4-12,5.9-18c-2,6-3.9,12-5.9,17.9C116.1,84.4,115.3,85.5,114.4,86.2z
		"/>
	<path fill="none" d="M406.8,5.4c-7.2,5.2-14.4,10.5-21.6,15.7C392.4,15.9,399.7,10.7,406.8,5.4z"/>
	<path fill="none" d="M466.7,204.7c-0.3-0.9-0.6-1.4-1.2-1.8c0.5,0.4,0.8,0.9,1,1.7c2,6.4,4,12.7,6.1,19c0.6,1.4,1.2,2.9,1.7,4.3v0
		c-0.5-1.4-1.1-2.8-1.5-4.2C470.8,217.4,468.7,211,466.7,204.7z"/>
	<path fill="none" d="M461.9,53.1c-1.3,0.9-1.5,1.8-1,3.3c4.3,13,8.5,26.1,12.7,39.1c0.2,0.4,0.4,0.7,0.6,1.1v0
		c-0.2-0.4-0.4-0.7-0.5-1c-4.2-13-8.4-26.1-12.7-39.1c-0.5-1.5-0.3-2.4,1-3.3c3.6-2.5,7.2-5.1,10.7-7.8c0.5-0.4,1-0.7,1.5-0.8v-0.1
		c-0.5,0.1-1,0.4-1.6,0.8C469.1,48,465.6,50.6,461.9,53.1z"/>
	<path fill="none" d="M466.6,139.6c-0.5,1.4-1.1,2.1-2.8,2.1c-4.2-0.1-8.5,0.1-12.7,0.1c-4.2,0.1-8.3,0.1-13,0.1c4.7,0,8.9,0,13,0
		c4.2,0,8.5-0.2,12.7-0.1c1.7,0,2.3-0.6,2.8-2.1c2.3-7.1,4.6-14.2,6.9-21.3c0.2-0.5,0.4-1,0.7-1.6v-0.2c-0.3,0.6-0.6,1.2-0.7,1.7
		C471.2,125.4,468.8,132.5,466.6,139.6z"/>
	<path fill="none" d="M458.8,49.1c-1-2.8-1.9-5.3-2.8-7.9c-1-3-2-6-2.9-9c-0.4-1.5-1.2-1.8-2.5-1.8c-5.1,0-10.2-0.1-15.2,0
		c-1.2,0-1.9-0.3-2.1-0.9c0.1,0.7,0.7,1.1,2.1,1.1c5.1-0.1,10.2,0,15.2,0c1.3,0,2.1,0.3,2.5,1.8c0.8,3,1.9,6,2.9,9
		c0.8,2.5,1.8,5,2.8,7.9c4.9-3.5,9.3-6.6,13.6-9.9c0.7-0.5,1.3-0.9,1.9-1v-0.2c-0.6,0.1-1.2,0.4-1.9,0.9
		C468.1,42.5,463.6,45.6,458.8,49.1z"/>
	<path fill="none" d="M474,306c-0.6-0.2-1.2-0.5-1.8-1c-4.3-3.3-8.7-6.4-13.3-9.7c0,0,0,0,0,0.1c4.6,3.3,9,6.4,13.2,9.6
		C472.7,305.5,473.4,305.9,474,306z"/>
	<path fill="none" d="M450.2,314c-4.8-0.1-9.6,0-14.4,0C440.5,314,445.4,314,450.2,314C450.2,314,450.2,314,450.2,314z"/>
	<path fill="none" d="M460.9,288.4c-0.2,0.7,0.1,2.1,0.6,2.5c4,3,8,6,12.1,8.8c0.2,0.1,0.4,0.2,0.7,0.2v0c-0.2,0-0.4-0.1-0.5-0.2
		c-4.1-2.8-8.2-5.7-12.1-8.8c-0.5-0.4-0.9-1.8-0.6-2.5c4.2-13.1,8.5-26.3,12.8-39.4c0.1-0.4,0.2-0.7,0.4-1.1v0
		c-0.2,0.4-0.4,0.8-0.6,1.2C469.4,262.1,465.1,275.2,460.9,288.4z"/>
	<path fill="none" d="M440.2,200.3c-0.6,0.4-1.2,1-1.8,1.4c0.1,0,0.1,0.1,0.2,0.1c0.6-0.5,1.1-1,1.8-1.4
		c10.9-7.9,21.7-15.7,32.6-23.6c0.5-0.3,0.9-0.6,1.3-0.7v-0.2c-0.5,0.1-1,0.4-1.5,0.8C462,184.6,451,192.4,440.2,200.3z"/>
	<path fill="none" d="M316.5,27.9c-0.5,1.8-1.5,2.5-3.4,2.5h0C315.1,30.4,316.1,29.7,316.5,27.9c1.1-3.6,2.4-7.3,3.5-10.9
		c0,0,0,0,0,0c0,0,0,0,0,0C318.8,20.6,317.6,24.2,316.5,27.9z"/>
	<path fill="none" d="M231.8,0.4c-1.1,0.8-2.2,1.7-3.2,2.5C229.6,2.1,230.7,1.2,231.8,0.4z"/>
	<path fill="none" d="M369.4,30.3c-8.7,0.2-17.5,0-26.2,0.1l0,0C352,30.4,360.8,30.5,369.4,30.3c1.8,0,4-0.7,5.5-1.8c0,0,0,0,0,0
		c0,0,0,0,0,0C373.4,29.6,371.3,30.2,369.4,30.3z"/>
	<path fill="none" d="M340,28.4c-1.1-3.4-2.2-6.9-3.3-10.3C337.8,21.5,338.9,24.9,340,28.4z"/>
	<path fill="none" d="M285.7,30.3c-1.2,0-2.7-0.4-3.7-1.1C283.1,29.9,284.5,30.3,285.7,30.3z"/>
	<path fill="none" d="M230,215c-2.8,2-5.6,4-8.8,6.3c0,0,0,0.1,0,0.1c3.2-2.3,6-4.3,8.9-6.3c2.3-1.6,4.6-4.5,7-4.5
		c1.2,0,2.3,0.7,3.5,1.5c-1.2-0.9-2.4-1.6-3.6-1.6C234.7,210.5,232.4,213.4,230,215z"/>
	<path fill="none" d="M381.8,108.2c1.6,1.2,2.8,1.2,4.4,0c5.7-4.2,11.4-8.4,17.1-12.5c0.9-0.7,1.9-1.2,2.8-1.8
		c0.1,0,0.2,0.1,0.2,0.1c-0.1-0.1-0.1-0.1-0.2-0.2c-0.9,0.6-1.9,1.2-2.8,1.8c-5.7,4.2-11.5,8.3-17.1,12.5c-1.6,1.2-2.8,1.2-4.4,0
		c-6.1-4.5-12.2-8.9-18.4-13.3c-0.5-0.4-1.1-0.6-2.1-1.2c0,0,0,0.1,0,0.1c0.9,0.5,1.5,0.8,2.1,1.2
		C369.5,99.3,375.7,103.7,381.8,108.2z"/>
	<path fill="none" d="M275,182.3c-1.6,1.1-1.9,2.2-1.2,3.9c1.6,4.5,3,9,4.4,13.5c0.8,2.6,0.6,2.9-2.1,2.9c-4.7,0.1-9.3,0.2-14,0
		c-2.3-0.1-3.2,0.8-3.8,2.9c-1.3,4.4-2.7,8.7-4.2,13.1c-0.2,0.8-0.6,1.5-1.1,2.6c-3.1-2.2-5.9-4.3-8.8-6.3c-0.3-0.2-0.6-0.4-0.9-0.6
		c0.3,0.3,0.6,0.5,1,0.7c2.9,2,5.8,4.1,8.8,6.3c0.5-1.1,0.9-1.8,1.1-2.6c1.4-4.4,2.9-8.7,4.2-13.1c0.6-2.1,1.6-3,3.8-2.9
		c4.7,0.2,9.3,0,14,0c2.7,0,2.9-0.3,2.1-2.9c-1.5-4.5-2.8-9.1-4.4-13.5C273.2,184.5,273.5,183.4,275,182.3c3-1.8,5.8-4,8.6-6
		c1.7-1.3,3.4-2.6,5.2-4c0,0-0.1-0.1-0.1-0.1c-1.9,1.4-3.5,2.8-5.2,4C280.7,178.3,277.9,180.4,275,182.3z"/>
	<path fill="none" d="M325.6,145.7c-10,7.2-19.9,14.4-29.8,21.7C305.8,160.1,315.7,152.9,325.6,145.7z"/>
	<path fill="none" d="M284.1,143.3C284.1,143.3,284.1,143.3,284.1,143.3C284,143.3,284,143.3,284.1,143.3
		C284,143.3,284,143.3,284.1,143.3C284.1,143.3,284.1,143.3,284.1,143.3z"/>
	<path fill="none" d="M401,222.6c3.4-2.3,6.6-4.7,9.9-7.1c3.3-2.5,6.6-4.9,9.8-7.3c-3.3,2.4-6.5,4.8-9.8,7.2
		c-3.3,2.4-6.6,4.8-9.9,7.1c-1.3,0.9-1.8,1.8-1.7,3C399.2,224.4,399.7,223.5,401,222.6z"/>
	<path fill="none" d="M386.2,235.9c-1.4-1.1-2.3-1-3.7,0c-5.7,4.3-11.6,8.4-17.4,12.6c-0.9,0.6-1.7,1.2-3.2,2.3c0,0,0,0.1,0,0.1
		c1.5-1.1,2.3-1.7,3.2-2.3c5.8-4.2,11.6-8.4,17.4-12.6C383.9,235,384.9,234.9,386.2,235.9c5.9,4.5,12,8.9,17.9,13.2
		c0.7,0.5,1.5,1,2.8,1.8c0,0,0-0.1,0-0.1c-1.3-0.9-2.1-1.3-2.8-1.8C398.2,244.6,392.2,240.3,386.2,235.9z"/>
	<path fill="none" d="M280.8,159.9c-1.3-0.9-1.7-1.9-1.2-3.4c0,0,0,0,0,0c0,0,0,0,0,0C279,158,279.5,159,280.8,159.9
		c3.5,2.4,6.9,4.9,10.3,7.5c0.9,0.7,1.7,1,2.4,1c-0.8,0-1.5-0.3-2.4-1C287.8,164.8,284.3,162.3,280.8,159.9z"/>
	<path fill="none" d="M281,184.4c3.7-2.5,7.2-5.3,11-7.8c0.7-0.5,2.3-0.6,3-0.1c11.5,8.2,22.9,16.5,34.3,24.9c0.2,0,0.3,0.2,0.9,1
		c-0.6-0.8-0.7-1-0.9-1.1c-11.4-8.3-22.8-16.6-34.3-24.9c-0.7-0.5-2.3-0.4-3,0.1C288.2,179,284.8,181.8,281,184.4
		c-1,0.6-1.4,1.3-1.5,2.2C279.5,185.8,280,185.1,281,184.4z"/>
	<path fill="none" d="M272,207.6c2.3,0,4.6,0,6.9,0.1c0.8,0,2.2,1,2.4,1.8c4.4,13,8.6,26.1,12.8,39.1c0.2,0.7,0.2,1.4,0.3,2.1
		c-0.1,0.1-0.3,0.2-0.5,0.3c0.2-0.1,0.4-0.2,0.6-0.3c-0.1-0.7-0.1-1.4-0.3-2.1c-4.2-13.1-8.5-26.1-12.8-39.1
		c-0.3-0.8-1.6-1.8-2.4-1.8C276.7,207.6,274.4,207.6,272,207.6z"/>
	<path fill="none" d="M340.5,209.2c3.7,2.5,7.3,5.2,10.9,7.8C347.8,214.4,344.2,211.7,340.5,209.2z"/>
	<path fill="none" d="M372.1,143.7C372.1,143.7,372.2,143.7,372.1,143.7C372.2,143.7,372.1,143.7,372.1,143.7z"/>
	<path fill="none" d="M268.5,207.6c-1.2,0-2.3,0-3.5,0c0,0,0,0,0,0C266.2,207.6,267.4,207.6,268.5,207.6z"/>
	<path fill="none" d="M380.9,174c-2.8,8.7-5.7,17.4-8.4,26.1c-0.5,1.6-1.3,2.3-3,2.2c-9.5-0.1-19,0-28.5-0.1c-1.1,0-2.3-0.4-3.2-1.1
		c-12.8-9.2-25.6-18.6-38.4-27.9c-0.4-0.1-1-0.4-1.9-0.9c0.9,0.5,1.5,0.8,2,1.2c12.8,9.3,25.5,18.6,38.4,27.9c0.9,0.6,2.1,1,3.2,1.1
		c9.5,0.1,19,0,28.5,0.1c1.7,0,2.5-0.6,3-2.2c2.8-8.7,5.7-17.4,8.4-26.1c0.3-0.9,0.2-2-0.1-2.9c-2.8-9-5.8-18.1-8.6-27.1
		c0-0.1,0-0.1-0.1-0.2c2.8,9,5.8,18,8.6,27C381.1,172,381.2,173.1,380.9,174z"/>
	<path fill="none" d="M298.1,141.7c-4,0-7.9,0-11.9,0c0,0,0,0,0,0c0,0,0,0,0,0C290.1,141.7,294.1,141.7,298.1,141.7z"/>
	<path fill="none" d="M226.8,120.7c-0.8-0.6-1.5-1.2-2.3-1.8c-0.6-0.5-1.2-1.9-1-2.6c4.2-13.2,8.5-26.4,12.8-39.6
		c0.2-0.5,0.5-1,0.7-1.6c0.2,0,0.4-0.1,0.6-0.1c-0.2,0-0.4,0.1-0.7,0.1c-0.2,0.5-0.5,1-0.7,1.6c-4.3,13.2-8.6,26.4-12.8,39.6
		c-0.2,0.7,0.3,2.1,1,2.6C225.2,119.5,226,120.1,226.8,120.7z"/>
	<path fill="none" d="M229.1,122.4c2.2,1.6,4.4,3.2,6.5,4.8c0.6,0.5,1.1,0.7,1.7,0.6c-0.5,0-1-0.2-1.6-0.6
		C233.6,125.5,231.3,124,229.1,122.4z"/>
	<path fill="none" d="M406.7,94.2c-0.5,1.8-1.1,3.7-1.7,5.5C405.6,97.9,406.1,96,406.7,94.2z"/>
	<path fill="none" d="M259.5,141c-0.5-0.6-0.8-1.6-1.4-3.3c-1.6-4.9-3.1-9.6-4.9-14.8c1.7,5.2,3.3,10,4.8,14.7
		C258.6,139.5,258.9,140.5,259.5,141z"/>
	<path fill="none" d="M398.9,119.4c0,0.1,0,0.2,0.1,0.3C399,119.7,398.9,119.5,398.9,119.4z"/>
	<path fill="none" d="M273.8,158.1c-0.5,1.4-0.4,2.3,0.3,3.2C273.4,160.5,273.3,159.5,273.8,158.1c1.3-3.3,2.4-6.7,3.5-10.1
		c0.6-1.9,1.1-3.9,1.8-6.2c0,0-0.1,0-0.1,0c-0.7,2.3-1.1,4.2-1.8,6.1C276.1,151.3,275,154.7,273.8,158.1z"/>
	<path fill="none" d="M413.5,344.8L413.5,344.8c0.2-0.1,0.4-0.3,0.5-0.4C413.9,344.5,413.7,344.7,413.5,344.8z"/>
	<path fill="none" d="M406.6,248.7c0.1,0.5,0.1,1.1,0.3,1.9C406.8,249.7,406.7,249.2,406.6,248.7z"/>
	<path fill="none" d="M420.5,207.7c0,0.2,0.1,0.3,0.1,0.5C420.7,208,420.6,207.9,420.5,207.7z"/>
	<path fill="none" d="M367.4,222.2c-5.8-4-11.5-8.2-17.2-12.4c-0.7-0.5-1.4-1.1-2.6-2c0,0-0.1,0-0.1,0c1.3,1,2,1.6,2.7,2.1
		C356,214,361.7,218.3,367.4,222.2c1.5,1.1,2.1,2.1,2.1,3.5C369.6,224.2,369,223.3,367.4,222.2z"/>
	<path fill="none" d="M367.6,121.6c1.1-0.8,1.7-1.5,1.6-2.7c0,1.1-0.5,1.8-1.6,2.6c-6.2,4.4-12.3,8.9-18.4,13.3
		c-0.5,0.4-1,0.9-2,1.9c0,0,0.1,0,0.1,0c0.9-0.9,1.4-1.4,1.9-1.8C355.3,130.4,361.4,126,367.6,121.6z"/>
	<path fill="none" d="M400.8,121.9c6.1,4.2,12,8.7,18,13c0.5,0.4,1,0.9,1.6,1.3c0,0,0-0.1,0-0.1c-0.5-0.4-1-0.9-1.6-1.3
		c-6-4.4-11.9-8.8-18-13c-0.9-0.6-1.5-1.2-1.7-1.9C399.3,120.7,399.9,121.3,400.8,121.9z"/>
	<path fill="none" d="M348.8,54.4c0.4-0.5,0.8-1.2,1.4-1.6c7.5-5.5,14.9-10.9,22.5-16.2c1-0.7,2.5-1.1,3.7-1.1c15.3-0.1,30.7,0,46,0
		c2.3,0,3.1,0,3.1,1c0.2-1.2-0.6-1.3-3.1-1.3c-15.3,0-30.7,0-46,0c-1.2,0-2.7,0.4-3.7,1.1c-7.5,5.3-15,10.8-22.5,16.2
		C349.5,53.3,349,54,348.8,54.4z"/>
	<path fill="none" d="M306.9,57.1c-2.8,8.2-5.4,16.5-8.1,24.6c-0.4,1.2-1.2,2.4-2.2,3.2c-12.9,9.4-25.8,18.8-38.7,28.2
		c-1.4,1-2,1.1-2.6-0.2c0.6,1.4,1.3,1.4,2.7,0.4c12.9-9.4,25.9-18.8,38.7-28.2c1-0.7,1.8-2,2.2-3.2c2.8-8.2,5.3-16.5,8.1-24.7
		c0.7-2.1,0.5-3.5-1.1-4.8C307.5,53.7,307.7,55,306.9,57.1z"/>
	<path fill="none" d="M248.4,91.5c-0.4-1.1-0.7-2.2-1.1-3.3C247.7,89.4,248,90.4,248.4,91.5z"/>
	<path fill="none" d="M336.5,33.5c0.5,1.5,1.4,1.8,2.8,1.8c7.3,0,14.7,0,22,0c1,0,2,0,2.9,0c0.1,0.2,0.2,0.4,0.3,0.6
		c-0.5,0.5-1,1.1-1.6,1.5c-6.1,4.5-12.2,9-18.4,13.4c-1.5,1-1.8,1.9-1.2,3.7c2.5,7.3,4.8,14.7,7.2,22.1c0.2,0.5,0.2,1.1,0.5,2.3
		c0,0,0.1,0.1,0.1,0.1c-0.3-1.3-0.3-1.9-0.5-2.4c-2.4-7.4-4.7-14.8-7.2-22.1c-0.6-1.8-0.2-2.7,1.2-3.7c6.2-4.4,12.3-8.9,18.4-13.4
		c0.6-0.4,1-1,1.6-1.5c-0.1-0.2-0.2-0.4-0.3-0.6c-1,0-2,0-2.9,0c-7.3,0-14.7,0-22,0C337.9,35.3,336.9,35,336.5,33.5
		c-1.2-4.1-2.5-8.2-3.9-12.4c-1.3-3.9-2.6-7.7-3.9-11.5c1.3,3.8,2.5,7.7,3.8,11.5C333.8,25.2,335.2,29.3,336.5,33.5z"/>
	<path fill="none" d="M316.6,35.3c-0.3,0-0.5,0-0.8,0C316,35.3,316.3,35.3,316.6,35.3C316.6,35.3,316.6,35.3,316.6,35.3z"/>
	<path fill="none" d="M201,30.1C201,30.1,201,30.1,201,30.1c0.2-0.3,0.3-0.5,0.4-0.7C201.2,29.6,201.1,29.8,201,30.1z"/>
	<path fill="none" d="M236.9,56c-1-3-2-6-2.9-8.9C234.9,50.1,235.9,53,236.9,56z"/>
	<path fill="none" d="M294.7,35.3c5.2,0,10.5-0.1,15.8,0C305.3,35.2,300,35.2,294.7,35.3z"/>
	<path fill="none" d="M425.8,30.5c0.2,0,0.5-0.1,0.8-0.2c-0.2,0.1-0.4,0.1-0.6,0.1c-14.2,0.1-28.5,0.1-42.7,0.1
		c-0.4,0-0.7-0.1-1.6-0.4c0.9,0.3,1.2,0.5,1.4,0.5C397.3,30.6,411.6,30.6,425.8,30.5z"/>
	<path fill="none" d="M417.9,60.3c-0.1,0.3-0.2,0.6-0.3,0.9C417.7,60.8,417.8,60.6,417.9,60.3z"/>
	<path fill="none" d="M326.2,64c-6,4.5-12.1,8.8-18.2,13.2c-0.6,0.5-1.3,0.8-2.4,0.9c0,0,0,0,0,0c1.2-0.1,1.9-0.4,2.5-0.9
		C314.2,72.8,320.3,68.4,326.2,64c0.8-0.5,1.5-0.8,2.1-0.8C327.7,63.2,327,63.4,326.2,64z"/>
	<path fill="none" d="M363.6,226.2c0.1,0.3,0.2,0.6,0.1,0.9C363.7,226.8,363.7,226.5,363.6,226.2z"/>
	<path fill="none" d="M238.2,54.1c-0.2,0.7-0.6,1.2-0.9,1.9c0,0,0,0,0.1,0c0.3-0.7,0.7-1.3,0.9-2c2.3-7,4.7-14,6.8-21.1
		c0.1-0.5,0.3-0.9,0.5-1.2c-0.2,0.4-0.4,0.8-0.6,1.3C243,40.1,240.5,47.1,238.2,54.1z"/>
	<path fill="none" d="M183.1,35.3c-1.2,1.1-1.8,1.7-2.5,2.2c-6,4.4-12.1,8.8-18.2,13.2c-1.3,0.9-1.8,1.8-1.2,3.5
		c2.5,7.3,4.8,14.7,7.2,22c0.3,0.7,0.4,1.3,0.6,2.5c-0.2-1.2-0.3-1.9-0.5-2.5c-2.4-7.4-4.7-14.7-7.2-22c-0.6-1.7-0.1-2.5,1.2-3.5
		c6.1-4.3,12.1-8.8,18.2-13.2C181.4,37,182,36.4,183.1,35.3c-1.5-0.1-2.3-0.2-3.1-0.2c-5.6,0-11.3-0.1-16.9,0c5.6,0,11.2,0,16.8,0
		C180.7,35.1,181.5,35.2,183.1,35.3z"/>
	<path fill="none" d="M202,28.7c11.1-8.2,22.3-16.3,33.5-24.4c1.3-0.9,2.2-1,3.5-0.1c11.1,8.1,22.3,16.2,33.5,24.4
		c0.3,0.2,0.5,0.5,1.1,1.2c0.1,0,0.1,0,0.2,0c-0.7-0.7-0.9-1.1-1.2-1.3c-11.2-8.1-22.4-16.2-33.5-24.4c-1.3-1-2.3-0.8-3.5,0.1
		c-11.1,8.1-22.4,16.2-33.5,24.3c-0.2,0.2-0.4,0.4-0.6,0.7C201.6,29,201.8,28.8,202,28.7z"/>
	<path fill="none" d="M159.5,72c2.3,1.7,4.7,3.4,7,5.1c0.6,0.5,1.2,0.9,2.4,1.6c-1.2-0.8-1.8-1.2-2.5-1.7
		C164.1,75.3,161.8,73.7,159.5,72z"/>
	<path fill="none" d="M111.5,37.2c-0.6-0.5-1.2-1-2.3-1.9c0,0,0,0,0,0c1.2,1,1.8,1.5,2.4,2c6.2,4.5,12.4,9,18.6,13.5
		c0.1,0.1,0.2,0.1,0.3,0.2c-0.1-0.1-0.2-0.2-0.4-0.3C123.9,46.2,117.7,41.7,111.5,37.2z"/>
	<path fill="none" d="M144.2,63.8c-6,4.5-12.1,8.8-18.2,13.2c-0.6,0.5-1.3,0.9-2.5,0.9c0,0,0,0.1,0,0.1c1.2-0.1,1.9-0.5,2.6-0.9
		c6.1-4.4,12.2-8.7,18.2-13.2c1.5-1.1,2.5-1,4,0c0.7,0.5,1.5,1.1,2.2,1.6c-0.8-0.6-1.6-1.1-2.3-1.7
		C146.9,62.7,145.8,62.7,144.2,63.8z"/>
	<path fill="none" d="M154.2,32.8c0.5,1.7,1.3,2.4,3.2,2.3c0,0,0.1,0,0.1,0C155.6,35.1,154.8,34.5,154.2,32.8
		c-2.1-6.9-4.3-13.8-6.6-20.6c-0.3-0.9-0.8-1.8-1.4-3.3c0,0,0,0,0,0.1c0.6,1.4,1,2.3,1.3,3.1C149.8,19,152,25.8,154.2,32.8z"/>
	<path fill="none" d="M50.6,0.4c0.1-0.1,0.2-0.1,0.3-0.2c3.5,0,7,0,10.5,0c0.1,0.1,0.1,0.2,0.2,0.3c27.1-0.1,54.4-0.1,81.6-0.1
		c0-0.1,0.1-0.2,0.1-0.3H-0.6v0.3C16.4,0.4,33.5,0.4,50.6,0.4z"/>
	<path fill="none" d="M416.7,4.5c0.3-0.2,0.7-0.4,1-0.6c-0.4,0.1-0.8,0.4-1.2,0.7c-9.5,6.9-19,13.8-28.5,20.7
		c-1.9,1.4-3.9,2.9-6.3,4.8c2.4-1.8,4.4-3.4,6.5-4.9C397.7,18.3,407.2,11.5,416.7,4.5z"/>
	<path fill="none" d="M175.6,82.1C175.6,82.1,175.6,82.1,175.6,82.1c0.3,0.8,0.7,1.6,1.3,2.3C176.4,83.7,176,82.9,175.6,82.1
		C175.6,82.1,175.6,82.1,175.6,82.1z"/>
	<path fill="none" d="M190.9,36.4c1.1-0.8,2.7-1.2,4.1-1.3C193.5,35.1,192,35.6,190.9,36.4c-5.6,3.9-11,8-16.6,12
		C179.8,44.4,185.3,40.3,190.9,36.4z"/>
	<path fill="none" d="M167.3,56.7C167.3,56.7,167.3,56.7,167.3,56.7C167.4,56.7,167.4,56.7,167.3,56.7
		C167.4,56.7,167.4,56.7,167.3,56.7C167.3,56.7,167.3,56.7,167.3,56.7z"/>
	<path fill="none" d="M222.4,35.1c1.1,0,1.8,0.2,2.3,0.7C224.1,35.3,223.4,35,222.4,35.1c-1.1,0-2.3,0-3.4,0
		C220.1,35.1,221.2,35.1,222.4,35.1z"/>
	<path fill="none" d="M177.5,84.9c13,9.5,26.1,19,39.1,28.5c0.6,0.4,1,0.6,1.4,0.6c-0.4,0-0.8-0.2-1.3-0.6
		C203.7,103.9,190.5,94.4,177.5,84.9z"/>
	<path fill="none" d="M316.5,316.4c-0.5-1.7-1.4-2.4-3.2-2.3C315.1,314.1,316,314.7,316.5,316.4z"/>
	<path fill="none" d="M199.5,320c1.4,1,2.8,2,4.2,3C202.3,322.1,200.9,321.1,199.5,320z"/>
	<path fill="none" d="M243.8,342.6c8.3-5.9,16.5-11.9,24.7-17.9C260.3,330.7,252.1,336.6,243.8,342.6z"/>
	<path fill="none" d="M232.4,344.8L232.4,344.8c0.3-0.2,0.6-0.4,0.9-0.6C233,344.4,232.7,344.6,232.4,344.8z"/>
	<path fill="none" d="M436.3,35.5c-0.6,0-1.1,0-1.7-0.1c-0.3,0-0.6,0-0.9,0c0.2,0,0.5,0,0.7,0C435.1,35.4,435.7,35.5,436.3,35.5z"/>
	<path fill="none" d="M50,342.7c-3.8-2.7-7.5-5.6-11.4-8.1c-2.3-1.5-2.6-2.9-1.7-5.4c1.8-4.9,3.3-9.9,5-15.2
		c-1.2-0.1-2.1-0.3-2.9-0.3c-4.8,0-9.7,0-14.5,0c-1.5,0-2.5-0.4-2.9-2c-0.8-3-1.9-5.9-2.8-8.8c-0.5-1-1-2.1-1.4-3.2
		c0.4,1.2,0.8,2.3,1.1,3.4c1,2.9,2,5.8,2.8,8.8c0.5,1.6,1.4,2,2.9,2c4.8,0,9.7,0,14.5,0c0.9,0,1.7,0.2,2.9,0.3
		c-1.7,5.3-3.2,10.3-5,15.2c-0.9,2.5-0.5,3.9,1.7,5.4c3.9,2.5,7.6,5.5,11.4,8.1c1.1,0.7,1.4,1.3,1.1,1.9h0.1
		C51.4,344.1,51.1,343.5,50,342.7z"/>
	<path fill="none" d="M100.5,315.3c0.9-0.7,2.3-1.1,3.4-1.1c9.2-0.1,18.5,0,27.7-0.1c1.7,0,2.6,0.6,3.1,2.2
		c2.8,8.7,5.7,17.4,8.4,26.1c0.2,0.6,0.3,1.3,0.3,2c0-0.7-0.1-1.4-0.3-2.1c-2.7-8.7-5.6-17.4-8.4-26.1c-0.5-1.6-1.3-2.2-3.1-2.2
		c-9.2,0.1-18.5,0-27.7,0.1C102.7,314.1,101.4,314.6,100.5,315.3c-9.8,6.9-19.6,14-29.4,21.1c-1.9,1.4-3.9,2.9-5.8,4.3
		c2-1.4,3.9-2.8,5.8-4.2C80.9,329.4,90.6,322.3,100.5,315.3z"/>
	<path fill="none" d="M1.2,305.7C1.3,305.7,1.3,305.7,1.2,305.7c-0.6,0.4-1.2,0.6-1.9,0.5v0.2C0,306.4,0.6,306.2,1.2,305.7z"/>
	<path fill="none" d="M309.8,314.1c-1.2,0-2.3,0-3.5,0C307.5,314.1,308.7,314.1,309.8,314.1z"/>
	<path fill="none" d="M243.8,342.6c-1.2,0.9-1.7,1.5-1.2,2.2h0C242.2,344.1,242.7,343.5,243.8,342.6z"/>
	<path fill="none" d="M282,315c0.5-0.3,1-0.5,1.6-0.7C283,314.5,282.5,314.7,282,315z"/>
	<path fill="none" d="M285.3,314.1c4.6,0,9.3,0,14,0C294.6,314.1,290,314,285.3,314.1z"/>
	<path fill="none" d="M339.7,316.6c0.6-1.9,1.5-2.5,3.4-2.4c9.1,0.1,18.2,0,27.2,0.1c1.2,0,2.7,0.4,3.7,1.1
		c12.4,8.9,24.8,18,37.2,27c0.9,0.5,1.7,1.1,2.8,2c-1.1-0.9-1.9-1.6-2.8-2.2c-12.4-9-24.8-18-37.2-27c-1-0.7-2.4-1.1-3.7-1.1
		c-9.1-0.1-18.2,0-27.2-0.1c-1.9,0-2.8,0.6-3.4,2.4c-2.6,8.3-5.5,16.6-8,24.9c-0.3,0.9-0.4,1.9-0.4,2.9c0-0.9,0.2-1.9,0.4-2.7
		C334.3,333.1,337.1,324.9,339.7,316.6z"/>
	<path fill="none" d="M226.6,339.7c2.1,1.5,4.3,2.9,6.7,4.5C230.8,342.5,228.6,341.1,226.6,339.7z"/>
	<path fill="none" d="M20.5,35.1c0.3-0.9,0.6-1.8,0.9-2.7c0.1-0.2,0.1-0.4,0.2-0.5c-0.1,0.2-0.2,0.4-0.3,0.7
		C21,33.4,20.7,34.3,20.5,35.1z"/>
	<path fill="none" d="M7.6,301.1c2.7-1.9,5.3-3.8,8.2-5.9C12.9,297.2,10.2,299.2,7.6,301.1z"/>
	<path fill="none" d="M4.3,47.3c1.4,1,2.8,2.1,4.2,3.1C7.1,49.3,5.7,48.3,4.3,47.3z"/>
	<path fill="none" d="M36.5,14.5c1.4,4.1,2.7,8.2,4.1,12.3c0.3,1,0.5,2,0.9,3.3c0.1,0,0.1,0,0.1,0c-0.4-1.4-0.5-2.4-0.9-3.5
		c-1.3-4.1-2.6-8.2-4.1-12.3c-0.3-0.7-0.4-1.4-0.4-2C36.1,13,36.2,13.7,36.5,14.5z"/>
	<path fill="none" d="M417.2,78.4c0.1,0.1,0.2,0.2,0.3,0.3C417.5,78.5,417.4,78.5,417.2,78.4z"/>
	<path fill="none" d="M449.7,37.7c1.1,3.9,2.3,7.8,3.8,11.6c1,2.4,0.4,3.7-1.7,5.1c-10.4,7.4-20.7,14.9-31,22.4
		c-1,0.7-1.9,1.4-2.9,2c0,0,0.1,0,0.1,0.1c1-0.7,2-1.4,3-2.1c10.3-7.5,20.6-15,31-22.4c2-1.4,2.6-2.7,1.7-5.1
		c-1.5-3.8-2.7-7.7-3.8-11.6c-0.5-1.7-1.4-2.3-3-2.2c0,0-0.1,0-0.1,0C448.4,35.5,449.2,36.1,449.7,37.7z"/>
	<path fill="none" d="M16.6,46.7c0-0.1,0.1-0.2,0.1-0.3c0.6-1.9,1.3-3.7,1.9-5.6c-0.6,1.9-1.3,3.8-2,5.8
		C16.6,46.6,16.6,46.7,16.6,46.7z"/>
	<path fill="none" d="M456.6,285.2c-0.2,0.5-0.5,1-0.7,1.6C456.2,286.2,456.4,285.7,456.6,285.2z"/>
	<path fill="none" d="M13.5,288.2c0.2,0.8,0.3,1.4,0.1,2c0.3-0.6,0.3-1.2,0-2.1c-4.3-13-8.5-25.9-12.7-38.9
		c-0.3-0.7-0.8-1.4-1.2-2.1c0.4,0.8,0.9,1.4,1.1,2.2C5,262.3,9.4,275.2,13.5,288.2z"/>
	<path fill="none" d="M-0.6,228.2L-0.6,228.2c0.2,0,0.3,0,0.6,0.1C-0.2,228.2-0.4,228.2-0.6,228.2z"/>
	<path fill="none" d="M2.4,167.5c10.9-8,21.8-15.9,32.7-23.8c0.5-0.3,0.8-0.9,1.4-1.6c-0.1,0-0.1,0-0.2,0c-0.6,0.7-0.9,1.2-1.3,1.5
		C24.1,151.5,13.2,159.4,2.4,167.5c-1.2,0.7-2.1,1-3,0.9v0.1C0.3,168.7,1.2,168.3,2.4,167.5z"/>
	<path fill="none" d="M7.7,139c0.2,0.6,0.4,1.1,0.6,1.5C8.1,140.1,7.9,139.6,7.7,139C6,133.1,4,127.1,2,121.1
		c-0.5-1.7-1.2-3.3-2-5.6c0,0,0,0.1,0,0.1c0.8,2.2,1.4,3.8,1.9,5.4C3.7,127,5.7,133,7.7,139z"/>
	<path fill="none" d="M-0.6,247.4L-0.6,247.4c0.1-0.1,0.2-0.2,0.4-0.3C-0.4,247.3-0.5,247.4-0.6,247.4z"/>
	<path fill="none" d="M56.2,265.8c0.2-0.1,0.6-0.1,1.2-0.3C56.8,265.7,56.4,265.8,56.2,265.8z"/>
	<path fill="none" d="M56,265.9c0,0,0.1,0,0.1,0C56.1,265.9,56,265.9,56,265.9z"/>
	<path fill="none" d="M180.5,251C180.5,251,180.5,251,180.5,251C180.4,251,180.4,250.9,180.5,251C180.4,250.9,180.4,251,180.5,251z"
		/>
	<path fill="none" d="M3.4,239.7c-0.6-2,0.2-4.7,0.9-6.9c2.3-7.5,4.9-14.9,7.2-22.3c0.7-2.2,1.7-3,4.1-2.9c4.1,0,8.6-0.1,13-0.1
		c-4.4,0-8.8,0.1-13.2-0.1c-2.4-0.1-3.4,0.7-4.1,2.9C9,217.8,6.3,225.2,4,232.6c-0.7,2.2-1.5,4.9-0.9,6.9
		c4.6,14.9,9.5,29.6,14.3,44.4c0.4,1.2,0.7,1.9,1,2.2c-0.3-0.4-0.5-1-0.8-2C12.9,269.3,7.9,254.5,3.4,239.7z"/>
	<path fill="none" d="M430.5,306.9c-3.8-12-7.8-24-11.8-36.1C422.7,282.8,426.7,294.8,430.5,306.9z"/>
	<path fill="none" d="M47.2,202.5c9.5,0.1,19,0,28.5,0.1c1.4,0,2.1-0.4,2.6-2c2.8-9,5.9-17.9,8.7-26.8c0.4-1.2,0.4-2.7,0.1-3.9
		c-2.7-8.6-5.5-17.1-8.3-25.6c-0.2-0.7-0.5-1.3-0.9-1.6c0.3,0.4,0.5,0.8,0.7,1.4c2.7,8.6,5.6,17.1,8.3,25.6c0.4,1.2,0.3,2.7-0.1,3.9
		c-2.8,9-5.9,17.9-8.7,26.8c-0.5,1.5-1.2,2-2.6,2c-9.5,0-19,0-28.5-0.1c-1,0-2.1-0.5-3-1.1c-12.7-9.1-25.3-18.4-38-27.6
		c-0.4-0.3-0.9-0.8-1.7-1.5c0.8,0.7,1.3,1.2,1.9,1.7c12.7,9.2,25.3,18.4,38,27.6C45,202,46.2,202.5,47.2,202.5z"/>
	<path fill="none" d="M417.8,265.5c2.5,1.8,5.1,3.6,7.6,5.4C422.8,269,420.2,267.3,417.8,265.5z"/>
	<path fill="none" d="M64.2,261.4c0.4-1.2,1.3-2.5,2.4-3.3c7.2-5.4,14.6-10.7,21.9-16.1c1.2-0.9,2.1-0.8,3.3,0.1
		c7.6,5.6,15.4,11.1,23,16.8c0.9,0.7,1.7,1.9,2,3c2.9,8.8,5.7,17.6,8.6,26.3c0.2,0.5,0.2,1,0.2,1.4c0-0.5,0-1-0.2-1.7
		c-2.9-8.8-5.7-17.6-8.6-26.3c-0.4-1.1-1.1-2.3-2-3c-7.6-5.6-15.3-11.2-23-16.8c-1.2-0.9-2.1-1-3.3-0.1
		c-7.3,5.4-14.6,10.7-21.9,16.1c-1,0.8-2,2.1-2.4,3.3c-3.8,11.4-7.5,22.7-11.2,34.1c-1.4,4.5-2.7,8.8-4.2,13.4
		c1.5-4.6,2.8-8.9,4.2-13.1C56.7,284.1,60.4,272.7,64.2,261.4z"/>
	<path fill="none" d="M363.4,228.3c-3,8.9-5.8,17.9-8.7,26.8C357.7,246.2,360.4,237.2,363.4,228.3z"/>
	<path fill="none" d="M90.7,316c0.7-0.5,1.3-1,2.1-1.6C92,315,91.3,315.5,90.7,316z"/>
	<path fill="none" d="M57.4,265.5c-1.1,3.3-2,6.3-2.9,9.3C55.4,271.8,56.4,268.8,57.4,265.5z"/>
	<path fill="none" d="M46.2,316.1c0.4-1.5,1.2-2,2.7-2c13.9,0,27.8,0,41.7,0.1c0.6-0.2,1.1,0,2.1,0.2c-1-0.2-1.6-0.5-2.1-0.5
		c-13.9,0-27.8,0-41.7-0.1c-1.5,0-2.2,0.6-2.7,2c-1.3,4.4-2.8,8.7-4.3,13c-0.2,0.5-0.2,0.9-0.2,1.2c0-0.3,0.1-0.6,0.2-0.9
		C43.5,324.8,44.8,320.4,46.2,316.1z"/>
	<path fill="none" d="M40.3,308.9c-4.2-0.2-8.5-0.1-12.7-0.1c-1.5,0-2.2-0.5-2.6-2c-1.3-4.5-2.9-8.8-4.2-13.3
		c-0.2-0.8,0.3-2.2,0.9-2.6c11.4-8.4,22.8-16.7,34.3-25c-0.1,0-0.1,0.1-0.2,0.1c-11.4,8.3-22.9,16.6-34.3,25
		c-0.6,0.5-1.1,1.9-0.9,2.6c1.3,4.5,2.9,8.8,4.2,13.3c0.4,1.5,1.1,2,2.6,2c4.2-0.1,8.5-0.1,12.7,0.1c1,0,1.8-0.1,2.4-0.5
		C41.9,308.8,41.2,308.9,40.3,308.9z"/>
	<path fill="none" d="M21.8,53.8c8,5.8,16,11.6,24,17.5c3.6,2.5,7.2,5,11.3,8c-4.1-3-7.7-5.5-11.2-8.1c-8-5.8-16-11.7-24-17.5
		c-1.1-0.8-1.9-1.5-1.3-3.1c1.5-4.4,3-8.8,4.3-13.3c0.2-0.5,0.4-1,0.7-1.3c-0.3,0.3-0.6,0.8-0.8,1.4c-1.4,4.5-2.8,8.9-4.3,13.3
		C20,52.2,20.7,52.9,21.8,53.8z"/>
	<path fill="none" d="M212,134.8c-0.3,0.8-1.6,1.8-2.4,1.8c-4.7,0.2-9.3,0.1-14,0.1c-0.7,0-1.3-0.1-1.7-0.5c0.4,0.4,1,0.6,1.7,0.6
		c4.7,0,9.3,0.1,14-0.1c0.9,0,2.1-1,2.4-1.8c1.5-4,2.7-8.2,4.2-12.3c0.2-0.5,0.3-1,0.3-1.5c0,0.4-0.1,0.9-0.3,1.4
		C214.7,126.6,213.5,130.7,212,134.8z"/>
	<path fill="none" d="M161.7,136.7c-3.8,0-7.6,0-11.3,0C154.1,136.7,157.9,136.7,161.7,136.7z"/>
	<path fill="none" d="M433.3,309c1.1,0,2.3,0,3.4,0C435.6,309,434.5,309,433.3,309z"/>
	<path fill="none" d="M180.3,95.9c0-0.1-0.1-0.2-0.1-0.3C180.3,95.8,180.3,95.9,180.3,95.9c4.2,13,8.4,25.9,12.6,38.8
		c0,0.1,0.1,0.3,0.1,0.4c-0.1-0.1-0.1-0.3-0.1-0.5C188.8,121.7,184.5,108.8,180.3,95.9z"/>
	<path fill="none" d="M4.4,172.1c1.8-1.3,3.6-2.6,5.3-3.9C7.9,169.5,6.2,170.8,4.4,172.1z"/>
	<path fill="none" d="M193.1,209.6c0.5-1.4,1.1-2.1,2.6-2.1c0,0-0.1,0-0.1,0c-1.5,0-2.1,0.6-2.6,2.1c-4.1,12.8-8.3,25.5-12.5,38.2
		c-0.2,0.9-0.3,1.9-0.5,2.8c0.2-0.9,0.3-1.9,0.6-2.8C184.7,235.1,189,222.3,193.1,209.6z"/>
	<path fill="none" d="M209.6,207.5C209.6,207.5,209.6,207.5,209.6,207.5c-2.3,0-4.7,0.1-7,0.1C204.9,207.6,207.2,207.6,209.6,207.5z
		"/>
	<path fill="none" d="M170.5,86.3c-7.4-5.5-15-10.8-22.4-16.3c-0.7-0.6-1.3-0.8-1.9-0.8c0.6,0,1.1,0.2,1.8,0.8
		c7.4,5.5,15,10.8,22.4,16.3c1,0.8,2,2,2.4,3.3c4.9,14.7,9.7,29.4,14.5,44.1c0.9,2.7,0.6,3-2.3,3c0,0,0.1,0,0.1,0
		c2.9,0,3.1-0.3,2.3-3c-4.8-14.7-9.6-29.4-14.5-44.1C172.5,88.4,171.5,87.1,170.5,86.3z"/>
	<path fill="none" d="M155.8,309.5c-0.1,0-0.2,0.1-0.3,0.2C155.6,309.6,155.7,309.5,155.8,309.5z"/>
	<path fill="none" d="M20.7,59.1c10.5,7.6,21,15.3,31.5,22.9c1.3,0.9,2.6,1.8,3.9,2.6c4.3,2.5,5.6,6.6,6.8,11
		c1.9,6.6,4.1,13,6.3,19.5c0.7,1.9,0.6,3.1-0.8,4.4c1.4-1.2,1.6-2.5,0.9-4.5c-2.2-6.4-4.4-12.9-6.3-19.5c-1.2-4.4-2.6-8.6-6.8-11
		c-1.4-0.8-2.6-1.7-3.9-2.6c-10.5-7.6-21-15.3-31.5-22.9c-1.6-1.2-2.2-1.4-2.7-0.4C18.6,57.7,19.2,57.9,20.7,59.1z"/>
	<path fill="none" d="M64.6,9.6c6,4.4,12.1,8.7,18.1,13.1C76.7,18.3,70.7,13.9,64.6,9.6z"/>
	<path fill="none" d="M46,27.9c0.6,2.2,1.7,2.6,3.7,2.6c0,0,0.1,0,0.1,0C47.7,30.5,46.7,30,46,27.9c-1-4.2-2.5-8.2-3.9-12.3
		c-0.5-1.4-0.3-2.2,1-3.1c3.8-2.7,7.5-5.5,11.3-8.2c0.4-0.2,1-0.4,1.6-0.4c-0.6,0-1.4,0.2-1.7,0.4C50.5,7,46.8,9.8,43,12.5
		c-1.3,0.9-1.5,1.7-1,3.1C43.5,19.7,45,23.8,46,27.9z"/>
	<path fill="none" d="M42,207.6c1.2,0,2.7,0.4,3.7,1.1c7.5,5.3,15,10.8,22.5,16.2c0.4,0.3,0.7,0.5,0.9,0.8c-0.2-0.4-0.6-0.7-1.1-1
		c-7.5-5.4-14.9-10.9-22.5-16.2c-1-0.7-2.4-1.1-3.7-1.1c-4.3,0-8.8,0.1-13.3,0.1C33,207.5,37.5,207.4,42,207.6z"/>
	<path fill="none" d="M339.6,309.1C339.6,309.1,339.6,309.1,339.6,309.1c3.8,0,7.5,0,11.3,0C347.2,309.1,343.4,309.1,339.6,309.1z"
		/>
	<path fill="none" d="M429.4,208.2c-7.9,5.6-15.7,11.2-23.5,17c-0.6,0.5-1.1,1.9-0.8,2.7c2.4,7.6,5.2,15.1,7.3,22.8
		c1.3,4.6,3.8,7.7,7.7,10.4c11.9,8.3,23.5,16.9,35.7,25.7c-12.2-8.8-23.8-17.5-35.6-25.7c-3.9-2.7-6.4-5.8-7.7-10.4
		c-2.2-7.7-4.9-15.2-7.3-22.8c-0.2-0.8,0.2-2.2,0.8-2.7c7.8-5.7,15.6-11.4,23.5-17c0.7-0.5,1.8-0.7,2.8-0.8c9.3-0.1,18.6,0,27.9-0.1
		c0,0,0,0,0,0c-9.3,0.1-18.7,0-28,0.1C431.3,207.4,430.2,207.6,429.4,208.2z"/>
	<path fill="none" d="M110.2,308.1c4.2-3,8.3-6.1,12.6-9.1C118.5,302,114.4,305.1,110.2,308.1z"/>
	<path fill="none" d="M292.2,308.9c-0.1-0.3-0.1-0.5-0.2-0.7C292,308.4,292.1,308.7,292.2,308.9c0.8,0.1,1.6,0.2,2.5,0.2
		c5.5,0,11,0.1,16.5,0c-5.5,0-11,0-16.4,0C293.9,309.1,293.1,309,292.2,308.9z"/>
	<path fill="none" d="M358,261.1c0.3-0.6,0.7-1.3,1.2-1.8C358.7,259.8,358.3,260.5,358,261.1z"/>
	<path fill="none" d="M320.2,311.5c-0.5-1.8-1.5-2.4-3.4-2.4c0,0-0.1,0-0.1,0C318.7,309.1,319.7,309.7,320.2,311.5
		c1.5,5.2,3.2,10.3,4.8,15.5c0.9,2.7,1.8,5.3,3,8.6c0,0,0-0.1,0.1-0.1c-1.2-3.2-2.1-5.9-3-8.5C323.4,321.9,321.7,316.7,320.2,311.5z
		"/>
	<path fill="none" d="M382.2,314.6c0-0.1,0.1-0.2,0.1-0.3C382.2,314.4,382.2,314.5,382.2,314.6c0.2,0.2,0.4,0.5,0.7,0.7
		c0,0,0.1,0,0.1,0.1c0,0-0.1,0-0.1-0.1C382.7,315.1,382.5,314.8,382.2,314.6z"/>
	<path fill="none" d="M417.1,340.2C417.1,340.2,417.1,340.2,417.1,340.2C417.2,340.2,417.2,340.2,417.1,340.2
		C417.2,340.2,417.2,340.2,417.1,340.2C417.1,340.2,417.1,340.2,417.1,340.2z"/>
	<path fill="none" d="M431.5,331.8c-3.7,2.9-7.6,5.7-11.5,8.4C423.9,337.6,427.8,334.8,431.5,331.8c0.7-0.5,1.1-2,0.8-2.9
		C432.4,329.8,432,331.3,431.5,331.8z"/>
	<path fill="none" d="M312.8,288.8c-2.5-6.9-4.6-13.9-6.9-20.8c-0.2-0.5-0.2-1.1-0.4-2c0,0-0.1,0-0.1-0.1c0.2,1,0.2,1.6,0.4,2.1
		C308.2,275,310.3,282,312.8,288.8c0.9,2.8,0.4,4.3-2.1,5.9c-6.3,4.3-12.4,8.9-18.7,13.5c6.2-4.5,12.4-9.2,18.8-13.5
		C313.2,293.1,313.8,291.5,312.8,288.8z"/>
	<path fill="none" d="M424.5,313.9c1.4,0,2.4,0.2,3.1,1C426.8,314.1,425.8,313.8,424.5,313.9z"/>
	<path fill="none" d="M384.4,241.2c-0.6,0-1.1,0.3-1.7,0.8c0,0,0,0,0,0c0,0,0,0,0,0C383.2,241.6,383.8,241.3,384.4,241.2z"/>
	<path fill="none" d="M424.5,313.9L424.5,313.9c-2.7,0-5.5,0-8.2,0C419,313.9,421.7,313.9,424.5,313.9z"/>
	<path fill="none" d="M372,307.4c-3.2-2.3-6.4-4.6-9.6-6.9C365.5,302.8,368.7,305.1,372,307.4z"/>
	<path fill="none" d="M154,312c-2.1,6.8-4.3,13.5-6.5,20.2c-0.3,0.9-0.7,1.7-1,2.6c0.1,0,0.1,0,0.2,0c0.4-0.9,0.7-1.8,1-2.7
		c2.2-6.7,4.4-13.4,6.5-20.2c0.3-1,0.7-1.8,1.3-2.2C154.8,310.1,154.3,310.9,154,312z"/>
	<path fill="none" d="M144,280.3c1.5,1.1,2.5,1.3,3.9,0.4c-1.3,0.7-2.4,0.5-3.7-0.5c-5.9-4.4-11.8-8.6-17.8-12.9
		c-0.7-0.5-1.5-1-2.9-1.8c0,0.1,0,0.2,0.1,0.3c1.1,0.8,1.9,1.2,2.6,1.6C132.2,271.7,138.2,275.9,144,280.3z"/>
	<path fill="none" d="M348.2,267.5c0.7-0.5,1.3-0.9,2-1.4c0,0,0,0-0.1,0C349.5,266.6,348.8,267,348.2,267.5
		c-6.1,4.3-12.1,8.6-18.1,13.1c-0.5,0.4-1,0.6-1.4,0.8c0.5-0.1,1-0.4,1.5-0.8C336.1,276.2,342.2,271.9,348.2,267.5z"/>
	<path fill="none" d="M167.5,266.5c0.4-0.2,0.8-0.4,1.4-0.8C168.3,266,167.9,266.3,167.5,266.5z"/>
	<path fill="none" d="M453.5,295c-1.6,3.9-2.6,8.1-4.1,12.1C451,303.1,452,299,453.5,295z"/>
	<path fill="none" d="M447,308.9c-2.3,0.1-4.6,0.1-6.8,0.1C442.5,309,444.8,309,447,308.9z"/>
	<path fill="none" d="M110.2,308.1c0,0.2,0,0.3,0.1,0.4C110.3,308.4,110.3,308.3,110.2,308.1z"/>
	<path fill="none" d="M248.8,314.1c-1.9,0-2.8-0.7-3.4-2.5c-1.9-6-3.8-12.1-5.8-18.1c-0.6-1.8-1.3-3.6-2.2-6c-0.5,1.1-0.8,1.5-0.9,2
		c-2.4,7.2-4.8,14.4-7,21.6c-0.6,2-1.4,2.9-3.6,2.9c-7.3-0.1-14.7,0-22,0c-0.9,0-1.7,0.1-3.2,0.2c0.1,0.1,0.1,0.1,0.2,0.2
		c1.4-0.1,2.2-0.2,3-0.2c7.3,0,14.7-0.1,22,0c2.2,0,3-0.9,3.6-2.9c2.2-7.2,4.6-14.4,7-21.6c0.1-0.5,0.4-0.9,0.9-2
		c0.9,2.4,1.6,4.1,2.2,6c2,6,3.9,12,5.8,18.1c0.5,1.8,1.5,2.5,3.4,2.5c7.3-0.2,14.6-0.2,21.9-0.2c0.9-0.2,1.8,0.1,3.6,0.4
		c-1.7-0.3-2.7-0.6-3.6-0.6C263.4,313.9,256,314,248.8,314.1z"/>
	<path fill="none" d="M181.5,307.3c-6.3-4.6-12.7-9.2-19-13.8c-0.9-0.7-1.9-1.2-1.3-2.8c1.7-4.8,3.2-9.6,4.8-14.5
		c1.1-3.4,2.1-6.7,3.5-10.8c-0.1,0-0.1,0.1-0.2,0.1c-1.3,4.1-2.4,7.4-3.5,10.8c-1.6,4.8-3.1,9.7-4.8,14.5c-0.6,1.6,0.4,2.1,1.3,2.8
		c6.3,4.6,12.7,9.2,19,13.8c0.4,0.3,0.8,0.6,1.6,1.2c0.1,0,0.2,0,0.3,0C182.2,307.8,181.8,307.5,181.5,307.3z"/>
	<path fill="none" d="M426.6,141.8c-9.1-0.1-18.2,0.1-27.2-0.1c-1.8,0-2.7,0.6-3.4,1.8c0.6-1.1,1.5-1.6,3.3-1.6
		c9.1,0.1,18.2,0,27.2,0.1c1,0,2.2,0.2,3,0.8c13.2,9.5,26.3,19.1,39.4,28.6c0.3,0,0.7,0.1,1.5,0.5c-0.8-0.4-1.1-0.5-1.4-0.7
		c-13.1-9.5-26.2-19.1-39.4-28.6C428.8,142,427.6,141.8,426.6,141.8z"/>
	<path fill="none" d="M432.8,136.9c-1.5-0.1-3.1-0.5-4.3-1.4c-7.5-5.3-14.8-10.7-22.3-16c-0.4-0.2-0.6-0.5-0.9-0.8
		c0.2,0.3,0.5,0.6,1,1c7.5,5.3,14.8,10.7,22.3,16c1.2,0.8,2.9,1.3,4.3,1.4c4.3,0.1,8.7-0.1,13.1-0.1
		C441.6,137,437.2,137.1,432.8,136.9z"/>
	<path fill="none" d="M225.2,307.7c-0.6,1-1.5,1.4-3,1.4c-9.2-0.1-18.5,0-27.7-0.1c-1.3,0-2.8-0.5-3.9-1.3
		c-7.5-5.3-14.9-10.7-22.3-16c-1.3-0.9-1.6-1.9-1.1-3.4c2.9-8.9,5.7-17.7,8.7-26.6c0.2-0.7,0.7-1.4,1.3-2c-0.6,0.6-1.2,1.3-1.4,2.1
		c-3,8.8-5.8,17.7-8.7,26.6c-0.5,1.5-0.2,2.5,1.1,3.4c7.5,5.3,14.8,10.7,22.3,16c1.1,0.8,2.6,1.3,3.9,1.3c9.2,0.1,18.5,0,27.7,0.1
		C223.7,309.2,224.6,308.8,225.2,307.7z"/>
	<path fill="none" d="M307.2,287.6c-2.7-8.2-5.3-16.4-8.1-24.6c-0.6-1.5-1.5-3-2.8-4c1.1,1,2.1,2.5,2.7,3.9
		c2.8,8.2,5.4,16.4,8.1,24.6c0.7,2,0.6,3.2-1.4,4.6c-7.3,5.1-14.3,10.6-21.7,15.5c-2.1,1.4-5.2,1.6-7.8,1.7
		c-3.4,0.2-6.8-0.1-10.2-0.2c-4.6,0-9.3-0.1-14,0c-1.1,0-1.8-0.3-2.3-0.8c0.5,0.6,1.3,1,2.4,0.9c4.6-0.1,9.3,0,14,0
		c3.4,0,6.8,0.4,10.2,0.2c2.7-0.2,5.7-0.4,7.8-1.7c7.4-4.9,14.4-10.4,21.7-15.5C307.8,290.8,307.9,289.6,307.2,287.6z"/>
	<path fill="none" d="M194,159.8c1.3-0.9,1.5-1.8,1-3.2C195.5,158,195.2,158.9,194,159.8z"/>
	<path fill="none" d="M352.8,257.9c0.9-0.6,1.6-1.7,1.9-2.8C354.5,256.1,353.7,257.2,352.8,257.9z"/>
	<path fill="none" d="M75.4,117.8c-2.5-7.2-4.7-14.6-7.1-21.8c0-0.1,0-0.1-0.1-0.2c0,0.1,0,0.2,0.1,0.3
		C70.6,103.4,72.9,110.7,75.4,117.8c0.5,1.5,0.3,2.4-0.5,3.2C75.7,120.2,75.9,119.3,75.4,117.8z"/>
	<path fill="none" d="M363.6,226.2c-0.2-0.5-0.7-1-1.3-1.5c-3.6-2.6-7.2-5.2-10.8-7.8c3.6,2.6,7.2,5.2,10.8,7.8
		C362.9,225.2,363.3,225.7,363.6,226.2z"/>
	<path fill="none" d="M108.5,108.8c0.6-1.7,1.2-3.5,1.7-5.2c1-3.1,2-6.2,3-9.3c0,0,0,0,0,0c-1,3.1-2,6.1-3,9.2
		C109.7,105.3,109.1,107,108.5,108.8z"/>
	<path fill="none" d="M105.2,119.4c0-0.4,0.1-0.9,0.2-1.4c0.2-0.7,0.5-1.5,0.7-2.2c-0.2,0.7-0.5,1.4-0.7,2.1
		C105.3,118.5,105.2,118.9,105.2,119.4z"/>
	<path fill="none" d="M301.6,255c0.3,1,1,2.2,1.9,2.8C302.6,257.2,302,256,301.6,255z"/>
	<path fill="none" d="M144.2,202.2c0.9-0.7,1.8-1.4,2.5-2C146,200.8,145.2,201.4,144.2,202.2z"/>
	<path fill="none" d="M179.8,168C179.7,168,179.7,168,179.8,168C179.7,168,179.7,168,179.8,168c0.6,0.4,2.1,0.4,2.8-0.1
		C181.8,168.3,180.4,168.4,179.8,168z"/>
	<path fill="none" d="M145.7,143.5C145.7,143.5,145.7,143.5,145.7,143.5c7.5,5.5,15,10.9,22.6,16.3
		C160.8,154.4,153.3,148.9,145.7,143.5C145.7,143.5,145.7,143.5,145.7,143.5z"/>
	<path fill="none" d="M144.3,142.7C144.3,142.7,144.3,142.7,144.3,142.7c0.1,0.1,0.3,0.2,0.4,0.2
		C144.5,142.9,144.4,142.8,144.3,142.7C144.3,142.7,144.3,142.7,144.3,142.7z"/>
	<path fill="none" d="M187.2,141.6c-13.5,0.1-27,0.1-40.4,0.1c-0.7,0-1.4,0.1-2.1,0.2c0.7-0.1,1.4-0.2,2.1-0.2
		C160.4,141.7,173.9,141.7,187.2,141.6z"/>
	<path fill="none" d="M102.3,136.7c-2.2,0-3.2,0.7-3.9,2.8c-2.1,6.9-4.4,13.6-6.6,20.4c-0.3,0.9-0.7,1.8-1.6,2.8
		c-0.9-2.8-1.9-5.6-2.8-8.4c-1.7-5.1-3.4-10.3-5-15.4c-0.5-1.6-1.4-2.2-3.1-2.1c-7.5,0.1-15,0-22.5,0c-0.7,0-1.5,0-2.2,0
		c-0.1,0-0.1-0.1-0.2-0.2c0.1,0.1,0.1,0.2,0.2,0.3c0.7,0,1.5,0,2.2,0c7.5,0,15,0.1,22.5,0c1.7,0,2.6,0.6,3.1,2.1
		c1.6,5.2,3.3,10.3,5,15.4c0.9,2.8,1.9,5.6,2.8,8.4c0.9-1,1.3-1.9,1.6-2.8c2.2-6.8,4.5-13.6,6.6-20.4
		C99.1,137.5,100.2,136.8,102.3,136.7c7.4,0.2,14.8,0.2,22.2,0.2c0.7,0,1.4-0.1,2.8-0.3c0,0-0.1-0.1-0.1-0.1c-1.4,0.1-2,0.3-2.7,0.3
		C117.2,136.8,109.7,136.9,102.3,136.7z"/>
	<path fill="none" d="M251.2,227.8c-4.3,13.4-8.6,26.7-13,40.1c-0.1,0.5-0.4,0.9-0.7,1.3c-0.2,0-0.4,0-0.6,0.1c0.2,0,0.4,0,0.7,0
		c0.2-0.4,0.5-0.8,0.7-1.3c4.4-13.4,8.7-26.7,13-40.1c0.2-0.6-0.2-1.8-0.8-2.2C250.9,226.2,251.3,227.2,251.2,227.8z"/>
	<path fill="none" d="M57,207.4c5.2,0,10.4-0.1,15.5,0C67.3,207.3,62.1,207.3,57,207.4z"/>
	<path fill="none" d="M236.9,269.3c-0.5-1.4-1-2.9-1.5-4.3C235.9,266.4,236.4,267.9,236.9,269.3z"/>
	<path fill="none" d="M98.2,205.3c0.5,1.7,1.4,2.2,3.1,2.2c0.1,0,0.1,0,0.2,0c-1.7,0-2.5-0.5-3.1-2.2c-1.8-5.9-3.7-11.7-5.6-17.6
		c-0.7-2.1-1.4-4.1-2.1-6.1c-0.1,0-0.1,0-0.2,0c0.7,2.1,1.4,4.1,2.1,6.1C94.5,193.6,96.5,199.4,98.2,205.3z"/>
	<path fill="none" d="M78.4,207.4c-0.6,0-1.1,0-1.7,0C77.3,207.4,77.8,207.4,78.4,207.4C78.4,207.4,78.4,207.4,78.4,207.4z"/>
	<path fill="none" d="M112.3,248.2c-2.3-7.1-4.6-14.2-7-21.3c-0.6-1.8-0.6-3.1,1.2-4.2c4.1-2.8,8-5.7,12-8.6c2.7-2,5.4-3.9,8-5.9
		c-0.1-0.2-0.2-0.5-0.3-0.7c-0.1,0-0.1,0-0.2,0c0.1,0.2,0.2,0.5,0.3,0.7c-2.7,2-5.3,4-8,5.9c-4,2.9-7.9,5.8-12,8.6
		c-1.8,1.2-1.8,2.4-1.2,4.2c2.4,7.1,4.7,14.2,7,21.3c0.2,0.6,0.2,1.2,0.4,2.2c0.1,0,0.1,0.1,0.2,0.1
		C112.5,249.4,112.5,248.8,112.3,248.2z"/>
	<path fill="none" d="M289.1,207.6C289.1,207.6,289.1,207.6,289.1,207.6C289,207.6,289,207.6,289.1,207.6
		C289,207.6,289,207.6,289.1,207.6C289.1,207.6,289.1,207.6,289.1,207.6z"/>
	<path fill="none" d="M88.1,236c-5.9,4.4-12,8.7-18,13c-0.6,0.5-1.3,0.9-2.5,1.6c0,0,0,0.1,0,0.1c1.3-0.8,2-1.2,2.7-1.7
		c6-4.3,12-8.6,18-13c0.8-0.6,1.5-0.8,2.2-0.8C89.7,235,88.9,235.3,88.1,236z"/>
	<path fill="none" d="M67.8,93.7c0,0.1,0,0.2,0.1,0.3C67.8,93.9,67.8,93.8,67.8,93.7C67.8,93.7,67.8,93.7,67.8,93.7z"/>
	<path fill="none" d="M352.5,86.1c-7.3-5.5-14.8-10.8-22.2-16.2c-1.5-1.1-2.5-1.1-4,0c-7.6,5.6-15.2,11.1-22.8,16.7
		c-0.9,0.6-1.6,1.7-1.9,2.7c-3.4,10.2-6.7,20.4-10,30.6c-1.7,5.4-3.4,10.7-5.3,16.5c1.9-5.8,3.6-11,5.3-16.3
		c3.3-10.2,6.6-20.4,10-30.6c0.3-1,1.1-2.1,1.9-2.7c7.6-5.6,15.2-11.1,22.8-16.7c1.5-1.1,2.5-1.1,4,0c7.4,5.4,14.8,10.8,22.2,16.2
		c1,0.7,1.7,2,2.1,3.2c2.9,8.6,5.6,17.2,8.5,25.9c0.2,0.7,0.4,1.3,0.3,1.8c0.1-0.6-0.1-1.3-0.3-2c-2.9-8.6-5.6-17.3-8.5-25.9
		C354.1,88.1,353.5,86.8,352.5,86.1z"/>
	<path fill="none" d="M471.4,104.5c0.4,1.2,0.3,2.7,0,3.9c-2.8,8.9-5.7,17.7-8.5,26.6c-0.4,1.4-1.1,1.8-2.5,1.8
		c-2.1,0.1-4.3,0.1-6.4,0.2c2.2,0,4.3,0,6.5,0c1.3,0,2.1-0.4,2.5-1.8c2.8-8.9,5.7-17.7,8.5-26.6c0.4-1.2,0.4-2.7,0-3.9
		c-4.7-14.7-9.5-29.4-14.3-44.1c-0.3-1-0.6-1.7-0.9-2.1c0.2,0.4,0.5,1,0.8,1.9C461.9,75.1,466.7,89.8,471.4,104.5z"/>
	<path fill="none" d="M281.5,134.7c-0.5,1.5-1.2,2-2.7,2c-4.7,0-9.3-0.1-14-0.1c-1,0-1.6-0.3-2.1-0.9c0.4,0.8,1.1,1.1,2.2,1.1
		c4.7,0,9.3,0,14,0.1c1.4,0,2.2-0.6,2.7-2c3.6-11.3,7.3-22.6,11-33.9c0.4-1.5,0.8-3,1.3-4.4c-0.4,1.4-0.9,2.8-1.4,4.2
		C288.8,112.1,285.1,123.4,281.5,134.7z"/>
	<path fill="none" d="M186.4,207.5c0.5,0.2,1,0.3,1.8,0.4C187.4,207.7,186.9,207.6,186.4,207.5z"/>
	<path fill="none" d="M326.5,274.5c-5.2-3.8-10.5-7.6-15.8-11.5C316,266.9,321.3,270.7,326.5,274.5z"/>
	<path fill="none" d="M172.9,254.9c-0.4,1.1-1.1,2.3-2.1,2.9c-7.6,5.6-15.3,11.2-23.1,16.7c-0.7,0.5-2.3,0.4-3-0.1
		c-7.7-5.4-15.3-11-22.9-16.5c-0.2-0.1-0.3-0.3-0.5-0.4c0.2,0.2,0.4,0.3,0.6,0.5c7.6,5.5,15.2,11.1,22.9,16.5c0.7,0.5,2.3,0.5,3,0.1
		c7.8-5.5,15.4-11,23.1-16.7C171.8,257.2,172.6,256.1,172.9,254.9c3.6-10.3,7-20.8,10.4-31.2c1.6-5.2,3.2-10.3,5-15.8
		c-1.8,5.5-3.4,10.6-5.1,15.7C179.8,234,176.4,244.5,172.9,254.9z"/>
	<path fill="none" d="M176.5,172.2c-2.5,1.9-4.9,3.6-7.3,5.4C171.6,175.9,174,174.1,176.5,172.2z"/>
	<path fill="none" d="M133.1,141.8c-9.2-0.1-18.5,0-27.7-0.1c-1.8,0-2.7,0.6-3.3,2.3c-2.8,9-5.8,17.9-8.6,26.9
		c0,0.2-0.1,0.3-0.1,0.5c0-0.1,0.1-0.3,0.1-0.4c2.8-9,5.8-17.9,8.6-26.9c0.5-1.7,1.5-2.3,3.3-2.3c9.2,0.1,18.5,0,27.7,0.1
		c1.1,0,2.4,0.4,3.2,1c12.7,9.1,25.3,18.4,38,27.6c0.7,0.4,1.3,1,2.2,1.7c-0.9-0.8-1.5-1.3-2.2-1.8c-12.6-9.2-25.3-18.4-38-27.6
		C135.5,142.2,134.2,141.8,133.1,141.8z"/>
	<path fill="none" d="M195,187.7c-1.5,4.4-2.9,8.9-4.5,13.2c-0.3,0.8-1.5,1.7-2.2,1.7c-14.1,0.1-28.3,0.1-42.5,0.1
		c-0.3,0-0.6-0.2-1.5-0.5c1,0.4,1.3,0.6,1.6,0.6c14.1,0,28.3,0,42.5-0.1c0.8,0,1.9-1,2.2-1.7c1.6-4.4,3-8.8,4.5-13.2
		c0.4-1.2,0.1-2.1-0.6-2.8C195.1,185.7,195.3,186.5,195,187.7z"/>
	<path fill="#000066" d="M143.2,0.4c-1.7,5.6-3.4,11.1-5.1,16.6c-1.1,3.6-2.4,7.1-3.4,10.7c-0.5,1.9-1.4,2.7-3.5,2.7
		c-9-0.1-18,0-26.9-0.1c-1.2,0-2.7-0.3-3.7-1C87.7,20.1,75,10.7,62.2,1.4c-0.3-0.2-0.5-0.6-0.8-0.9c0.1,0,0.1,0,0.2,0
		c-0.1-0.1-0.1-0.2-0.2-0.3c-3.5,0-7,0-10.5,0c-0.1,0.1-0.2,0.1-0.3,0.2c0.1,0,0.1,0,0.2,0C46.5,3.6,42.4,6.9,38,9.9
		c-1.1,0.8-1.6,1.5-1.8,2.4c0,0.6,0.1,1.2,0.4,2c1.5,4.1,2.8,8.2,4.1,12.3c0.4,1.1,0.5,2.1,0.9,3.5c-0.1,0-0.1,0-0.1,0
		c0,0.1,0,0.1,0,0.2c-1.1,0.1-2,0.2-2.8,0.2c-4.8,0-9.7,0-14.5,0c-1.3,0-2.1,0.4-2.6,1.4c-0.1,0.2-0.1,0.3-0.2,0.5
		c-0.3,0.9-0.6,1.8-0.9,2.7c-0.6,1.9-1.2,3.8-1.9,5.7c-0.6,1.9-1.2,3.7-1.9,5.6c0,0.1-0.1,0.2-0.1,0.3c-0.2,0.7-0.6,1.4-1.1,2.4
		c-3-2.2-5.8-4.1-8.5-6.1c-2-1.4-4-2.8-5.9-4.3c-0.6-0.5-1.2-0.7-1.8-0.6v6.3c0.7-0.1,1.3,0.1,2.1,0.7c0.9,0.7,1.9,1.4,2.9,2.2
		c1.4,1,2.8,2.1,4.2,3.1c1.4,1,2.7,1.9,4.1,2.9c0.3,0.2,0.6,0.5,0.8,0.7c0.1,0.1,0.2,0.2,0.2,0.4c0.2,0.4,0.2,0.8,0.2,1.2
		c0,0.3-0.1,0.6-0.3,1C9.2,69.4,5,82.3,0.7,95.3c-0.2,0.7-0.6,1.3-0.9,1.9c-0.2,0-0.3,0-0.5,0v19.3c0.1-0.3,0.3-0.6,0.5-1.1
		c0,0.1,0,0.1,0.1,0.2c0,0,0-0.1,0-0.1c0.8,2.3,1.5,3.9,2,5.6c2,6,4,12,5.8,18c0.1,0.5,0.3,1,0.5,1.4c0.6,1,1.6,1.5,3.4,1.5
		c7.5-0.2,15-0.1,22.5-0.1c0.6,0,1.1,0.1,2.2,0.1c0,0,0,0.1-0.1,0.1c0.1,0,0.1,0,0.2,0c-0.6,0.7-0.9,1.3-1.4,1.6
		c-10.9,7.9-21.8,15.8-32.7,23.8c-1.1,0.8-2,1.2-3,1v7.5c0.8-0.2,1.5,0.1,2.5,0.8c10.9,8,21.8,15.9,32.7,23.8
		c0.5,0.3,0.9,0.7,1.8,1.5c-1.4,0.2-2.2,0.4-3,0.4c-7.3,0-14.7,0.1-22,0c-2,0-3,0.6-3.6,2.5c-2.2,7.1-4.5,14.1-6.8,21.1
		c-0.2,0.8-0.6,1.4-1,2.2c-0.2-0.1-0.4-0.1-0.6-0.1v19.2c0.1-0.1,0.2-0.2,0.4-0.3c0.4,0.7,0.9,1.4,1.2,2.1
		c4.2,13,8.4,25.9,12.7,38.9c0.3,0.8,0.3,1.5,0,2.1c-0.2,0.4-0.5,0.7-1,1c-3.9,2.7-7.6,5.6-11.6,8.3c-0.4,0.3-1.1,0.4-1.7,0.4v6.3
		c0.6,0.1,1.3-0.1,2-0.5c2.1-1.6,4.1-3.1,6.2-4.5c2.6-1.9,5.3-3.9,8.2-5.9c0.6,1.6,1.1,3.1,1.6,4.5c0.4,1.1,0.9,2.2,1.4,3.2
		c0.9,2.9,2,5.8,2.8,8.8c0.4,1.6,1.4,2,2.9,2c4.8,0,9.7,0,14.5,0c0.8,0,1.7,0.2,2.9,0.3c-1.7,5.3-3.2,10.3-5,15.2
		c-0.9,2.5-0.6,3.9,1.7,5.4c3.9,2.5,7.6,5.4,11.4,8.1c1.2,0.8,1.5,1.4,0.9,2.1h10.1c-0.2-0.2-0.4-0.3-0.6-0.5
		c1.7-1.2,3.3-2.4,4.9-3.6c2-1.5,3.9-2.9,5.8-4.3c9.8-7.1,19.6-14.2,29.4-21.2c0.9-0.6,2.3-1.1,3.4-1.1c9.2-0.1,18.5,0,27.7-0.1
		c1.8,0,2.6,0.6,3.1,2.2c2.8,8.7,5.7,17.4,8.4,26.1c0.2,0.7,0.3,1.4,0.3,2.1c0,0.1,0,0.3,0,0.4h6.2c0-1.8,0.3-3.5,0.9-5.4
		c2.6-7.5,5-15.1,7.4-22.8c0.6-1.9,1.5-2.6,3.6-2.6c9.2,0.1,18.3,0,27.5,0.1c1.4,0,3,0.5,4.1,1.3c2.1,1.5,4.3,3.1,6.4,4.6
		c1.4,1,2.8,2,4.2,3c7.2,5.2,14.5,10.5,21.6,15.7c0.4,0.3,0.8,0.6,1.2,0.9c2.1,1.4,4.2,2.8,6.7,4.5c-0.3,0.2-0.6,0.4-0.9,0.6h10.2
		c-0.4-0.7,0-1.3,1.2-2.2c8.2-6,16.5-11.9,24.7-17.9c4.5-3.3,9-6.5,13.5-9.7c0.5-0.3,1-0.5,1.6-0.7c0.6-0.1,1.2-0.2,1.7-0.2
		c4.7-0.1,9.3,0,14,0c2.4,0,4.7,0,7,0c1.2,0,2.3,0,3.5,0c1.2,0,2.3,0,3.5,0c1.8-0.1,2.7,0.6,3.2,2.3c2.8,8.6,5.7,17.2,8.3,25.9
		c0.2,0.8,0.3,1.7,0.3,2.5h6.2c0-0.2,0-0.4,0-0.6c0-1,0.2-2,0.4-2.9c2.5-8.3,5.4-16.6,8-24.9c0.6-1.8,1.5-2.4,3.4-2.4
		c9,0.1,18.1,0,27.2,0.1c1.3,0,2.7,0.4,3.7,1.1c12.4,9,24.8,18,37.2,27c0.9,0.6,1.7,1.3,2.8,2.2c-0.2,0.2-0.3,0.3-0.5,0.4h9.8
		c-0.2-0.1-0.3-0.3-0.5-0.4c0.8-0.7,1.5-1.3,2.2-1.8c3.8-2.8,7.5-5.6,11.4-8.1c2-1.3,2.1-2.6,1.4-4.6c-1.5-4.3-2.9-8.7-4.3-13
		c-0.8-2.6-0.6-2.9,2.1-2.9c0,0,0.1,0,0.1,0c4.8,0,9.6-0.1,14.4,0c1.6,0,2.5-0.4,3-2.2c1.4-4.7,3-9.4,4.5-14
		c0.2-0.8,0.7-1.5,1.1-2.5c0,0,0,0,0.1,0.1c0,0,0,0,0-0.1c4.6,3.3,9,6.4,13.3,9.7c0.7,0.5,1.2,0.8,1.8,1c0.1,0,0.2,0,0.3,0v-6.1
		c-0.3,0-0.5-0.1-0.7-0.2c-4.1-2.8-8.1-5.8-12.1-8.8c-0.5-0.4-0.8-1.8-0.6-2.5c4.2-13.2,8.5-26.3,12.8-39.4c0.2-0.4,0.4-0.8,0.6-1.2
		v-19.9c-0.5-1.4-1.1-2.9-1.7-4.3c-2.1-6.3-4.1-12.6-6.1-19c-0.2-0.8-0.5-1.3-1-1.7c-0.5-0.3-1-0.4-1.8-0.4c-7.4,0.1-14.8,0-22.2,0
		c-0.9,0-1.8-0.1-2.9-0.7c0,0,0,0,0,0c-0.1,0-0.1-0.1-0.2-0.1c0.6-0.4,1.2-1,1.8-1.4c10.9-7.9,21.8-15.7,32.6-23.6
		c0.5-0.4,1-0.7,1.5-0.8v-7.4c-0.3,0-0.6-0.1-0.8-0.2c-11.4-8.2-22.8-16.4-34.2-24.7c-0.3-0.3-0.5-0.7-1.1-1.6c4.7,0,8.8,0,13-0.1
		c4.2,0,8.5-0.2,12.7-0.1c1.7,0,2.3-0.7,2.8-2.1c2.2-7.1,4.6-14.2,6.9-21.3c0.1-0.5,0.4-1,0.7-1.7v-20c-0.3-0.4-0.5-0.7-0.6-1.1
		c-4.2-13-8.4-26.1-12.7-39.1c-0.5-1.5-0.3-2.4,1-3.3c3.7-2.5,7.2-5.1,10.7-7.8c0.6-0.5,1.1-0.7,1.6-0.8v-6c-0.6,0.1-1.2,0.4-1.9,1
		c-4.3,3.3-8.7,6.4-13.6,9.9c-1-2.9-2-5.4-2.8-7.9c-1-3-2.1-6-2.9-9c-0.4-1.5-1.2-1.8-2.5-1.8c-5,0-10.1-0.1-15.2,0
		c-1.4,0-2-0.3-2.1-1.1c-0.1-0.4,0-1,0.3-1.7c1.5-4.5,2.9-9,4.5-13.5c0.2-0.7,0.3-1.3,0.3-1.8c-0.1-1-0.6-1.8-1.8-2.6
		c-4.4-3-8.6-6.3-12.8-9.5c-3.5,0-7,0-10.5,0c-2.1,1.7-4.2,3.5-6.4,5c-7.2,5.3-14.4,10.5-21.6,15.7c-3.4,2.5-6.8,4.9-10.2,7.3
		c0,0,0,0,0,0c-1.5,1.1-3.7,1.8-5.5,1.8c-8.7,0.2-17.5,0.1-26.2,0.1l0,0c0,0,0,0,0,0c-1.6,0-2.7-0.3-3.2-2c0,0,0,0,0,0
		c-1.1-3.4-2.2-6.8-3.3-10.3c-1.8-5.4-3.6-10.8-5.3-16.2c-0.2-0.5-0.1-1-0.2-1.5c-2,0-4,0-6,0c0,0,0,0,0,0
		c-1.7,5.5-3.4,11.1-5.2,16.6c0,0,0,0,0,0c-1.1,3.6-2.4,7.3-3.5,10.9c-0.5,1.8-1.5,2.5-3.4,2.5h0l0,0c-9.2-0.1-18.3,0-27.4-0.1
		c0,0,0,0,0,0c-1.3,0-2.7-0.4-3.7-1.1c0,0,0,0,0,0c-3.3-2.4-6.6-4.8-10-7.2c-10-7.2-19.9-14.4-29.8-21.6c-3.5,0-7,0-10.5,0
		c-1.1,0.8-2.1,1.7-3.2,2.5c-2.9,2.3-5.9,4.5-8.9,6.7c-8.9,6.5-17.7,13-26.7,19.3c-1.2,0.9-3,1.4-4.6,1.4c-9,0.1-18,0-27,0.1
		c-1.6,0-2.7-0.2-3.3-2c-2.9-8.9-5.8-17.9-8.7-26.8c-0.1-0.4-0.1-0.8-0.2-1.2c0.1,0,0.1,0,0.2,0c0-0.1,0-0.2,0-0.3h-6.1
		c0,0.1-0.1,0.2-0.1,0.3C143.2,0.4,143.2,0.4,143.2,0.4z M102,36.8c1.8,1.3,3.7,2.6,5.5,3.9c5.5,4,11,8,16.6,12
		c1.4,1,1.8,1.9,1.2,3.6c-1,3-2,6-3,9.1c-2,6-3.9,12-5.9,18c-0.3,1.1-1.2,2.2-2.1,2.9c0,0,0,0,0,0c-7.2,5.4-14.5,10.6-21.8,15.9
		c-0.7,0.5-1.4,0.9-2,0.9c-0.3,0-0.7,0-1-0.2c-0.2-0.1-0.4-0.2-0.6-0.3c-0.2-0.1-0.4-0.2-0.6-0.4c0,0,0,0,0,0
		c-7.6-5.6-15.4-11.1-23.1-16.7c-0.6-0.4-1.1-1.1-1.3-1.8c-4.9-15.1-9.7-30.2-14.5-45.4c0,0,0,0,0,0c-0.2-0.7-0.3-1.2-0.4-1.6
		c0-0.1,0-0.2,0-0.3c0-0.3,0-0.5,0.2-0.6c0.3-0.4,1.1-0.5,2.5-0.5c7.8,0,15.7,0,23.5,0c3.9,0,7.7,0,11.5,0c3.8,0,7.7,0,11.5,0.1
		c0,0,0,0,0,0C99.5,35.5,101,36,102,36.8z M232.1,130.7c6.3,4.4,3.7,4.6,10.3-0.1c3.6-2.3,7-4.9,10.9-7.7c1.8,5.2,3.3,9.9,4.9,14.8
		c0.6,1.8,0.9,2.8,1.4,3.3c0.7,0.7,1.7,0.7,4.1,0.7c4.9,0,9.8,0,15.3,0c0,0,0,0.1,0,0.1c0,0,0.1,0,0.1,0c-0.7,2.3-1.2,4.3-1.8,6.2
		c-1.1,3.4-2.2,6.8-3.4,10.2c-0.5,1.3-0.5,2.3,0.2,3.1c0.2,0.3,0.5,0.5,0.9,0.8c4,2.7,7.8,5.6,11.7,8.5c0.6,0.4,1.1,0.9,2,1.6
		c0,0,0,0,0,0c0,0,0.1,0.1,0.1,0.1c-1.8,1.4-3.5,2.7-5.2,4c-2.8,2-5.6,4.2-8.5,6.1c-1.6,1-1.8,2.1-1.2,3.9c1.6,4.4,2.9,9,4.4,13.5
		c0.8,2.6,0.6,2.9-2.1,2.9c-4.7,0-9.3,0.2-14,0c-2.2-0.1-3.2,0.8-3.8,2.9c-1.3,4.4-2.8,8.7-4.2,13.1c-0.2,0.8-0.6,1.5-1.1,2.6
		c-3-2.2-5.9-4.3-8.8-6.3c-0.3-0.2-0.6-0.5-1-0.7c-0.9-0.7-1.8-1.5-2.7-2.2c-1.2-0.9-2.4-1.5-3.5-1.5c-2.4,0-4.7,2.9-7,4.5
		c-2.9,2-5.7,4-8.9,6.3c0,0,0-0.1,0-0.1c0,0,0,0-0.1,0c-1.1-3.2-2.1-6-3-8.8c-0.9-2.6-1.9-5.2-2.5-7.8c-0.1-0.6-0.3-1-0.6-1.3
		c-0.5-0.4-1.1-0.5-1.9-0.5c-4.6,0.1-9.2,0-13.8,0c-1.6,0-2.6,0-3.1-0.3c-0.9-0.4-0.6-1.3,0.2-3.7c1.4-4.3,2.7-8.8,4.2-13.1
		c0.4-1.2,0.3-1.9-0.3-2.6c-0.2-0.2-0.4-0.4-0.7-0.6c-0.4-0.3-0.9-0.6-1.3-0.9c-2.6-1.9-5.3-3.8-7.8-5.7c-0.8-0.6-1.6-1.2-2.4-1.7
		c-0.1-0.1-0.2-0.2-0.4-0.3c-0.4-0.3-0.9-0.7-1.4-1.1c-0.2-0.2-0.5-0.4-0.8-0.7c0,0,0,0,0,0c0,0-0.1-0.1-0.1-0.1
		c3.5-2.5,6.7-4.9,9.9-7.2c6-4.2,6-4.2,3.7-11.2c-1.3-3.8-2.4-7.6-3.7-11.7c1.3-0.1,2.2-0.2,3-0.2c4.8,0,9.7-0.1,14.5,0
		c1.6,0,2.4-0.5,2.8-2.1c1.3-4.5,2.8-8.9,4.3-13.3c0.3-1,0.8-2,1.4-3.3C225.1,125.7,228.6,128.2,232.1,130.7z M223.5,116.3
		c4.2-13.2,8.5-26.4,12.8-39.6c0.2-0.6,0.5-1.1,0.7-1.6c0.3,0,0.5-0.1,0.7-0.1c1.1,3.3,2.2,6.7,3.4,10.1c3.3,9.9,6.4,19.9,9.8,29.8
		c0.7,2.2,0.5,3.5-1.5,4.8c-3.5,2.3-6.9,4.9-10.3,7.4c-0.6,0.5-1.2,0.7-1.7,0.7c-0.5,0-1.1-0.2-1.7-0.6c-2.2-1.6-4.4-3.2-6.5-4.8
		c-0.8-0.6-1.5-1.1-2.3-1.7c-0.8-0.6-1.6-1.2-2.4-1.8C223.8,118.4,223.2,117,223.5,116.3z M361.4,93.6c1,0.6,1.6,0.8,2.1,1.2
		c6.2,4.4,12.3,8.8,18.4,13.3c1.6,1.2,2.8,1.2,4.4,0c5.6-4.2,11.4-8.3,17.1-12.5c0.9-0.6,1.9-1.2,2.8-1.8c0.1,0.1,0.2,0.2,0.2,0.2
		c0.1,0.1,0.2,0.1,0.3,0.2c-0.5,1.8-1.1,3.7-1.7,5.5c-0.2,0.6-0.4,1.2-0.5,1.8c-1.7,5.3-3.3,10.6-5.2,15.9c-0.3,0.8-0.4,1.5-0.3,2
		c0,0.1,0,0.2,0.1,0.3c0,0,0,0.1,0,0.1c0.3,0.7,0.8,1.3,1.7,1.9c6.1,4.2,12,8.6,18,13c0.6,0.4,1.1,0.9,1.6,1.3c0,0,0,0.1,0,0.1
		c0,0,0,0,0,0c-0.1,0.2-0.1,0.4-0.2,0.6c-0.8,0.1-1.7,0.2-2.6,0.2c-7.3,0-14.7,0.1-22,0c-2,0-2.9,0.6-3.5,2.6
		c-2.1,6.9-4.4,13.8-6.7,20.6c-0.3,0.9-0.7,1.8-1.4,3.5c-1.5-4.4-2.7-8.1-4-11.9c-1.4-4.2-2.8-8.4-4-12.6c-0.5-1.6-1.3-2.2-3-2.2
		c-7.5,0.1-15,0-22.5,0c-0.8,0-1.6-0.1-3.2-0.2c0,0,0.1-0.1,0.1-0.1c0,0-0.1,0-0.1,0c1-1,1.5-1.5,2-1.9c6.1-4.4,12.2-8.9,18.4-13.3
		c1.1-0.8,1.6-1.5,1.6-2.6c0-0.4-0.1-0.8-0.3-1.2c-2.6-7.5-5-15-7.4-22.5c-0.1-0.3-0.1-0.6-0.2-1.5c0,0,0,0,0,0
		C361.4,93.7,361.4,93.6,361.4,93.6z M399.5,226.9c2.4,7,4.7,14.1,6.9,21.1c0.1,0.2,0.1,0.4,0.1,0.7c0.1,0.5,0.2,1,0.3,1.9
		c0,0.1,0,0.2,0,0.2c0,0,0,0,0,0c0,0,0,0.1,0,0.1c-1.3-0.8-2.1-1.3-2.8-1.8c-5.9-4.3-12-8.7-17.9-13.1c-1.4-1.1-2.4-1-3.7,0
		c-5.8,4.2-11.6,8.4-17.4,12.6c-0.9,0.6-1.7,1.2-3.2,2.3c0,0,0-0.1,0-0.1c0,0,0,0,0,0c0.2-1.4,0.2-2.3,0.4-3
		c2.2-6.9,4.4-13.8,6.8-20.6c0.2-0.6,0.3-1.1,0.4-1.5c0.1-1.4-0.6-2.3-2.1-3.4c-5.8-4-11.5-8.3-17.2-12.4c-0.7-0.5-1.4-1.1-2.7-2.1
		c0,0,0.1,0,0.1,0c0,0-0.1-0.1-0.1-0.1c1.5-0.1,2.3-0.3,3.1-0.3c7.4,0,14.8-0.1,22.2,0c1.8,0,2.8-0.5,3.4-2.4
		c2.3-7.4,4.8-14.7,7.2-22.1c0.2-0.4,0.4-0.9,0.8-1.9c0.6,1.1,1,1.7,1.2,2.4c2.4,7.2,4.8,14.4,7,21.6c0.6,1.9,1.6,2.4,3.4,2.3
		c7.3-0.1,14.7,0,22,0c0.9,0,1.7,0.1,2.6,0.2c0,0.1,0,0.2,0.1,0.2c0.1,0.2,0.1,0.3,0.1,0.5c-3.2,2.4-6.5,4.8-9.8,7.3
		c-3.3,2.4-6.5,4.8-9.9,7.1c-1.2,0.9-1.8,1.8-1.7,2.9C399.3,226,399.4,226.4,399.5,226.9z M281,184.3c3.8-2.5,7.3-5.3,11-7.8
		c0.7-0.5,2.3-0.6,3-0.1c11.5,8.3,22.9,16.6,34.3,24.9c0.2,0.1,0.3,0.3,0.9,1.1c-1.1,0.2-1.8,0.4-2.4,0.4c-13.2,0-26.5-0.1-39.7,0.1
		c-2.6,0-3.9-0.8-4.6-3.3c-1.1-3.8-2.4-7.6-3.7-11.4c-0.2-0.6-0.3-1.1-0.3-1.6C279.5,185.7,279.9,185,281,184.3z M325.7,145.7
		C325.6,145.7,325.6,145.7,325.7,145.7c-9.9,7.2-19.9,14.4-29.8,21.7c0,0,0,0,0,0c-0.9,0.7-1.7,1-2.4,1c-0.8,0-1.5-0.3-2.4-1
		c-3.4-2.6-6.8-5.1-10.3-7.5c-1.3-0.9-1.7-1.9-1.2-3.4c0,0,0,0,0,0c1.5-4.4,2.9-8.9,4.5-13.1c0,0,0,0,0,0c0,0,0,0,0,0
		c0.3-0.7,1.3-1.6,2.1-1.6c0,0,0,0,0,0c4,0,7.9,0,11.9,0c10.3,0,20.7,0,31,0c0.1,0,0.2,0.1,0.4,0.1c0.2,0.1,0.4,0.2,0.8,0.4
		C328.5,143.6,327.2,144.7,325.7,145.7z M336.8,143.6c1.7-1.2,3.3-1.9,5.5-1.9c8.9,0.1,17.8,0.1,26.7,0c1.7,0,2.6,0.6,3.1,2
		c0,0,0,0,0,0.1c0,0.1,0.1,0.2,0.1,0.2c0,0,0,0.1,0,0.1c0,0.1,0,0.1,0.1,0.2c2.8,9,5.8,18.1,8.6,27.1c0.3,0.9,0.4,2,0.1,2.9
		c-2.7,8.7-5.6,17.4-8.4,26.1c-0.5,1.6-1.3,2.2-3,2.2c-9.5-0.1-19,0-28.5-0.1c-1.1-0.1-2.3-0.5-3.2-1.1
		c-12.9-9.3-25.6-18.6-38.4-27.9c-0.5-0.4-1.1-0.7-2-1.2c5.9-4.3,11.1-8.2,16.3-12C321.5,154.7,329.2,149.2,336.8,143.6z
		 M281.5,209.5c4.3,13,8.6,26,12.8,39.1c0.2,0.7,0.2,1.4,0.3,2.1c-0.2,0.1-0.4,0.2-0.6,0.3c-5.3-3.9-10.6-7.7-15.9-11.6
		c-6.2-4.5-12.4-9-18.6-13.4c-1.4-1-1.8-2-1.3-3.6c1.4-4.3,2.9-8.5,4.2-12.8c0.4-1.4,1-2.1,2.6-2c0,0,0.1,0,0.1,0c0,0,0,0,0,0
		c1.2,0,2.3,0,3.5,0c1.2,0,2.3,0,3.5,0c2.3,0,4.7,0,7,0.1C279.9,207.7,281.2,208.7,281.5,209.5z M287,210.4
		c-0.3-0.8-0.4-1.6-0.6-2.7c1-0.1,1.8-0.1,2.6-0.1c0,0,0,0,0,0c0,0,0,0,0,0c15.7,0,31.3-0.1,47,0.1c1.5,0,3.3,0.6,4.5,1.5
		c3.7,2.5,7.3,5.2,10.9,7.8c3.6,2.6,7.2,5.2,10.8,7.8c0.7,0.5,1.1,0.9,1.3,1.5c0.1,0.3,0.2,0.6,0.1,0.9c0,0.3-0.1,0.7-0.2,1.1
		c0,0,0,0,0,0c-3,8.9-5.7,17.9-8.7,26.8c-0.3,1.1-1,2.2-1.9,2.8c-7.6,5.6-15.2,11-22.8,16.6c-1.3,1-2.2,1-3.5,0
		c-5.3-3.8-10.6-7.6-15.8-11.5c-2.4-1.7-4.8-3.5-7.2-5.2c-0.9-0.6-1.6-1.8-1.9-2.8C296.7,240.2,291.8,225.3,287,210.4z M363,115.2
		c0.3,0.8,0.4,1.5,0.3,2c0,1-0.6,1.8-1.8,2.8c-7.1,4.9-14,10.2-21.1,15.2c-1.2,0.9-2.8,1.6-4.3,1.6c-15.2,0.1-30.5,0.1-45.7,0.1
		c-1.3-0.2-2.6-0.4-4.2-0.5c1.9-5.8,3.6-11.1,5.3-16.5c3.3-10.2,6.6-20.4,10-30.6c0.3-1,1-2.1,1.9-2.7c7.6-5.6,15.2-11.1,22.8-16.7
		c1.5-1.1,2.5-1.1,4,0c7.4,5.4,14.9,10.7,22.2,16.2c1,0.7,1.7,2,2.1,3.2C357.5,97.9,360.1,106.6,363,115.2z M292.6,101
		c-3.7,11.3-7.4,22.6-11,33.9c-0.5,1.4-1.3,2-2.7,2c-4.7-0.1-9.3-0.1-14-0.1c-1.1,0-1.7-0.4-2.2-1.1c-0.2-0.3-0.3-0.6-0.4-1
		c-1.4-4.4-2.8-8.9-4.3-13.3c-0.5-1.5,0.2-2.3,1.3-3.1c8.4-6,16.7-12.1,25.1-18.2c3.2-2.3,6.4-4.7,9.5-7c0.4,0.3,0.6,0.5,0.9,0.7
		c-0.3,0.9-0.6,1.9-0.9,2.8C293.5,98,293.1,99.5,292.6,101z M251.3,227.9c-4.3,13.4-8.6,26.7-13,40.1c-0.2,0.5-0.5,0.9-0.7,1.3
		c-0.3,0-0.5,0-0.7,0c-0.5-1.4-1-2.9-1.5-4.3c-1-3-2-5.9-2.9-8.9c-3-9.2-5.9-18.5-9-27.8c-0.5-1.4-0.3-2.2,0.8-3
		c3.9-2.8,7.7-5.6,11.6-8.2c0.7-0.4,2.2-0.5,2.8,0c4,2.7,7.9,5.6,11.7,8.5c0,0,0.1,0.1,0.1,0.1C251.1,226.1,251.4,227.3,251.3,227.9
		z M112.5,250.5c-0.8-0.4-1.3-0.6-1.8-0.9c-6.3-4.5-12.6-9-18.8-13.6c-0.5-0.4-1-0.6-1.5-0.8c-0.7-0.1-1.4,0.1-2.2,0.8
		c-6,4.4-12,8.7-18,13c-0.7,0.5-1.4,0.9-2.7,1.7c0,0,0-0.1,0-0.1c-0.1,0-0.1,0.1-0.2,0.1c0.3-1.4,0.3-2.1,0.5-2.8
		c2.3-7,4.5-14.1,6.9-21.1c0.6-1.9,0.3-3-1.3-4.2c-6.1-4.3-12.1-8.8-18.2-13.2c-0.5-0.4-1-0.8-1.5-1.2c0.2-0.2,0.3-0.4,0.3-0.6
		c0.9-0.1,1.8-0.2,2.6-0.2c0.1,0,0.2,0,0.3,0c5.2-0.1,10.4-0.1,15.5,0c1.4,0,2.8,0,4.3,0c0.6,0,1.1,0,1.7,0c2.1,0.1,3.1-0.7,3.7-2.8
		c2.2-7.1,4.5-14.1,6.8-21.1c0.2-0.6,0.5-1.3,0.8-1.9c0.1,0,0.1,0,0.2,0c0.1,0,0.3,0,0.5,0c0.1,0,0.1,0,0.2,0c0.7,2,1.4,4,2.1,6.1
		c1.9,5.9,3.8,11.7,5.6,17.6c0.6,1.7,1.4,2.2,3.1,2.2c7.3-0.1,14.7,0,22,0c0.1,0,0.1,0,0.2,0c0.7,0,1.6,0,2.4,0c0.1,0,0.1,0,0.2,0
		c0.1,0.2,0.2,0.5,0.3,0.7c-2.6,2-5.3,3.9-8,5.9c-4,2.9-7.9,5.8-12,8.6c-1.8,1.1-1.8,2.4-1.2,4.2c2.4,7.1,4.7,14.2,7,21.3
		c0.2,0.6,0.2,1.2,0.4,2.3C112.7,250.5,112.6,250.4,112.5,250.5C112.5,250.4,112.5,250.5,112.5,250.5z M75.4,117.9
		c-2.5-7.2-4.8-14.5-7.1-21.8c0-0.1,0-0.2-0.1-0.3c-0.1-0.5-0.2-1-0.4-1.9c0-0.1,0-0.2-0.1-0.3c0,0,0,0,0,0c0,0,0-0.1,0-0.1
		c1.3,0.8,2,1.2,2.8,1.7c5.9,4.3,11.9,8.5,17.8,12.9c1.6,1.2,2.8,1.2,4.4,0c5.9-4.4,12-8.7,18-13.1c0.6-0.5,1.3-0.8,2.5-0.9
		c0,0,0,0.1,0,0.1c0,0,0,0,0,0c-1,3.1-2,6.2-3,9.3c-0.6,1.7-1.2,3.5-1.7,5.2c-0.8,2.3-1.5,4.7-2.3,7c-0.2,0.7-0.5,1.5-0.7,2.2
		c-0.2,0.5-0.3,1-0.2,1.4c0.1,0.7,0.5,1.3,1.3,1.8c6,4.3,12,8.7,18,13c0.8,0.6,1.5,1.2,2.8,2.3c0,0-0.1,0-0.1,0c0,0,0.1,0.1,0.1,0.1
		c-1.4,0.2-2.1,0.3-2.8,0.3c-7.4,0-14.8,0-22.2-0.1c-2.2,0-3.3,0.7-3.9,2.8c-2.1,6.8-4.4,13.6-6.6,20.4c-0.3,0.9-0.7,1.8-1.6,2.8
		c-0.9-2.8-1.9-5.6-2.8-8.4c-1.7-5.1-3.4-10.2-5-15.4c-0.5-1.5-1.4-2.1-3.1-2.1c-7.5,0.1-15,0-22.5,0c-0.7,0-1.5,0-2.2,0
		c-0.1-0.1-0.1-0.2-0.2-0.3c-0.1-0.1-0.2-0.2-0.2-0.4c0.7-0.6,1.4-1.2,2.1-1.8c5.9-4.3,11.7-8.5,17.6-12.7c0.4-0.2,0.7-0.5,0.9-0.7
		C75.6,120.2,75.9,119.3,75.4,117.9z M182.6,167.9C182.5,167.9,182.5,167.9,182.6,167.9c-0.7,0.5-2.2,0.5-2.8,0.1c0,0,0,0,0,0
		c-3.8-2.7-7.6-5.4-11.4-8.2c-7.5-5.4-15.1-10.9-22.6-16.3c0,0,0,0,0,0c-0.4-0.2-0.7-0.4-1.1-0.6c-0.1-0.1-0.3-0.1-0.4-0.2
		c0,0,0,0,0,0c0.1-0.3,0.3-0.5,0.5-0.8c0.7-0.1,1.4-0.2,2.1-0.2c13.4,0,26.9,0,40.4-0.1c0.8,0,1.4,0.1,1.9,0.3
		c0.3,0.1,0.6,0.3,0.9,0.6c0.4,0.4,0.7,1,0.9,1.8c0.3,1,0.6,2,0.9,3.1c0.6,2,1.3,4.1,2,6.2c0.3,1,0.7,2,1,3.1c0.5,1.4,0.3,2.3-1,3.2
		C190.2,162.5,186.5,165.3,182.6,167.9z M183,176.5c3.5,2.6,7.1,5.2,10.7,7.8c0.3,0.2,0.6,0.5,0.8,0.7c0.7,0.7,1,1.6,0.6,2.8
		c-1.5,4.4-2.9,8.8-4.5,13.2c-0.3,0.7-1.4,1.7-2.2,1.7c-14.2,0.1-28.4,0.1-42.5,0.1c-0.3,0-0.6-0.2-1.6-0.6c0.9-0.8,1.7-1.4,2.5-2
		c0.6-0.5,1.2-0.9,1.8-1.3c10.2-7.4,20.5-14.8,30.7-22.3C180.7,175.6,181.7,175.5,183,176.5z M174.3,170.4c0.7,0.5,1.3,1,2.2,1.8
		c-2.5,1.9-4.9,3.7-7.3,5.4c-0.8,0.6-1.6,1.2-2.3,1.7c-9.8,7.1-19.6,14.3-29.6,21.3c-1.4,1-3.5,1.6-5.2,1.7c-9,0.2-18,0-27,0.1
		c-1.9,0-2.8-0.6-3.4-2.4c-2.7-8.5-5.5-16.9-8.2-25.4c-0.3-1-0.4-2.2-0.1-3.2c0-0.2,0.1-0.3,0.1-0.5c2.8-9,5.8-17.9,8.6-26.9
		c0.6-1.7,1.5-2.3,3.3-2.3c9.2,0.1,18.5,0,27.7,0.1c1.1,0,2.3,0.4,3.2,1C149,152,161.8,161.2,174.3,170.4z M110.8,228.1
		c-0.5-1.5-0.3-2.4,1-3.4c7.6-5.4,15.1-10.9,22.7-16.4c0.8-0.6,2-0.9,3-0.9c16.2-0.1,32.3-0.1,48.5,0c0.1,0,0.3,0.1,0.4,0.1
		c0.4,0.1,1,0.2,1.8,0.4c-1.8,5.5-3.4,10.6-5,15.8c-3.4,10.4-6.8,20.9-10.3,31.3c-0.4,1.1-1.2,2.2-2.1,2.9
		c-7.7,5.7-15.3,11.2-23.1,16.7c-0.7,0.4-2.3,0.4-3-0.1c-7.7-5.4-15.3-11-22.9-16.5c-0.2-0.2-0.4-0.3-0.6-0.5c-2.2-2-2.4-5-3.2-7.6
		C115.5,242.7,113.3,235.3,110.8,228.1z M180.5,247.8c4.2-12.7,8.4-25.4,12.5-38.2c0.5-1.5,1.1-2.1,2.6-2.1c0,0,0.1,0,0.1,0
		c0,0,0,0,0,0c2.3,0,4.6,0.1,7,0.1c2.3,0,4.6,0,7-0.1c0,0,0,0,0,0c0,0,0.1,0,0.1,0c1.4,0,2.1,0.6,2.5,1.9c1.4,4.4,2.8,8.9,4.3,13.3
		c0.6,1.6-0.3,2.5-1.4,3.3c-9,6.5-18,13-26.9,19.5c-2.5,1.8-5.1,3.7-7.6,5.5c0,0,0,0-0.1,0c0,0,0,0,0,0c0,0-0.1-0.1-0.1-0.1
		c-0.2-0.1-0.3-0.2-0.4-0.3C180.2,249.7,180.2,248.7,180.5,247.8z M216.2,122.6c-1.5,4.1-2.7,8.3-4.2,12.3c-0.3,0.8-1.5,1.8-2.4,1.8
		c-4.7,0.2-9.3,0.1-14,0.1c-0.7,0-1.3-0.2-1.7-0.6c-0.3-0.3-0.6-0.6-0.8-1.2c-0.1-0.1-0.1-0.2-0.1-0.4c-4.2-12.9-8.4-25.8-12.6-38.7
		c0-0.1-0.1-0.2-0.1-0.4c-0.2-0.6-0.3-1.4-0.5-2.6c1.8,1.2,3,1.9,4.1,2.7c10.3,7.5,20.6,15,30.9,22.4c1.3,0.9,1.8,1.8,1.7,3
		C216.4,121.6,216.3,122.1,216.2,122.6z M187.5,133.7c0.8,2.7,0.6,3-2.3,3c0,0-0.1,0-0.1,0c-7.8,0-15.6,0-23.4,0
		c-3.8,0-7.5,0-11.3,0c-3.8,0-7.6,0-11.4-0.1c-1.6,0-3.5-0.6-4.8-1.5c-7.3-5.1-14.4-10.4-21.7-15.6c-1.3-0.9-1.6-1.9-1.2-3.3
		c3-9.1,5.9-18.2,8.9-27.3c0.3-1,1-2,1.8-2.6c7.4-5.5,15-10.9,22.4-16.3c0.7-0.5,1.3-0.8,1.9-0.8c0.6,0,1.2,0.2,1.9,0.8
		c7.4,5.5,15,10.8,22.4,16.3c1,0.8,2,2.1,2.4,3.3C177.8,104.3,182.7,119,187.5,133.7z M43,12.5c3.8-2.7,7.5-5.5,11.3-8.2
		c0.4-0.3,1.1-0.4,1.7-0.4c0.4,0,0.7,0.1,1,0.2c2.5,1.8,5.1,3.7,7.6,5.5c6.1,4.3,12.1,8.7,18.1,13.1c3.1,2.2,6.2,4.5,9.3,6.7
		c0.1,0.1,0.2,0.4,0.6,1.1c-1.1,0-1.8,0-2.6,0c0,0-0.1,0-0.1,0c-13.4,0-26.7,0-40.1,0c0,0,0,0,0,0c0,0-0.1,0-0.1,0
		c-2,0-3.1-0.4-3.7-2.6c-1.1-4.1-2.6-8.2-4-12.3C41.5,14.2,41.7,13.4,43,12.5z M20.5,50.7c1.5-4.4,2.9-8.8,4.3-13.3
		c0.2-0.6,0.4-1.1,0.8-1.4c0.5-0.5,1.1-0.7,2-0.7c4.6,0,9.2-0.1,13.7,0.1c0.9,0,2.2,0.9,2.5,1.7c4.5,13.4,8.8,26.9,13.2,40.3
		c0.1,0.4,0,0.8,0.1,1.9c-4.1-3-7.7-5.5-11.3-8c-8-5.9-16-11.7-24-17.5C20.7,52.9,20,52.2,20.5,50.7z M28.5,137
		c-4.6,0-9.2-0.1-13.7,0c-2,0.1-3.1-0.9-3.6-2.6C8.4,125.7,5.5,117,3,108.2c-0.4-1.2-0.2-2.7,0.2-3.9C8,89.5,12.7,74.7,17.5,60
		c0.2-0.6,0.4-1.1,0.6-1.4c0.5-1,1.1-0.8,2.7,0.4c10.5,7.6,21,15.3,31.5,22.9c1.3,0.9,2.5,1.8,3.9,2.6c4.2,2.4,5.6,6.6,6.8,11
		c1.9,6.6,4.1,13.1,6.3,19.5c0.7,2,0.5,3.3-0.9,4.5c-0.2,0.2-0.5,0.4-0.8,0.6c-7.4,5.1-14.6,10.5-21.9,15.7
		c-1.1,0.8-2.6,1.2-3.9,1.2C37.5,137.1,33,137,28.5,137z M6.2,173.8c-0.6-0.5-1.1-1-1.9-1.7c1.8-1.3,3.6-2.6,5.3-3.9
		c2.6-1.9,5.1-3.7,7.6-5.5c9-6.6,18-13.1,27.1-19.6c1-0.7,2.3-1.1,3.4-1.2c9.2-0.1,18.5,0,27.7-0.1c1.2,0,2,0.3,2.5,0.9
		c0.4,0.4,0.7,0.9,0.9,1.6c2.8,8.5,5.6,17,8.3,25.6c0.3,1.2,0.3,2.7-0.1,3.9c-2.8,8.9-5.9,17.8-8.7,26.8c-0.5,1.6-1.2,2-2.6,2
		c-9.5-0.1-19,0-28.5-0.1c-1,0-2.2-0.5-3-1.1C31.5,192.2,19,183,6.2,173.8z M18.5,286.1c-0.4-0.3-0.6-1-1-2.2
		c-4.8-14.8-9.7-29.5-14.3-44.4c-0.6-2,0.2-4.7,0.9-6.9c2.3-7.4,4.9-14.8,7.2-22.3c0.7-2.2,1.7-3,4.1-2.9c4.4,0.2,8.8,0.1,13.2,0.1
		c4.5,0,9-0.1,13.3-0.1c1.3,0,2.7,0.4,3.7,1.1c7.6,5.3,15,10.8,22.5,16.2c0.5,0.3,0.9,0.7,1.1,1c0.5,0.6,0.7,1.4,0.3,2.5
		c-3,8.9-5.8,17.9-8.9,26.8c-0.4,1.2-1.2,2.4-2.2,3.1c-12.4,9.1-24.9,18.2-37.3,27.2C19.6,286.4,19,286.7,18.5,286.1z M40.1,309
		c-4.2-0.2-8.5-0.2-12.7-0.1c-1.5,0-2.2-0.5-2.6-2c-1.3-4.5-2.9-8.8-4.2-13.3c-0.2-0.7,0.3-2.1,0.9-2.6c11.4-8.4,22.9-16.7,34.3-25
		c0.1,0,0.1-0.1,0.2-0.1c0,0,0,0,0,0c0,0,0,0,0,0c0,0,0.1,0,0.1,0c0,0,0.1,0,0.1,0c0.3-0.1,0.6-0.1,1.2-0.3c-1,3.3-1.9,6.3-2.9,9.3
		c-0.3,0.9-0.6,1.9-0.9,2.8c-3,9.3-6.1,18.6-9,28c-0.5,1.5-1,2.5-2.1,2.9C41.8,308.9,41.1,309,40.1,309z M87,318.7
		c-9.7,7-19.5,14-29.1,21.1c-1.7,1.2-2.7,1.2-4.3,0c-3.4-2.7-7-5.1-10.5-7.6c-0.8-0.6-1.4-1.2-1.4-2.2c0-0.4,0-0.8,0.2-1.2
		c1.5-4.3,3-8.6,4.3-13c0.5-1.4,1.2-2,2.7-2c13.9,0.1,27.8,0.1,41.7,0.1c0.5,0,1.1,0.3,2.1,0.5c-0.7,0.6-1.4,1.1-2.1,1.6
		C89.4,317,88.2,317.9,87,318.7z M102.7,307.5c-1.2,0.9-2.9,1.5-4.3,1.5c-15.7,0.1-31.5,0.1-47.2,0.1c-0.6-0.2-1.2-0.3-2.4-0.5
		c1.5-4.6,2.8-8.9,4.2-13.4c3.7-11.4,7.4-22.7,11.2-34.1c0.4-1.2,1.4-2.5,2.4-3.3c7.3-5.4,14.6-10.7,21.9-16.1
		c1.2-0.9,2.1-0.8,3.3,0.1c7.7,5.6,15.4,11.2,23,16.8c0.9,0.7,1.6,1.9,2,3c2.9,8.7,5.7,17.5,8.6,26.3c0.2,0.6,0.3,1.2,0.2,1.7
		c0,0.9-0.4,1.7-1.4,2.4C117,297.1,109.9,302.4,102.7,307.5z M183,308.7c-1.5,0.2-2.3,0.3-3.1,0.4c-7.3,0-14.7,0.1-22,0
		c-0.9,0-1.5,0.1-2,0.4c-0.1,0.1-0.2,0.1-0.3,0.2c0,0,0,0-0.1,0c-0.6,0.5-1,1.2-1.3,2.2c-2.1,6.8-4.3,13.5-6.5,20.2
		c-0.3,0.9-0.6,1.8-1,2.7c0,0-0.1,0-0.2,0c0,0,0,0.1,0,0.1c-0.2,0-0.5,0.1-0.7,0.1c-1-3-2-6-3-9c-1.6-4.9-3.2-9.8-4.8-14.7
		c-0.5-1.7-1.6-2.1-3.2-2.1c-7,0-14,0-21,0c-1.2,0-2.4-0.1-3.6-0.2c0.1-0.2,0.1-0.3,0.2-0.5c0-0.1-0.1-0.3-0.1-0.4
		c4.1-3,8.2-6.1,12.6-9.1c0.6-0.5,1.3-0.9,1.9-1.4c1.8-1.3,3.5-2.6,5.3-3.8c1.5-1,1.9-1.9,1.2-3.7c-2.6-7.5-4.9-15-7.4-22.5
		c-0.1-0.4-0.2-0.8-0.5-2c0.1,0.1,0.2,0.1,0.3,0.2c0-0.1,0-0.2-0.1-0.3c1.4,0.8,2.2,1.3,2.9,1.8c6,4.3,11.9,8.5,17.8,12.9
		c1.3,1,2.4,1.2,3.7,0.5c0.2-0.1,0.4-0.3,0.6-0.4c6-4.6,12.2-8.9,18.4-13.4c0.2-0.1,0.4-0.3,0.6-0.4c0.3-0.2,0.8-0.5,1.4-0.8
		c0.1-0.1,0.2-0.1,0.3-0.2c0,0,0,0,0,0c0.1,0,0.1-0.1,0.2-0.1c-1.4,4.1-2.4,7.4-3.5,10.8c-1.6,4.9-3.1,9.7-4.8,14.5
		c-0.6,1.6,0.4,2.1,1.3,2.8c6.3,4.6,12.7,9.2,19,13.8c0.3,0.2,0.7,0.5,1.7,1.3C183.1,308.6,183,308.6,183,308.7
		C182.9,308.7,182.9,308.7,183,308.7z M190.5,307.8c-7.5-5.3-14.8-10.7-22.3-16c-1.3-0.9-1.6-1.9-1.1-3.4c2.9-8.9,5.7-17.8,8.7-26.6
		c0.2-0.8,0.8-1.5,1.4-2.1c0.2-0.2,0.4-0.4,0.6-0.5c12.9-9.4,25.8-18.8,38.8-28.2c0.4-0.3,1-0.6,2-1.2c1.5,4.4,2.8,8.4,4.2,12.5
		c3.7,11.2,7.4,22.4,10.9,33.7c0.5,1.6,0.6,3.7,0.1,5.3c-2.6,8.4-5.4,16.8-8.1,25.2c-0.2,0.5-0.3,0.9-0.5,1.2
		c-0.6,1-1.5,1.5-3.1,1.5c-9.2-0.1-18.5,0-27.7-0.1C193.2,309.1,191.7,308.6,190.5,307.8z M263.2,322.6
		c-7.6,5.6-15.2,11.2-22.8,16.9c-2,1.5-3.4,1.8-5.7,0.1c-10.6-7.9-21.4-15.6-32.1-23.3c-0.6-0.4-1-0.9-2-1.9c0.1,0,0.1,0,0.2,0
		c-0.1-0.1-0.1-0.1-0.2-0.2c1.5-0.1,2.3-0.2,3.2-0.2c7.3,0,14.7-0.1,22,0c2.2,0,3-0.9,3.6-2.9c2.2-7.2,4.6-14.4,7-21.6
		c0.1-0.5,0.4-0.9,0.9-2c0.9,2.4,1.6,4.2,2.2,6c2,6,3.9,12.1,5.8,18.1c0.6,1.8,1.5,2.5,3.4,2.5c7.3-0.1,14.6-0.2,21.9-0.2
		c0.9,0,1.9,0.3,3.6,0.6C270.2,317.5,266.7,320,263.2,322.6z M284.1,307.7c-2.1,1.3-5.1,1.5-7.8,1.7c-3.4,0.2-6.8-0.2-10.2-0.2
		c-4.7,0-9.4-0.1-14,0c-1.1,0.1-1.9-0.3-2.4-0.9c-0.4-0.4-0.6-0.9-0.9-1.6c-2.8-8.5-5.6-17.1-8.3-25.6c-0.4-1.3-0.5-3,0-4.4
		c4.9-15.3,9.9-30.5,14.8-45.8c0.2-0.2,0.4-0.5,0.8-1c1,0.6,1.9,1.1,2.7,1.7c12.4,9,24.8,17.9,37.1,27c0.1,0.1,0.3,0.2,0.4,0.4
		c1.2,1,2.2,2.6,2.8,4c2.8,8.2,5.4,16.4,8.1,24.6c0.7,2,0.6,3.2-1.4,4.6C298.5,297.3,291.5,302.8,284.1,307.7z M362.3,309.1
		c-3.8,0-7.6,0-11.4,0c-3.8,0-7.5,0-11.3,0c-2,0-2.9,0.6-3.5,2.6c-2.2,7.1-4.5,14.1-6.8,21.1c-0.2,0.7-0.6,1.3-1.2,2.8
		c0,0,0-0.1,0-0.1c0,0,0,0.1-0.1,0.1c-1.2-3.3-2.1-5.9-3-8.6c-1.6-5.2-3.3-10.3-4.9-15.5c-0.5-1.8-1.5-2.4-3.4-2.4
		c-1.8,0-3.7,0-5.5,0c-5.5,0-11,0-16.5,0c-0.9,0-1.7-0.1-2.6-0.2c0-0.2-0.1-0.5-0.1-0.7c6.3-4.6,12.4-9.2,18.7-13.5
		c2.5-1.6,3-3.1,2-5.9c-2.5-6.8-4.6-13.8-6.9-20.8c-0.2-0.5-0.2-1.1-0.4-2.1c0,0,0.1,0,0.1,0.1c0,0,0,0,0-0.1
		c2.1,1.3,3.9,2.3,5.6,3.5c5.1,3.7,10.2,7.5,15.2,11.3c0.9,0.7,1.6,0.9,2.4,0.7c0.4-0.1,0.9-0.4,1.4-0.8c6-4.5,12-8.8,18-13.1
		c0.6-0.5,1.3-0.9,2-1.4c0,0,0,0,0.1,0c0,0,0,0,0,0c0.2,0.1,0.4,0.2,0.6,0.3c-1,3.2-2,6.4-3,9.5c-1.6,5-3.3,9.9-4.8,15
		c-0.2,0.7,0.6,2.1,1.3,2.7c6,4.5,12.1,8.9,18.1,13.3c0.6,0.5,1.2,1,2.4,1.9C363.5,309,362.9,309.1,362.3,309.1z M372,307.4
		c-3.2-2.3-6.4-4.6-9.6-6.9c-4-2.9-7.9-5.7-11.9-8.6c-1.5-1.1-1.9-2.2-1.3-4c2.9-8.8,5.7-17.6,8.7-26.3c0-0.2,0.1-0.3,0.2-0.5
		c0.3-0.6,0.7-1.3,1.2-1.8c0.4-0.4,0.8-0.8,1.2-1.1c7.3-5.5,14.8-10.8,22.2-16.2c0,0,0,0,0,0c0.6-0.5,1.1-0.7,1.7-0.8
		c0.6,0,1.1,0.2,1.8,0.7c7.3,5.4,14.7,10.7,21.9,16.1c1,0.7,1.9,1.9,2.3,3.1c5,15.1,9.9,30.2,14.8,45.3c0.6,2,0.1,2.5-1.9,2.5
		c-8,0-16,0-24,0c-7.7,0-15.3,0.1-23-0.1C374.8,308.8,373,308.3,372,307.4z M431.4,331.8c-3.7,3-7.6,5.8-11.5,8.4c0,0,0,0,0,0
		c-0.7,0.5-2.2,0.5-2.8,0c0,0,0,0,0,0c0,0,0,0,0,0c-11.5-8.2-22.8-16.6-34.2-24.8c0,0-0.1,0-0.1-0.1c-0.3-0.2-0.5-0.5-0.7-0.7
		c0.1-0.1,0.1-0.2,0.1-0.4c0-0.1,0-0.2,0.1-0.3c3.1,0,6.2,0,9.4,0h0c8.2,0,16.3,0.1,24.5,0c2.7,0,5.5,0,8.2,0h0l0,0l0,0
		c1.4-0.1,2.4,0.2,3.1,1c0.4,0.4,0.7,1.1,0.9,1.9c1.1,4.1,2.7,8,3.8,12.1c0,0,0,0,0,0C432.5,329.8,432.1,331.3,431.4,331.8z
		 M453.5,295c-1.6,4-2.6,8.1-4.1,12.1c0,0.1-0.1,0.2-0.2,0.3c-0.4,0.6-1.2,1.3-1.9,1.4c-0.1,0-0.2,0-0.3,0c-2.3,0.1-4.5,0.1-6.8,0.1
		c-1.2,0-2.3,0-3.5,0c-1.1,0-2.3,0-3.4,0c-1.6,0-2.3-0.5-2.8-2.1c-3.9-12.1-7.9-24.1-11.8-36.1c-0.5-1.6-1-3.3-1.5-4.9
		c0.1-0.2,0.3-0.3,0.5-0.4c2.5,1.8,5.1,3.5,7.6,5.4c6.6,4.8,13.2,9.7,19.8,14.4c2.2,1.6,4.4,3.2,6.7,4.8
		C453.8,291.5,454.5,292.6,453.5,295z M460.2,207.3C460.3,207.3,460.3,207.3,460.2,207.3c0,0,0.1,0,0.1,0c1.5,0,2.2,0.5,2.7,1.9
		c2.9,9,5.9,18,8.7,27.1c0.3,1,0.1,2.3-0.2,3.4c-4.8,14.9-9.6,29.7-14.5,44.6c-0.2,0.3-0.3,0.6-0.5,0.9c-0.2,0.5-0.4,1-0.7,1.6
		c-12.2-8.8-23.8-17.4-35.7-25.7c-3.9-2.7-6.4-5.8-7.7-10.4c-2.1-7.7-4.9-15.2-7.3-22.8c-0.3-0.8,0.2-2.2,0.8-2.7
		c7.8-5.8,15.6-11.4,23.5-17c0.8-0.6,1.9-0.8,2.8-0.8C441.5,207.3,450.9,207.4,460.2,207.3z M469,171.2c0.3,0.2,0.6,0.3,1.4,0.7
		c-1.1,1-1.7,1.5-2.2,1.9c-12.6,9.1-25.2,18.3-37.8,27.4c-1,0.7-2.3,1.1-3.4,1.2c-9.3,0.1-18.7,0.1-28,0.1c-1.6,0-2.3-0.6-2.8-2.1
		c-2.8-9-5.9-17.9-8.7-26.8c-0.4-1.2-0.3-2.7,0-3.9c2.6-8.3,5.4-16.6,8-24.9c0.2-0.5,0.3-1,0.5-1.3c0.6-1.2,1.6-1.8,3.4-1.8
		c9,0.2,18.1,0,27.2,0.1c1,0,2.2,0.2,3,0.8C442.8,152.1,456,161.7,469,171.2z M456.4,58.5c0.3,0.4,0.5,1.1,0.9,2.1
		c4.8,14.7,9.6,29.4,14.3,44.1c0.4,1.2,0.4,2.7,0,3.9c-2.8,8.9-5.7,17.7-8.5,26.6c-0.4,1.4-1.2,1.8-2.5,1.8c-2.1,0-4.3,0-6.5,0
		c-2.7,0-5.3,0-8,0c-4.4,0-8.8,0.2-13.1,0.1c-1.4-0.1-3.1-0.6-4.3-1.4c-7.5-5.3-14.8-10.7-22.3-16c-0.4-0.3-0.7-0.6-1-1
		c-0.8-0.9-0.8-1.8-0.3-3c2.8-8.7,5.6-17.4,8.5-26.1c0.4-1.2,1.3-2.3,2.3-3.1c12.5-9.2,25-18.2,37.5-27.3
		C455.2,57.9,455.8,57.5,456.4,58.5z M433.7,35.4c0.3,0,0.6,0,0.9,0c0.6,0,1.1,0.1,1.7,0.1c3.5,0.1,6.9,0,10.3,0c0,0,0,0,0.1,0
		c0,0,0.1,0,0.1,0c1.6-0.1,2.5,0.5,3,2.2c1.1,3.9,2.3,7.8,3.8,11.6c0.9,2.4,0.3,3.7-1.7,5.1c-10.4,7.4-20.7,14.9-31,22.4
		c-1,0.7-2,1.4-3,2.1c0,0-0.1,0-0.1-0.1c0,0-0.1,0-0.1,0.1c0-0.1-0.1-0.2-0.2-0.2c-0.1-0.1-0.2-0.2-0.3-0.3c1.5-4.7,3-9.4,4.5-14.2
		c2.8-8.5,5.6-17.1,8.3-25.6C430.7,36.5,431.6,35.4,433.7,35.4z M388,25.3c9.5-6.9,19-13.8,28.5-20.7c0.4-0.3,0.8-0.5,1.2-0.7
		c1-0.4,1.9-0.3,3,0.5c3.6,2.8,7.4,5.3,11,8.1c0.6,0.5,1.1,1.9,0.9,2.7c-1.3,4.5-2.7,8.9-4.3,13.3c-0.2,0.6-1,1.4-1.7,1.8
		c-0.3,0.1-0.5,0.2-0.8,0.2c-14.2,0.1-28.5,0.1-42.7,0.1c-0.2,0-0.5-0.2-1.4-0.5C384,28.2,386,26.7,388,25.3z M372.7,36.3
		c1-0.7,2.5-1.1,3.7-1.1c15.3,0,30.7,0,46,0c2.6,0,3.3,0.1,3.1,1.3c0,0.5-0.2,1.3-0.6,2.5c-2.3,7.1-4.7,14.2-7,21.3
		c-0.1,0.3-0.2,0.6-0.3,0.9c-2.3,7.2-4.6,14.4-7,21.6c-0.4,1.2-1.2,2.4-2.2,3.2c-7.4,5.5-14.9,10.9-22.4,16.4c-1.4,1-2.4,1-3.8,0
		c-7.4-5.5-15-10.9-22.4-16.3c-0.7-0.6-1.4-1.5-1.7-2.3c-3.1-9.2-6-18.3-9-27.5c-0.2-0.6-0.3-1-0.4-1.8c0.3-0.4,0.8-1.1,1.4-1.9
		C357.7,47.1,365.2,41.6,372.7,36.3z M294.5,35.3c0.1,0,0.1,0,0.2,0c5.2-0.1,10.5-0.1,15.8,0c1.7,0,3.5,0,5.2,0c0.3,0,0.5,0,0.8,0
		c2.1,0,3.1-0.7,3.7-2.7c2.2-7,4.5-14,6.7-20.9c0.2-0.7,0.6-1.4,0.9-2c0.3-0.1,0.6-0.1,0.8-0.1c1.3,3.8,2.6,7.6,3.9,11.5
		c1.4,4.2,2.7,8.3,4,12.4c0.4,1.5,1.4,1.8,2.8,1.8c7.3,0,14.7,0,22,0c0.9,0,1.9,0,2.9,0c0.1,0.2,0.2,0.4,0.3,0.6
		c-0.6,0.5-1,1.1-1.6,1.5c-6.1,4.5-12.2,9-18.4,13.4c-1.4,1-1.8,1.9-1.2,3.7c2.5,7.3,4.8,14.7,7.2,22.1c0.2,0.5,0.2,1.1,0.5,2.4
		c0,0-0.1-0.1-0.1-0.1c0,0,0,0.1,0,0.1c-3.5-2.5-6.3-4.5-9.2-6.6c-3.8-2.8-7.7-5.5-11.5-8.4c-0.7-0.5-1.3-0.8-1.9-0.8
		c-0.6,0-1.2,0.3-2,0.8c-6,4.4-12.1,8.8-18.2,13.2c-0.6,0.5-1.3,0.8-2.5,0.9c0,0,0,0,0,0c0,0-0.1,0-0.1,0c1-3.1,1.9-6.1,2.8-9.2
		c1.6-4.9,3.1-9.8,4.8-14.7c0.6-1.6,0.2-2.3-1.1-3.3c-6.2-4.4-12.4-9-18.6-13.5c-0.6-0.4-1.1-0.9-2.2-1.9
		C292.8,35.4,293.7,35.3,294.5,35.3z M283.6,36.4c7.3,5.1,14.4,10.4,21.7,15.5c0.2,0.2,0.4,0.3,0.6,0.5c1.6,1.3,1.8,2.7,1.1,4.8
		c-2.8,8.2-5.3,16.5-8.1,24.7c-0.4,1.2-1.2,2.5-2.2,3.2c-12.8,9.4-25.8,18.8-38.7,28.2c-1.4,1-2.1,1-2.7-0.4
		c-0.1-0.2-0.2-0.5-0.3-0.8c-2.2-6.9-4.4-13.7-6.7-20.6c-0.4-1.1-0.7-2.2-1.1-3.3c-2.2-6.9-4.5-13.7-6.8-20.6
		c-0.2-0.5-0.3-1.4-0.6-2.3c0.9-2.7,1.7-5.5,2.6-8.3c2.1-6.5,4.3-13,6.3-19.5c0.6-1.8,1.5-2.6,3.5-2.6c9.1,0.1,18.2,0,27.2,0.1
		C281,35.1,282.5,35.6,283.6,36.4z M201,30.1c0.2-0.3,0.3-0.5,0.4-0.7c0-0.1,0.1-0.1,0.1-0.2c0.2-0.3,0.4-0.6,0.6-0.7
		c11.1-8.1,22.4-16.2,33.5-24.3c1.2-0.9,2.2-1.1,3.5-0.1c11.1,8.2,22.3,16.3,33.5,24.4c0.3,0.2,0.5,0.6,1.2,1.3c-0.1,0-0.1,0-0.2,0
		c0,0,0,0,0.1,0.1c-1.2,0.2-1.9,0.4-2.7,0.4c-7.4,0-14.8,0.1-22.2,0c-1.6,0-2.5,0.3-3.1,1.4c-0.2,0.3-0.3,0.7-0.5,1.2
		c-2.1,7.1-4.5,14.1-6.8,21.1c-0.2,0.7-0.6,1.3-0.9,2c0,0,0,0-0.1,0c0,0,0,0.1,0,0.1c-0.1-0.1-0.3-0.1-0.5-0.1c-1-3-2-5.9-2.9-8.9
		c-0.9-2.7-1.8-5.4-2.7-8.1c-0.7-2.1-1.5-4.2-2-6.4c-0.5-1.8-1.4-2.3-3.2-2.3c-7.3,0.1-14.6,0-22,0c-0.9,0-1.8,0-3.2,0
		C200.9,30.2,200.9,30.2,201,30.1C201,30.1,201,30.1,201,30.1z M190.8,36.4c1.1-0.8,2.7-1.3,4.1-1.3c4.5-0.1,9.1,0,13.7,0
		c3.4,0,6.9,0.1,10.3,0c1.1,0,2.3,0,3.4,0c1-0.1,1.8,0.2,2.3,0.7c0.3,0.3,0.6,0.8,0.8,1.4c2.9,8.9,5.8,17.7,8.6,26.6
		c0.4,1.2,0.2,2.7-0.2,3.9c-4.8,15-9.7,29.9-14.6,44.8c-0.1,0.4-0.3,0.7-0.4,1s-0.3,0.4-0.5,0.5c-0.1,0-0.2,0.1-0.3,0.1
		c-0.4,0-0.8-0.2-1.4-0.6c-13-9.5-26.1-19-39.1-28.5c-0.2-0.2-0.4-0.3-0.6-0.5c-0.6-0.6-1-1.5-1.3-2.2c0,0,0,0,0,0
		c-2.8-8.4-5.5-16.9-8.3-25.3c0,0,0,0,0,0c0,0,0,0,0,0c-0.6-1.9-0.5-3.1,1.4-4.4c1.8-1.3,3.7-2.6,5.5-3.9
		C179.8,44.4,185.3,40.3,190.8,36.4z M146,8.8c0,0.1,0,0.1,0.1,0.2c0,0,0,0,0-0.1c0.6,1.5,1.1,2.4,1.4,3.3
		c2.3,6.8,4.5,13.7,6.7,20.6c0.6,1.7,1.4,2.3,3.2,2.3c1.9,0,3.8,0,5.6,0c5.6,0,11.3,0,16.9,0c0.8,0,1.6,0.1,3.2,0.2
		c-1.2,1.1-1.8,1.7-2.5,2.2c-6.1,4.4-12.1,8.9-18.2,13.2c-1.3,1-1.8,1.8-1.2,3.5c2.5,7.3,4.8,14.6,7.2,22c0.2,0.6,0.3,1.3,0.5,2.5
		c-1.2-0.7-1.8-1.1-2.4-1.6c-2.3-1.7-4.7-3.4-7-5.1c-3-2.2-6-4.3-9-6.5c-0.7-0.5-1.5-1.1-2.2-1.6c-1.5-1-2.5-1.1-4,0
		c-6,4.5-12.1,8.8-18.2,13.2c-0.7,0.4-1.4,0.8-2.6,0.9c0,0,0-0.1,0-0.1c0,0-0.1,0-0.1,0c0.9-3,1.8-5.9,2.8-8.9
		c1.6-5.1,3.2-10.1,5-15.2c0.4-1.3,0.2-2-0.7-2.8c-0.1-0.1-0.2-0.1-0.3-0.2c-6.2-4.5-12.4-9-18.6-13.5c-0.6-0.5-1.2-1-2.4-2
		c0,0,0,0,0,0c0,0-0.1-0.1-0.1-0.1c1.5-0.1,2.2-0.2,2.9-0.2c7.6,0,15.1-0.1,22.7,0c2,0,2.8-0.6,3.4-2.4c2.1-6.9,4.4-13.8,6.7-20.6
		C145.1,11.1,145.5,10.3,146,8.8z"/>
	<path fill="#3F2ABA" d="M125.6,289.6c0-0.4-0.1-0.9-0.2-1.4c-2.9-8.7-5.7-17.5-8.6-26.3c-0.3-1.1-1.1-2.3-2-3
		c-7.6-5.7-15.4-11.2-23-16.8c-1.2-0.9-2.1-1-3.3-0.1c-7.3,5.4-14.7,10.7-21.9,16.1c-1.1,0.8-2,2.1-2.4,3.3
		c-3.8,11.3-7.5,22.7-11.2,34.1c-1.4,4.2-2.7,8.5-4.2,13.1c1.2,0.2,1.8,0.3,2.4,0.5c15.7,0,31.5,0,47.2-0.1c1.4,0,3.1-0.6,4.3-1.5
		c7.2-5.1,14.3-10.4,21.5-15.5C125.2,291.2,125.6,290.5,125.6,289.6z"/>
	<path fill="#3F2ABA" d="M143.3,344.4c0-0.7-0.1-1.4-0.3-2c-2.7-8.7-5.6-17.4-8.4-26.1c-0.5-1.6-1.4-2.2-3.1-2.2
		c-9.2,0.1-18.5,0-27.7,0.1c-1.1,0-2.5,0.4-3.4,1.1c-9.9,7-19.6,14.1-29.4,21.2c-1.9,1.4-3.9,2.8-5.8,4.2c-1.6,1.2-3.2,2.3-4.9,3.6
		c0.2,0.2,0.4,0.4,0.6,0.5h82.4C143.3,344.7,143.3,344.5,143.3,344.4z"/>
	<path fill="#3F2ABA" d="M58.4,258.1c1-0.7,1.8-1.9,2.2-3.1c3.1-8.9,5.9-17.9,8.9-26.8c0.3-1.1,0.2-1.8-0.3-2.5
		c-0.2-0.3-0.5-0.6-0.9-0.8c-7.5-5.4-15-10.9-22.5-16.2c-1-0.7-2.5-1.1-3.7-1.1c-4.5-0.2-9-0.1-13.5-0.1c-4.4,0-8.9,0.1-13,0.1
		c-2.4-0.1-3.4,0.7-4.1,2.9c-2.3,7.4-4.9,14.8-7.2,22.3c-0.7,2.2-1.5,4.9-0.9,6.9c4.5,14.8,9.5,29.6,14.3,44.4c0.3,1,0.6,1.7,0.8,2
		c0.5,0.6,1.1,0.3,2.6-0.8C33.5,276.3,46,267.2,58.4,258.1z"/>
	<path fill="#3F2ABA" d="M399.2,308.9c8,0,16,0,24,0c2,0,2.5-0.5,1.9-2.5c-4.9-15.1-9.8-30.2-14.8-45.3c-0.4-1.2-1.3-2.4-2.3-3.1
		c-7.2-5.4-14.6-10.7-21.9-16.1c-0.7-0.5-1.2-0.7-1.8-0.7c-0.6,0-1.1,0.3-1.7,0.8c0,0,0,0,0,0c-7.4,5.4-14.9,10.7-22.2,16.2
		c-0.4,0.3-0.8,0.7-1.2,1.1c-0.5,0.6-0.9,1.2-1.2,1.8c-0.1,0.2-0.1,0.3-0.2,0.5c-3,8.7-5.8,17.5-8.7,26.3c-0.6,1.8-0.2,2.9,1.3,4
		c4,2.9,7.9,5.8,11.9,8.6c3.2,2.3,6.4,4.6,9.6,6.9c1.1,0.9,2.8,1.4,4.3,1.4C384,309,391.5,308.9,399.2,308.9z"/>
	<path fill="#3F2ABA" d="M411.2,342.4c-12.4-9-24.8-18.1-37.2-27c-1-0.7-2.5-1.1-3.7-1.1c-9-0.1-18.1,0-27.2-0.1
		c-1.9-0.1-2.8,0.5-3.4,2.4c-2.6,8.3-5.4,16.5-8,24.9c-0.2,0.8-0.4,1.8-0.4,2.7c0,0.2,0,0.4,0,0.6h82.2c0.2-0.1,0.4-0.3,0.5-0.4
		C413,343.5,412.2,342.9,411.2,342.4z"/>
	<path fill="#3F2ABA" d="M429.5,208.2c-7.9,5.6-15.7,11.3-23.5,17c-0.6,0.5-1,1.9-0.8,2.7c2.4,7.6,5.1,15.1,7.3,22.8
		c1.3,4.6,3.8,7.7,7.7,10.4c11.8,8.2,23.4,16.9,35.6,25.7c0.2-0.6,0.5-1.1,0.7-1.6c0.2-0.3,0.3-0.6,0.5-0.9
		c4.9-14.9,9.7-29.7,14.5-44.6c0.3-1.1,0.5-2.4,0.2-3.4c-2.8-9.1-5.8-18.1-8.7-27.1c-0.5-1.4-1.2-1.9-2.7-1.9c0,0-0.1,0-0.1,0
		c-9.3,0.1-18.6,0-27.9,0.1C431.3,207.5,430.2,207.7,429.5,208.2z"/>
	<path fill="#3F2ABA" d="M422.4,35.5c-15.3,0-30.7-0.1-46,0c-1.2,0-2.7,0.4-3.7,1.1c-7.6,5.3-15,10.7-22.5,16.2
		c-0.6,0.4-1,1.1-1.4,1.6c0.1,0.8,0.2,1.2,0.4,1.8c3,9.2,5.9,18.3,9,27.5c0.3,0.8,1,1.7,1.7,2.3c7.4,5.4,15,10.8,22.4,16.3
		c1.4,1,2.4,1,3.8,0c7.5-5.5,15-10.9,22.4-16.4c1-0.8,1.8-2,2.2-3.2c2.3-7.2,4.6-14.4,7-21.6c0.1-0.3,0.2-0.6,0.3-0.9
		c2.3-7.1,4.6-14.2,7-21.3c0.4-1.2,0.6-2,0.6-2.5C425.5,35.5,424.6,35.5,422.4,35.5z"/>
	<path fill="#3F2ABA" d="M62.2,1.4c12.8,9.3,25.6,18.7,38.5,27.9c1,0.7,2.5,1,3.7,1c8.9,0.1,17.9,0,26.9,0.1c2.1,0,3-0.8,3.5-2.7
		c1-3.6,2.3-7.1,3.4-10.7c1.7-5.5,3.4-11,5.1-16.6c0,0-0.1,0-0.1,0c-27.2,0-54.5,0-81.6,0.1c-0.1,0-0.1,0-0.2,0
		C61.7,0.8,61.9,1.2,62.2,1.4z"/>
	<path fill="#3F2ABA" d="M331.2,0.4c0.1,0.5,0,1,0.2,1.5c1.7,5.4,3.5,10.8,5.3,16.2c1.1,3.4,2.2,6.8,3.3,10.3c0,0,0,0,0,0
		c0.5,1.7,1.6,2,3.2,2c0,0,0,0,0,0c8.7-0.1,17.5,0.1,26.2-0.1c1.9-0.1,4-0.7,5.5-1.8c0,0,0,0,0,0c3.4-2.4,6.8-4.9,10.2-7.3
		c7.2-5.2,14.4-10.5,21.6-15.7c2.2-1.5,4.3-3.3,6.4-5C386,0.4,358.6,0.4,331.2,0.4L331.2,0.4z"/>
	<path fill="#3F2ABA" d="M415.8,86.5c-1,0.8-1.9,1.9-2.3,3.1c-2.9,8.7-5.7,17.4-8.5,26.1c-0.5,1.2-0.4,2.2,0.3,3
		c0.2,0.3,0.5,0.5,0.9,0.8c7.5,5.3,14.8,10.7,22.3,16c1.2,0.9,2.8,1.3,4.3,1.4c4.4,0.2,8.8,0.1,13.2,0.1c2.7,0,5.3,0,8,0
		c2.1,0,4.3-0.1,6.4-0.2c1.4,0,2.1-0.4,2.5-1.8c2.8-8.9,5.7-17.7,8.5-26.6c0.3-1.2,0.4-2.7,0-3.9c-4.7-14.7-9.5-29.4-14.3-44.1
		c-0.3-0.9-0.5-1.5-0.8-1.9c-0.6-1-1.2-0.6-3,0.7C440.8,68.3,428.3,77.3,415.8,86.5z"/>
	<path fill="#3F2ABA" d="M41.8,137c1.3,0,2.8-0.4,3.9-1.2c7.3-5.2,14.5-10.6,21.9-15.7c0.3-0.2,0.5-0.4,0.8-0.6
		c1.4-1.3,1.5-2.5,0.8-4.4c-2.2-6.5-4.4-12.9-6.3-19.5c-1.2-4.4-2.5-8.5-6.8-11c-1.3-0.8-2.6-1.7-3.9-2.6
		c-10.5-7.6-21-15.3-31.5-22.9c-1.5-1.2-2.1-1.4-2.6-0.5c-0.2,0.3-0.4,0.8-0.6,1.4C12.7,74.7,8,89.5,3.2,104.3
		c-0.4,1.2-0.6,2.7-0.2,3.9c2.6,8.8,5.4,17.5,8.2,26.2c0.5,1.7,1.6,2.7,3.6,2.6c4.5-0.1,9.1,0,13.7,0C33,137,37.5,137.1,41.8,137z"
		/>
	<path fill="#3F2ABA" d="M86.7,35.4c-3.8,0-7.7,0-11.5,0c-7.8,0-15.7,0-23.5,0c-1.4,0-2.2,0.1-2.5,0.5C49.1,36,49,36.2,49,36.5
		c0,0.1,0,0.2,0,0.3c0,0.4,0.2,0.9,0.4,1.5c0,0,0,0,0,0c4.8,15.2,9.6,30.3,14.5,45.4c0.2,0.7,0.7,1.4,1.3,1.8
		c7.7,5.6,15.5,11.1,23.1,16.7c0,0,0,0,0,0c0.2,0.2,0.4,0.3,0.6,0.4c0.2,0.1,0.4,0.2,0.6,0.3c0.4,0.1,0.7,0.2,1,0.2
		c0.7,0,1.3-0.4,2-0.9c7.3-5.3,14.6-10.5,21.8-15.9c0,0,0,0,0,0c0.9-0.7,1.7-1.8,2.1-2.9c2-6,4-12,5.9-17.9c1-3,2-6,3-9.1
		c0.6-1.7,0.2-2.6-1.2-3.6c-5.5-4-11-8-16.6-12c-1.8-1.3-3.7-2.6-5.5-3.9c-1.1-0.8-2.6-1.3-3.9-1.3c0,0,0,0,0,0
		C94.3,35.4,90.5,35.4,86.7,35.4z"/>
	<path fill="#3F2ABA" d="M354.5,89.5c-0.4-1.2-1.1-2.5-2.1-3.2c-7.4-5.4-14.8-10.8-22.2-16.2c-1.5-1.1-2.5-1.1-4,0
		c-7.6,5.6-15.2,11.1-22.8,16.7c-0.8,0.6-1.6,1.7-1.9,2.7c-3.4,10.2-6.7,20.4-10,30.6c-1.7,5.3-3.4,10.5-5.3,16.3
		c1.6,0.1,2.9,0.3,4.2,0.5c15.2,0,30.5,0,45.7-0.1c1.5,0,3.1-0.7,4.3-1.6c7.1-5,14-10.3,21.1-15.2c1.2-0.9,1.8-1.7,1.8-2.8
		c0-0.5-0.1-1.1-0.3-1.8C360.1,106.7,357.5,98.1,354.5,89.5z"/>
	<path fill="#3F2ABA" d="M297.5,172.3c0.9,0.5,1.5,0.8,1.9,0.9c12.8,9.3,25.6,18.7,38.4,27.9c0.9,0.7,2.1,1.1,3.2,1.1
		c9.5,0.1,19,0,28.5,0.1c1.7,0.1,2.5-0.6,3-2.2c2.7-8.7,5.6-17.4,8.4-26.1c0.3-0.9,0.2-2-0.1-2.9c-2.8-9-5.8-18-8.6-27
		c0,0,0-0.1,0-0.1c0-0.1-0.1-0.2-0.1-0.2c0,0,0,0,0-0.1c-0.5-1.4-1.4-2-3.1-2c-8.9,0.1-17.8,0.1-26.7,0c-2.2,0-3.8,0.7-5.5,1.9
		c-7.6,5.6-15.3,11.1-23,16.7C308.6,164.1,303.5,168,297.5,172.3z"/>
	<path fill="#3F2ABA" d="M303.5,257.8c2.4,1.8,4.8,3.5,7.2,5.2c5.3,3.8,10.6,7.6,15.8,11.5c1.3,1,2.2,1,3.5,0
		c7.6-5.6,15.2-11,22.8-16.6c0.8-0.7,1.6-1.8,1.9-2.8c2.9-8.9,5.7-17.9,8.7-26.8c0,0,0,0,0,0c0.2-0.4,0.2-0.8,0.2-1.1
		c0-0.3,0-0.6-0.1-0.9c-0.2-0.5-0.7-1-1.3-1.4c-3.6-2.6-7.2-5.2-10.8-7.8c-3.6-2.6-7.2-5.2-10.9-7.8c-1.2-0.9-3-1.5-4.5-1.5
		c-15.7-0.2-31.3-0.1-47-0.1c0,0,0,0,0,0c0,0,0,0,0,0c-0.8,0-1.6,0-2.6,0.1c0.2,1.1,0.3,1.9,0.6,2.7c4.8,14.9,9.7,29.8,14.6,44.6
		C302,256,302.6,257.2,303.5,257.8z"/>
	<path fill="#3F2ABA" d="M121.3,257.5c0.1,0.1,0.3,0.3,0.5,0.4c7.6,5.5,15.2,11.1,22.9,16.5c0.7,0.5,2.3,0.6,3,0.1
		c7.8-5.5,15.5-11.1,23.1-16.7c1-0.6,1.7-1.8,2.1-2.9c3.5-10.4,6.9-20.9,10.3-31.3c1.7-5.1,3.3-10.2,5.1-15.7
		c-0.8-0.1-1.3-0.2-1.8-0.4c-0.1,0-0.3-0.1-0.4-0.1c-16.2-0.1-32.3-0.1-48.5,0c-1,0-2.2,0.3-3,0.9c-7.6,5.5-15.1,11-22.7,16.4
		c-1.3,1-1.5,1.9-1,3.4c2.5,7.2,4.7,14.6,7.2,21.8C118.9,252.5,119,255.5,121.3,257.5z"/>
	<path fill="#3F2ABA" d="M248.9,37.6c-2,6.5-4.2,13-6.3,19.5c-0.9,2.8-1.7,5.6-2.6,8.3c0.3,0.9,0.4,1.8,0.6,2.3
		c2.3,6.9,4.5,13.7,6.8,20.6c0.4,1.1,0.7,2.2,1.1,3.3c2.2,6.9,4.5,13.7,6.7,20.6c0.1,0.3,0.2,0.6,0.3,0.8c0.6,1.3,1.2,1.3,2.6,0.2
		c12.9-9.4,25.8-18.8,38.7-28.2c1-0.8,1.8-2,2.2-3.2c2.7-8.1,5.3-16.4,8.1-24.6c0.7-2.1,0.5-3.4-1-4.7c-0.2-0.2-0.4-0.3-0.6-0.5
		c-7.3-5.1-14.4-10.4-21.7-15.5c-1.1-0.8-2.7-1.3-4.1-1.3c-9-0.1-18.1,0-27.2-0.1C250.4,35,249.5,35.8,248.9,37.6z"/>
	<path fill="#3F2ABA" d="M174.3,48.4c-1.8,1.3-3.7,2.6-5.5,3.9c-1.9,1.3-2,2.5-1.4,4.4c0,0,0,0,0,0c0,0,0,0,0,0
		c2.8,8.5,5.5,17,8.3,25.3c0,0,0,0,0,0c0.3,0.8,0.7,1.6,1.3,2.2c0.2,0.2,0.4,0.4,0.6,0.5c13,9.5,26.1,19,39.1,28.5
		c0.6,0.4,1,0.6,1.3,0.6c0.1,0,0.2,0,0.3-0.1c0.2-0.1,0.4-0.2,0.5-0.5s0.3-0.6,0.4-1c4.9-14.9,9.8-29.8,14.6-44.8
		c0.4-1.2,0.6-2.7,0.2-3.9c-2.8-8.9-5.7-17.7-8.6-26.6c-0.2-0.6-0.4-1.1-0.8-1.4c-0.5-0.5-1.3-0.7-2.3-0.7c-1.1,0-2.3,0-3.4,0
		c-3.4,0-6.8,0-10.3,0c-4.6,0-9.2-0.1-13.7,0c-1.4,0.1-3,0.5-4.1,1.3C185.3,40.3,179.8,44.4,174.3,48.4z"/>
	<path fill="#3F2ABA" d="M266,309.1c3.4,0.1,6.8,0.4,10.2,0.2c2.6-0.1,5.7-0.3,7.8-1.7c7.4-4.9,14.4-10.4,21.7-15.5
		c2-1.4,2.1-2.6,1.4-4.6c-2.7-8.2-5.3-16.4-8.1-24.6c-0.5-1.4-1.5-2.9-2.7-3.9c-0.1-0.1-0.3-0.3-0.4-0.4c-12.3-9.1-24.7-18-37.1-27
		c-0.8-0.6-1.7-1.1-2.7-1.7c-0.4,0.5-0.6,0.8-0.8,1c-4.9,15.3-9.9,30.5-14.8,45.8c-0.5,1.4-0.4,3.1,0,4.4c2.7,8.5,5.5,17.1,8.3,25.6
		c0.2,0.7,0.5,1.2,0.9,1.6c0.5,0.5,1.2,0.8,2.3,0.8C256.7,309,261.4,309.1,266,309.1z"/>
	<path fill="#3F2ABA" d="M187.3,133.7c-4.8-14.7-9.6-29.4-14.5-44.1c-0.4-1.3-1.4-2.5-2.4-3.3c-7.4-5.5-15-10.8-22.4-16.3
		c-0.7-0.5-1.3-0.8-1.8-0.8c-0.6,0-1.2,0.3-1.9,0.8c-7.4,5.4-15,10.8-22.4,16.3c-0.8,0.6-1.5,1.6-1.8,2.6c-3,9.1-5.9,18.2-8.9,27.3
		c-0.4,1.4-0.1,2.4,1.2,3.3c7.3,5.2,14.4,10.5,21.7,15.6c1.3,0.9,3.2,1.5,4.8,1.5c3.8,0.1,7.6,0.1,11.4,0.1c3.8,0,7.5,0,11.3,0
		c7.8,0,15.6,0,23.4,0C187.9,136.7,188.2,136.4,187.3,133.7z"/>
	<path fill="#3F2ABA" d="M167.2,288.3c-0.5,1.5-0.2,2.5,1.1,3.4c7.4,5.3,14.8,10.7,22.3,16c1.1,0.8,2.6,1.3,3.9,1.3
		c9.2,0.1,18.5,0,27.7,0.1c1.5,0,2.4-0.4,3-1.4c0.2-0.3,0.4-0.8,0.5-1.2c2.7-8.4,5.5-16.8,8.1-25.2c0.5-1.6,0.4-3.7-0.1-5.3
		c-3.5-11.3-7.2-22.5-10.9-33.7c-1.4-4.1-2.7-8.1-4.2-12.5c-1,0.6-1.6,0.9-2,1.2c-13,9.4-25.9,18.8-38.8,28.2
		c-0.2,0.2-0.4,0.3-0.6,0.5c-0.6,0.6-1.1,1.3-1.3,2C173,270.6,170.2,279.4,167.2,288.3z"/>
	<path fill="#3F2ABA" d="M136.3,142.9c-0.8-0.6-2.1-1-3.2-1c-9.2-0.1-18.5,0-27.7-0.1c-1.8,0-2.8,0.6-3.3,2.3
		c-2.8,9-5.8,17.9-8.6,26.9c0,0.1-0.1,0.3-0.1,0.4c-0.3,1-0.2,2.2,0.1,3.2c2.7,8.5,5.5,16.9,8.2,25.4c0.6,1.8,1.5,2.4,3.4,2.4
		c9-0.1,18,0.1,27-0.1c1.7-0.1,3.8-0.7,5.2-1.7c10-7,19.8-14.2,29.6-21.3c0.8-0.6,1.5-1.2,2.3-1.7c2.3-1.7,4.7-3.5,7.3-5.4
		c-0.9-0.7-1.5-1.3-2.2-1.7C161.6,161.3,149,152,136.3,142.9z"/>
	<path fill="#3F2ABA" d="M226.6,339.7c-0.4-0.3-0.8-0.6-1.2-0.9c-7.2-5.2-14.4-10.5-21.6-15.7c-1.4-1-2.8-2-4.2-3
		c-2.1-1.5-4.3-3.1-6.4-4.6c-1.1-0.8-2.7-1.3-4.1-1.3c-9.2-0.1-18.3,0-27.5-0.1c-2.1,0-3,0.7-3.6,2.6c-2.4,7.7-4.8,15.3-7.4,22.8
		c-0.7,1.9-1,3.6-0.9,5.4h82.9c0.3-0.2,0.6-0.4,0.9-0.6C230.8,342.5,228.6,341.1,226.6,339.7z"/>
	<path fill="#3F2ABA" d="M324.8,342.3c-2.6-8.7-5.5-17.3-8.3-25.9c-0.5-1.7-1.4-2.3-3.2-2.3c-1.2,0-2.3,0-3.5,0c-1.2,0-2.3,0-3.5,0
		c-2.3,0-4.6,0-7,0c-4.7,0-9.4,0-14,0c-0.5,0-1.1,0.1-1.7,0.2c-0.6,0.2-1.1,0.4-1.6,0.7c-4.5,3.2-9,6.5-13.5,9.7
		c-8.2,6-16.5,11.9-24.7,17.9c-1.2,0.9-1.6,1.5-1.2,2.2h82.5C325.2,344,325.1,343.1,324.8,342.3z"/>
	<path fill="#3F2ABA" d="M429.5,142.8c-0.8-0.6-2-0.8-3-0.8c-9-0.1-18.1,0-27.2-0.1c-1.7,0-2.6,0.5-3.3,1.6
		c-0.2,0.4-0.4,0.8-0.5,1.3c-2.6,8.3-5.4,16.6-8,24.9c-0.3,1.2-0.4,2.7,0,3.9c2.8,8.9,5.9,17.8,8.7,26.8c0.5,1.5,1.2,2.1,2.8,2.1
		c9.3,0,18.7,0,28-0.1c1.1-0.1,2.4-0.5,3.4-1.2c12.6-9.1,25.2-18.3,37.8-27.4c0.5-0.4,1.1-0.9,2.2-1.9c-0.8-0.4-1.2-0.5-1.5-0.5
		C455.8,161.9,442.8,152.3,429.5,142.8z"/>
	<path fill="#3F2ABA" d="M149.1,0.4c0.1,0.4,0.1,0.8,0.2,1.2c2.9,8.9,5.8,17.9,8.7,26.8c0.6,1.8,1.7,2,3.3,2c9-0.1,18,0,27-0.1
		c1.6,0,3.4-0.5,4.6-1.4c9-6.3,17.8-12.8,26.7-19.3c3-2.2,5.9-4.4,8.9-6.7c1.1-0.8,2.2-1.7,3.2-2.5c-27.4,0-54.9,0-82.4,0
		C149.3,0.4,149.2,0.4,149.1,0.4z"/>
	<path fill="#3F2ABA" d="M242.2,0.4c9.9,7.2,19.9,14.5,29.8,21.6c3.3,2.4,6.6,4.8,10,7.2c0,0,0,0,0,0c1,0.7,2.5,1.1,3.7,1.1
		c0,0,0,0,0,0c9.1,0.1,18.2,0,27.4,0.1l0,0c1.9,0,2.9-0.7,3.4-2.5c1.1-3.7,2.3-7.3,3.5-10.9c0,0,0,0,0,0c1.8-5.5,3.5-11.1,5.2-16.6
		c0,0,0,0,0,0C297.5,0.4,270,0.4,242.2,0.4z"/>
	<path fill="#3F2ABA" d="M44,201.2c0.9,0.6,2,1.1,3,1.1c9.5,0.1,19,0.1,28.5,0.1c1.4,0,2.1-0.5,2.6-2c2.8-8.9,5.9-17.8,8.7-26.8
		c0.4-1.2,0.5-2.7,0.1-3.9c-2.7-8.5-5.6-17-8.3-25.6c-0.2-0.6-0.4-1.1-0.7-1.4c-0.5-0.6-1.3-0.9-2.5-0.9c-9.2,0.1-18.5,0-27.7,0.1
		c-1.1,0.1-2.4,0.5-3.4,1.2c-9.1,6.5-18.1,13-27.1,19.6c-2.5,1.9-5,3.7-7.6,5.5c-1.7,1.3-3.5,2.5-5.3,3.9c0.8,0.7,1.3,1.2,1.7,1.5
		C18.7,182.8,31.3,192.1,44,201.2z"/>
	<path fill="#000066" d="M361.5,95.2c2.4,7.5,4.8,15,7.4,22.5c0.2,0.5,0.3,0.9,0.3,1.2c0.1,1.1-0.5,1.8-1.6,2.7
		c-6.2,4.4-12.3,8.8-18.4,13.3c-0.5,0.4-1,0.9-1.9,1.8c0,0-0.1,0.1-0.1,0.1c1.6,0.1,2.4,0.2,3.2,0.2c7.5,0,15,0.1,22.5,0
		c1.7,0,2.5,0.6,3,2.2c1.2,4.2,2.6,8.4,4,12.6c1.3,3.8,2.5,7.5,4,11.9c0.7-1.7,1.1-2.6,1.4-3.5c2.3-6.8,4.6-13.7,6.7-20.6
		c0.6-2,1.5-2.6,3.5-2.6c7.3,0.1,14.7,0,22,0c0.9,0,1.8-0.1,2.6-0.2c0.1-0.2,0.1-0.4,0.2-0.6c0,0,0,0,0,0c-0.6-0.4-1.1-0.9-1.6-1.3
		c-6-4.3-11.9-8.8-18-13c-0.9-0.6-1.5-1.2-1.7-2c0,0,0-0.1,0-0.1c0-0.1-0.1-0.2-0.1-0.3c-0.1-0.6,0-1.2,0.3-2
		c1.9-5.3,3.5-10.6,5.2-15.9c0.2-0.6,0.4-1.2,0.5-1.8c0.6-1.9,1.1-3.7,1.7-5.5c-0.1-0.1-0.2-0.1-0.3-0.2c-0.1,0-0.2-0.1-0.2-0.1
		c-0.9,0.6-1.9,1.1-2.8,1.8c-5.7,4.1-11.4,8.3-17.1,12.5c-1.6,1.2-2.8,1.2-4.4,0c-6.1-4.5-12.3-8.9-18.4-13.3
		c-0.6-0.4-1.2-0.7-2.1-1.2c0,0,0,0,0,0C361.4,94.6,361.4,94.9,361.5,95.2z"/>
	<path fill="#000066" d="M401,222.5c3.3-2.3,6.6-4.7,9.9-7.1c3.3-2.4,6.5-4.8,9.8-7.2c-0.1-0.1-0.1-0.3-0.1-0.5c0-0.1,0-0.1-0.1-0.2
		c-0.9-0.1-1.7-0.2-2.6-0.2c-7.3,0-14.7-0.1-22,0c-1.8,0.1-2.8-0.4-3.4-2.3c-2.2-7.2-4.6-14.4-7-21.6c-0.2-0.7-0.6-1.3-1.2-2.4
		c-0.4,1-0.6,1.5-0.8,1.9c-2.4,7.4-4.9,14.7-7.2,22.1c-0.6,1.9-1.6,2.4-3.4,2.4c-7.4-0.1-14.8,0-22.2,0c-0.8,0-1.6,0.2-3.1,0.3
		c0,0,0.1,0.1,0.1,0.1c1.2,0.9,1.9,1.5,2.6,2c5.7,4.2,11.4,8.4,17.2,12.4c1.5,1.1,2.2,2,2.1,3.5c0,0.5-0.2,1-0.4,1.5
		c-2.4,6.8-4.6,13.7-6.8,20.6c-0.2,0.7-0.2,1.6-0.4,3c0,0,0,0,0,0c1.5-1.1,2.3-1.7,3.2-2.3c5.8-4.2,11.7-8.3,17.4-12.6
		c1.4-1,2.3-1.1,3.7,0c5.9,4.4,11.9,8.7,17.9,13.1c0.7,0.5,1.5,0.9,2.8,1.8c0,0,0,0,0,0c0-0.1,0-0.2,0-0.2c-0.2-0.8-0.2-1.4-0.3-1.9
		c0-0.2-0.1-0.5-0.1-0.7c-2.2-7-4.5-14.1-6.9-21.1c-0.2-0.5-0.3-0.9-0.3-1.4C399.1,224.3,399.7,223.4,401,222.5z"/>
	<path fill="#000066" d="M75.4,117.8c0.5,1.5,0.3,2.4-0.5,3.2c-0.3,0.2-0.6,0.5-0.9,0.7c-5.9,4.2-11.7,8.4-17.6,12.7
		c-0.7,0.6-1.4,1.2-2.1,1.8c0.1,0.2,0.1,0.3,0.2,0.4c0.1,0.1,0.1,0.1,0.2,0.2c0.7,0,1.5,0,2.2,0c7.5,0,15,0.1,22.5,0
		c1.7-0.1,2.6,0.5,3.1,2.1c1.6,5.1,3.3,10.3,5,15.4c0.9,2.8,1.9,5.6,2.8,8.4c0.9-1,1.3-1.9,1.6-2.8c2.2-6.8,4.5-13.5,6.6-20.4
		c0.7-2.1,1.7-2.8,3.9-2.8c7.4,0.2,14.8,0.1,22.2,0.1c0.7,0,1.3-0.2,2.7-0.3c0,0,0.1,0,0.1,0c-1.3-1.1-2-1.7-2.8-2.3
		c-6-4.3-12-8.7-18-13c-0.9-0.6-1.3-1.1-1.3-1.8c0-0.4,0.1-0.9,0.2-1.5c0.3-0.7,0.5-1.4,0.7-2.1c0.8-2.3,1.6-4.6,2.3-7
		c0.6-1.8,1.1-3.5,1.7-5.3c1-3.1,2-6.1,3-9.2c0,0,0-0.1,0-0.1c-1.2,0.1-1.9,0.4-2.5,0.9c-6,4.4-12.1,8.7-18,13.1
		c-1.6,1.2-2.8,1.2-4.4,0c-5.9-4.4-11.9-8.6-17.8-12.9c-0.8-0.5-1.5-0.9-2.8-1.7c0,0,0,0.1,0,0.1c0,0.1,0,0.2,0,0.2
		c0.1,0.9,0.2,1.4,0.4,1.9c0,0.1,0,0.1,0.1,0.2C70.7,103.2,72.9,110.6,75.4,117.8z"/>
	<path fill="#000066" d="M105.2,226.9c-0.6-1.8-0.6-3,1.2-4.2c4.1-2.8,8-5.7,12-8.6c2.7-1.9,5.3-3.9,8-5.9c-0.1-0.2-0.2-0.5-0.3-0.7
		c-0.8,0-1.7,0-2.4,0c-0.1,0-0.1,0-0.2,0c-7.3,0-14.7-0.1-22,0c-0.1,0-0.1,0-0.2,0c-1.7,0-2.6-0.5-3.1-2.2
		c-1.7-5.9-3.7-11.7-5.6-17.6c-0.7-2-1.4-4-2.1-6.1c-0.2,0-0.4,0-0.5,0c-0.1,0-0.1,0-0.2,0c-0.3,0.6-0.6,1.3-0.8,1.9
		c-2.3,7-4.6,14-6.8,21.1c-0.6,2.1-1.6,2.9-3.7,2.8c0,0-0.1,0-0.1,0c-0.5,0-1.1,0-1.6,0c-1.4,0-2.8,0-4.3,0c-5.2,0-10.4,0-15.5,0
		c-0.1,0-0.2,0-0.3,0c-0.8,0-1.7,0.1-2.6,0.2c0,0.2-0.1,0.4-0.3,0.6c0.5,0.4,1,0.8,1.5,1.2c6.1,4.4,12.1,8.9,18.2,13.2
		c1.6,1.2,1.9,2.3,1.3,4.2c-2.4,7-4.6,14.1-6.9,21.1c-0.2,0.7-0.2,1.4-0.5,2.8c0.1,0,0.1-0.1,0.2-0.1c1.2-0.7,1.9-1.1,2.5-1.6
		c6-4.3,12.1-8.6,18-13c0.9-0.7,1.6-1,2.4-0.8c0.5,0.1,0.9,0.4,1.5,0.8c6.2,4.6,12.5,9.1,18.8,13.6c0.5,0.3,1,0.5,1.8,0.9
		c0,0,0-0.1,0-0.1c-0.2-1-0.2-1.6-0.4-2.2C109.9,241.1,107.5,234,105.2,226.9z"/>
	<path fill="#000066" d="M312,50.9c1.3,1,1.7,1.7,1.1,3.3c-1.7,4.9-3.2,9.8-4.8,14.7c-0.9,3.1-1.8,6.1-2.8,9.2c0,0,0.1,0,0.1,0
		c1.1-0.1,1.8-0.4,2.4-0.9c6.1-4.4,12.2-8.7,18.2-13.2c0.8-0.6,1.4-0.8,2.1-0.8c0.6,0,1.2,0.3,1.9,0.8c3.8,2.9,7.7,5.6,11.5,8.4
		c2.9,2.1,5.7,4.1,9.2,6.6c0,0,0-0.1,0-0.1c-0.3-1.2-0.3-1.8-0.5-2.3c-2.4-7.4-4.7-14.8-7.2-22.1c-0.6-1.8-0.3-2.7,1.2-3.7
		c6.2-4.4,12.3-8.9,18.4-13.4c0.6-0.4,1.1-1,1.6-1.5c-0.1-0.2-0.2-0.4-0.3-0.6c-0.9,0-1.9,0-2.9,0c-7.3,0-14.7,0-22,0
		c-1.4,0-2.3-0.3-2.8-1.8c-1.3-4.2-2.7-8.3-4-12.4c-1.3-3.8-2.5-7.7-3.8-11.5c-0.2,0-0.5,0-0.8,0.1c-0.3,0.6-0.7,1.3-0.9,2
		c-2.2,6.9-4.5,13.9-6.7,20.9c-0.6,2-1.6,2.7-3.7,2.7c0,0,0,0,0,0c-0.3,0-0.5,0-0.8,0c-1.7,0-3.5,0-5.2,0c-5.3,0-10.6,0-15.8,0
		c-0.1,0-0.1,0-0.2,0c-0.9,0-1.7,0.1-3.3,0.2c1.1,1,1.6,1.5,2.2,1.9C299.6,41.9,305.8,46.5,312,50.9z"/>
	<path fill="#000066" d="M134.8,35c-7.6-0.1-15.1,0-22.7,0c-0.7,0-1.4,0.1-2.9,0.2c0,0,0.1,0.1,0.1,0.1c1.1,0.9,1.7,1.4,2.3,1.9
		c6.2,4.5,12.4,9,18.6,13.5c0.1,0.1,0.3,0.2,0.4,0.3c0.9,0.8,1.2,1.5,0.7,2.8c-1.8,5.1-3.4,10.1-5,15.2c-1,3-1.9,5.9-2.8,8.9
		c0,0,0.1,0,0.1,0c1.1,0,1.9-0.4,2.5-0.9c6.1-4.4,12.2-8.7,18.2-13.2c1.5-1.1,2.6-1.1,4,0c0.8,0.6,1.6,1.2,2.3,1.7
		c3,2.2,6,4.4,9,6.5c2.3,1.7,4.6,3.3,6.9,5c0.7,0.5,1.3,0.9,2.5,1.7c-0.2-1.2-0.3-1.8-0.6-2.5c-2.4-7.3-4.7-14.7-7.2-22
		c-0.6-1.7-0.1-2.6,1.2-3.5c6.1-4.4,12.2-8.8,18.2-13.2c0.7-0.5,1.3-1.1,2.5-2.2c-1.6-0.1-2.4-0.2-3.2-0.2c-5.6,0-11.2-0.1-16.8,0
		c-1.9,0-3.8,0-5.6,0c0,0-0.1,0-0.1,0c-1.9,0.1-2.7-0.6-3.2-2.3c-2.2-7-4.4-13.8-6.7-20.7c-0.3-0.9-0.8-1.7-1.3-3.1
		c0-0.1,0-0.1-0.1-0.2c-0.6,1.5-0.9,2.3-1.2,3.2c-2.3,6.8-4.6,13.7-6.7,20.6C137.5,34.4,136.8,35,134.8,35z"/>
	<path fill="#000066" d="M344.3,293.6c-0.7-0.6-1.5-2-1.3-2.7c1.5-5.1,3.2-10,4.8-15c1-3.1,2-6.3,3-9.5c-0.2-0.1-0.4-0.2-0.6-0.3
		c0,0,0,0,0,0c-0.7,0.5-1.3,0.9-2,1.4c-6,4.4-12.1,8.7-18,13.1c-0.5,0.4-1,0.7-1.5,0.8c-0.7,0.2-1.5,0-2.4-0.7
		c-5-3.8-10.1-7.6-15.2-11.3c-1.7-1.2-3.5-2.2-5.6-3.5c0,0,0,0,0,0.1c0.2,1,0.2,1.5,0.4,2c2.3,6.9,4.4,13.9,6.9,20.8
		c1,2.7,0.4,4.3-2,5.9c-6.4,4.3-12.6,9-18.8,13.5c0.1,0.2,0.1,0.4,0.2,0.7c0.9,0.1,1.7,0.2,2.6,0.2c5.4,0,11,0.1,16.4,0
		c1.8,0,3.7,0,5.5,0c0,0,0.1,0,0.1,0c1.9,0,2.9,0.6,3.4,2.4c1.5,5.2,3.2,10.4,4.9,15.5c0.9,2.6,1.8,5.2,3,8.5c0,0,0,0.1,0,0.1
		c0.6-1.5,1-2.1,1.2-2.8c2.3-7,4.6-14,6.8-21.1c0.6-2,1.5-2.6,3.5-2.6c0,0,0,0,0,0c3.7,0,7.5,0,11.3,0c3.8,0,7.6,0,11.4,0
		c0.6,0,1.2-0.1,2.5-0.3c-1.2-0.9-1.8-1.4-2.4-1.9C356.4,302.5,350.3,298.1,344.3,293.6z"/>
	<path fill="#000066" d="M162.2,293.6c-0.9-0.7-1.9-1.2-1.3-2.8c1.7-4.8,3.2-9.7,4.8-14.5c1.1-3.4,2.2-6.7,3.5-10.8c0,0,0,0,0,0
		c-0.1,0.1-0.2,0.1-0.3,0.2c-0.6,0.4-1.1,0.6-1.4,0.8c-0.2,0.1-0.4,0.2-0.6,0.4c-6.2,4.5-12.4,8.8-18.4,13.4
		c-0.2,0.2-0.4,0.3-0.6,0.4c-1.4,0.8-2.4,0.6-3.9-0.4c-5.9-4.4-11.9-8.6-17.8-12.9c-0.7-0.5-1.5-0.9-2.6-1.6
		c-0.1-0.1-0.2-0.1-0.3-0.2c0.3,1.2,0.4,1.6,0.5,2c2.5,7.5,4.8,15,7.4,22.5c0.7,1.8,0.3,2.7-1.2,3.7c-1.8,1.2-3.5,2.5-5.3,3.8
		c-0.7,0.5-1.3,0.9-1.9,1.4c-4.2,3-8.4,6.1-12.6,9.1c0.1,0.2,0.1,0.3,0.1,0.4c0,0.1-0.1,0.3-0.2,0.5c1.2,0.1,2.4,0.2,3.6,0.2
		c7,0,14,0,21,0c1.6,0,2.7,0.4,3.2,2.1c1.6,4.9,3.2,9.8,4.8,14.7c1,3,2,6,3,9c0.2,0,0.5-0.1,0.7-0.1c0,0,0-0.1,0-0.1
		c0.3-0.9,0.7-1.7,1-2.6c2.2-6.7,4.4-13.4,6.5-20.2c0.4-1.1,0.8-1.9,1.5-2.3c0,0,0,0,0.1,0c0.1-0.1,0.2-0.1,0.3-0.2
		c0.5-0.2,1.2-0.4,2-0.4c7.3,0.1,14.7,0,22,0c0.8-0.1,1.6-0.2,3.1-0.4c0,0,0,0-0.1-0.1c-0.8-0.7-1.2-0.9-1.6-1.2
		C175,302.8,168.5,298.2,162.2,293.6z"/>
	<path fill="#000066" d="M204,30.3c7.4,0,14.7,0.1,22,0c1.8,0,2.7,0.5,3.2,2.3c0.5,2.2,1.3,4.3,2,6.4c0.9,2.7,1.8,5.4,2.7,8.1
		c1,3,1.9,5.9,2.9,8.9c0.2,0,0.4,0,0.5,0.1c0,0,0-0.1,0-0.1c0.3-0.7,0.7-1.2,0.9-1.9c2.3-7,4.7-14,6.8-21.1c0.2-0.5,0.4-1,0.6-1.3
		c0.6-1,1.5-1.4,3.1-1.4c7.4,0.1,14.8,0,22.2,0c0.8,0,1.5-0.2,2.7-0.4c0,0,0,0-0.1-0.1c-0.6-0.7-0.8-1-1.1-1.2
		c-11.2-8.2-22.4-16.3-33.5-24.4c-1.3-0.9-2.2-0.8-3.5,0.1C224.2,12.4,213,20.5,202,28.7c-0.2,0.1-0.3,0.3-0.5,0.5
		c0,0.1-0.1,0.1-0.1,0.2c-0.1,0.2-0.2,0.4-0.4,0.7c0,0.1-0.1,0.1-0.1,0.2C202.2,30.3,203.2,30.3,204,30.3z"/>
	<path fill="#000066" d="M466.7,139.7c-0.5,1.5-1.1,2.1-2.8,2.1c-4.2-0.1-8.5,0.1-12.7,0.1c-4.1,0-8.3,0-13,0
		c0.6,0.9,0.8,1.3,1.1,1.6c11.4,8.3,22.8,16.5,34.2,24.7c0.2,0.1,0.5,0.2,0.8,0.2v-51.7c-0.3,0.6-0.5,1.1-0.7,1.6
		C471.2,125.5,469,132.6,466.7,139.7z"/>
	<path fill="#000066" d="M440.3,200.4c-0.7,0.4-1.2,0.9-1.8,1.4c0,0,0,0,0,0c1.1,0.6,2,0.7,2.9,0.7c7.4,0,14.8,0.1,22.2,0
		c0.8,0,1.3,0.1,1.8,0.4c0.6,0.3,0.9,0.9,1.2,1.8c2,6.3,4.1,12.7,6.1,19c0.4,1.4,1,2.8,1.5,4.2v-51.8c-0.4,0.1-0.8,0.4-1.3,0.7
		C462,184.7,451.2,192.5,440.3,200.4z"/>
	<path fill="#000066" d="M270.7,314.1c-7.3,0-14.6,0-21.9,0.2c-1.9,0-2.9-0.7-3.4-2.5c-1.9-6.1-3.8-12.1-5.8-18.1
		c-0.6-1.9-1.3-3.6-2.2-6c-0.5,1.1-0.8,1.5-0.9,2c-2.4,7.2-4.8,14.4-7,21.6c-0.6,2-1.4,2.9-3.6,2.9c-7.3-0.1-14.7,0-22,0
		c-0.8,0-1.6,0.1-3,0.2c-0.1,0-0.1,0-0.2,0c1,1,1.4,1.5,2,1.9c10.7,7.7,21.5,15.4,32.1,23.3c2.3,1.7,3.7,1.4,5.7-0.1
		c7.6-5.7,15.2-11.3,22.8-16.9c3.4-2.6,6.9-5.1,11-8.1C272.5,314.2,271.5,313.9,270.7,314.1z"/>
	<path fill="#000066" d="M2.3,167.4c10.9-8,21.8-15.9,32.7-23.8c0.5-0.3,0.8-0.8,1.3-1.5c0,0,0-0.1,0.1-0.1c-1.1,0-1.6-0.1-2.2-0.1
		c-7.5,0-15-0.1-22.5,0.1c-1.7,0-2.7-0.5-3.4-1.5c-0.3-0.4-0.5-0.9-0.6-1.5c-1.9-6-3.9-12-5.8-18c-0.5-1.7-1.2-3.2-1.9-5.4
		c0-0.1,0-0.1-0.1-0.2c-0.2,0.5-0.4,0.8-0.5,1.1v51.9C0.3,168.5,1.1,168.2,2.3,167.4z"/>
	<path fill="#000066" d="M1,226.1c2.3-7,4.6-14,6.8-21.1c0.6-1.9,1.6-2.5,3.6-2.5c7.3,0.1,14.7,0,22,0c0.8,0,1.6-0.2,3-0.4
		c-0.9-0.8-1.3-1.2-1.8-1.5c-10.9-7.9-21.8-15.8-32.7-23.8c-1-0.7-1.7-1-2.5-0.8v52.2c0.2,0,0.4,0,0.6,0.1
		C0.3,227.5,0.7,226.9,1,226.1z"/>
	<path fill="#3F2ABA" d="M279.8,188.2c1.3,3.8,2.6,7.6,3.7,11.4c0.7,2.5,2,3.3,4.6,3.3c13.2-0.2,26.5-0.1,39.7-0.1
		c0.6,0,1.3-0.2,2.4-0.4c-0.6-0.8-0.7-1-0.9-1c-11.4-8.4-22.8-16.7-34.3-24.9c-0.7-0.5-2.3-0.4-3,0.1c-3.8,2.5-7.3,5.3-11,7.8
		c-1,0.7-1.4,1.4-1.5,2.2C279.5,187.1,279.6,187.6,279.8,188.2z"/>
	<path fill="#3F2ABA" d="M179.2,176.6c-10.2,7.5-20.5,14.9-30.7,22.3c-0.6,0.4-1.2,0.8-1.8,1.3c-0.8,0.6-1.6,1.3-2.5,2
		c0.9,0.3,1.2,0.5,1.5,0.5c14.2,0,28.4,0,42.5-0.1c0.7,0,1.9-0.9,2.2-1.7c1.6-4.3,3-8.8,4.5-13.2c0.4-1.2,0.1-2-0.5-2.7
		c-0.2-0.2-0.5-0.5-0.8-0.7c-3.6-2.6-7.2-5.2-10.7-7.8C181.7,175.5,180.7,175.6,179.2,176.6z"/>
	<path fill="#3F2ABA" d="M294.2,248.6c-4.2-13-8.4-26.1-12.8-39.1c-0.2-0.8-1.6-1.8-2.4-1.8c-2.3-0.1-4.6-0.1-6.9-0.1
		c-1.2,0-2.3,0-3.5,0c-1.2,0-2.3,0-3.5,0c0,0-0.1,0-0.1,0c-1.6-0.1-2.2,0.6-2.6,2c-1.3,4.3-2.8,8.5-4.2,12.8
		c-0.5,1.6-0.1,2.6,1.3,3.6c6.2,4.4,12.4,8.9,18.6,13.4c5.3,3.9,10.6,7.7,15.9,11.6c0.2-0.1,0.4-0.2,0.5-0.3
		C294.4,250,294.4,249.3,294.2,248.6z"/>
	<path fill="#3F2ABA" d="M180.5,251C180.5,251,180.5,251,180.5,251c2.6-1.8,5.2-3.7,7.7-5.5c8.9-6.5,17.9-13,26.9-19.5
		c1.1-0.8,2-1.7,1.4-3.3c-1.5-4.4-2.9-8.9-4.3-13.3c-0.4-1.3-1.1-1.9-2.5-1.9c0,0-0.1,0-0.1,0c-2.3,0-4.7,0.1-7,0.1
		c-2.3,0-4.6,0-7-0.1c0,0,0,0,0,0c-1.5,0-2.1,0.7-2.6,2.1c-4.1,12.7-8.4,25.5-12.5,38.2c-0.3,0.9-0.4,1.9-0.6,2.8
		c0.2,0.1,0.3,0.2,0.4,0.3C180.4,250.9,180.4,251,180.5,251z"/>
	<path fill="#3F2ABA" d="M293.9,93.1c-3.1,2.3-6.3,4.7-9.5,7c-8.4,6.1-16.7,12.2-25.1,18.2c-1.1,0.8-1.8,1.6-1.3,3.1
		c1.5,4.4,2.9,8.9,4.3,13.3c0.1,0.4,0.3,0.7,0.4,1c0.4,0.7,1.1,0.9,2.1,0.9c4.7,0,9.3,0.1,14,0.1c1.5,0,2.2-0.5,2.7-2
		c3.6-11.3,7.3-22.6,11-33.9c0.5-1.4,0.9-2.8,1.4-4.2c0.3-1,0.6-1.9,0.9-2.8C294.5,93.6,294.3,93.4,293.9,93.1z"/>
	<path fill="#3F2ABA" d="M214.8,118.1c-10.3-7.4-20.6-14.9-30.9-22.4c-1.1-0.8-2.3-1.5-4.1-2.7c0.3,1.2,0.3,2,0.5,2.6
		c0,0.1,0,0.2,0.1,0.3c4.2,12.9,8.5,25.8,12.6,38.7c0,0.2,0.1,0.3,0.1,0.5c0.2,0.5,0.4,0.9,0.8,1.2c0.4,0.3,0.9,0.5,1.7,0.5
		c4.7,0,9.3,0.1,14-0.1c0.8,0,2.1-1,2.4-1.8c1.6-4.1,2.7-8.2,4.2-12.3c0.2-0.5,0.3-0.9,0.3-1.4C216.6,119.9,216,119,214.8,118.1z"/>
	<path fill="#3F2ABA" d="M236.3,76.7c-4.3,13.2-8.6,26.4-12.8,39.6c-0.2,0.7,0.4,2.1,1,2.6c0.7,0.6,1.5,1.2,2.3,1.8
		c0.8,0.6,1.5,1.1,2.3,1.7c2.2,1.6,4.5,3.2,6.6,4.8c0.6,0.4,1.1,0.6,1.6,0.6c0.5,0,1.1-0.3,1.7-0.7c3.4-2.5,6.8-5.1,10.3-7.4
		c2-1.3,2.2-2.6,1.5-4.8c-3.4-9.9-6.5-19.9-9.8-29.8c-1.2-3.4-2.3-6.8-3.4-10.1c-0.2,0-0.4,0.1-0.6,0.1
		C236.8,75.7,236.5,76.2,236.3,76.7z"/>
	<path fill="#3F2ABA" d="M238.2,267.9c4.4-13.4,8.7-26.7,13-40.1c0.2-0.6-0.2-1.6-0.7-2.1c0,0-0.1-0.1-0.1-0.1
		c-3.8-2.9-7.7-5.8-11.7-8.5c-0.6-0.5-2.1-0.4-2.8,0c-3.9,2.6-7.7,5.4-11.6,8.2c-1.1,0.8-1.3,1.6-0.8,3c3.1,9.3,6,18.6,9,27.8
		c0.9,3,1.9,5.9,2.9,8.9c0.5,1.4,1,2.9,1.5,4.3c0.2-0.1,0.4-0.1,0.6-0.1C237.8,268.8,238,268.4,238.2,267.9z"/>
	<path fill="#3F2ABA" d="M195,156.6c-0.3-1-0.7-2-1-3.1c-0.7-2-1.4-4.1-2-6.2c-0.3-1-0.6-2-0.9-3.1c-0.2-0.8-0.5-1.4-0.9-1.8
		c-0.2-0.3-0.5-0.5-0.9-0.6c-0.5-0.2-1.1-0.3-1.9-0.3c-13.4,0.1-26.9,0.1-40.4,0.1c-0.7,0-1.4,0.1-2.1,0.2c-0.2,0.3-0.4,0.5-0.5,0.8
		c0,0,0,0,0,0c0.1,0.1,0.3,0.2,0.4,0.2c0.4,0.2,0.7,0.4,1.1,0.6c0,0,0,0,0,0c7.6,5.4,15.1,10.9,22.6,16.3c3.8,2.7,7.6,5.5,11.4,8.2
		c0,0,0,0,0,0c0.7,0.4,2.1,0.3,2.8-0.1c0,0,0,0,0,0c3.9-2.6,7.6-5.4,11.4-8.1C195.2,158.9,195.5,158,195,156.6z"/>
	<path fill="#3F2ABA" d="M329.1,141.7c-10.3-0.1-20.7-0.1-31,0c-4,0-7.9,0-11.9,0c0,0,0,0,0,0c-0.8,0-1.8,0.9-2.1,1.6c0,0,0,0,0,0
		c0,0,0,0,0,0c-1.6,4.3-3,8.8-4.5,13.1c0,0,0,0,0,0c-0.5,1.5-0.1,2.5,1.2,3.4c3.5,2.4,7,4.9,10.3,7.5c0.9,0.7,1.6,1,2.4,1
		c0.8,0,1.5-0.4,2.4-1c0,0,0,0,0,0c9.9-7.3,19.8-14.5,29.8-21.7c0,0,0,0,0,0c1.5-1,2.8-2.1,4.6-3.5c-0.4-0.2-0.7-0.3-0.8-0.4
		C329.2,141.8,329.2,141.7,329.1,141.7z"/>
	<path fill="#3F2ABA" d="M432.3,328.9C432.2,328.9,432.3,328.9,432.3,328.9c-1.1-4.1-2.7-8-3.8-12.1c-0.2-0.9-0.5-1.5-0.9-1.9
		c-0.7-0.7-1.6-1-3.1-1l0,0l0,0c-2.7,0-5.5,0-8.2,0c-8.2,0-16.3,0-24.5,0h0c-3.2,0-6.3,0-9.4,0c0,0.1-0.1,0.2-0.1,0.3
		c0,0.1,0,0.2-0.1,0.3c0.3,0.2,0.5,0.5,0.7,0.7c0,0,0.1,0,0.1,0.1c11.4,8.3,22.7,16.7,34.2,24.8c0,0,0,0,0,0c0,0,0,0,0,0
		c0.6,0.5,2.1,0.5,2.8,0c0,0,0,0,0,0c3.9-2.7,7.8-5.5,11.5-8.4C432,331.3,432.4,329.8,432.3,328.9z"/>
	<path fill="#3F2ABA" d="M461.1,288.4c-0.3,0.7,0.1,2.1,0.6,2.5c3.9,3.1,8,6,12.1,8.8c0.1,0.1,0.3,0.2,0.5,0.2v-52.1
		c-0.2,0.4-0.4,0.8-0.4,1.1C469.6,262.1,465.3,275.3,461.1,288.4z"/>
	<path fill="#3F2ABA" d="M451.8,290.1c-2.2-1.6-4.4-3.2-6.7-4.8c-6.6-4.8-13.2-9.6-19.8-14.4c-2.5-1.8-5.1-3.6-7.6-5.4
		c-0.2,0.1-0.4,0.2-0.5,0.4c0.5,1.6,1,3.3,1.5,4.9c4,12.1,8,24.1,11.8,36.1c0.5,1.6,1.2,2.1,2.8,2.1c1.1,0,2.3,0,3.4,0
		c1.1,0,2.3,0,3.5,0c2.3,0,4.5,0,6.8-0.1c0.1,0,0.2,0,0.3,0c0.7-0.2,1.5-0.8,1.9-1.4c0.1-0.1,0.1-0.2,0.2-0.3
		c1.5-4,2.5-8.2,4.1-12.1C454.5,292.6,453.8,291.5,451.8,290.1z"/>
	<path fill="#3F2ABA" d="M20.7,50.6c-0.6,1.6,0.2,2.3,1.3,3.1c8,5.8,16,11.7,24,17.5c3.5,2.6,7.1,5.1,11.2,8.1
		c-0.1-1.1,0-1.5-0.1-1.9C52.7,64,48.4,50.5,43.9,37.1c-0.3-0.8-1.6-1.7-2.5-1.7c-4.5-0.2-9.1-0.1-13.7-0.1c-1,0-1.6,0.2-2,0.7
		c-0.3,0.3-0.5,0.7-0.7,1.3C23.7,41.8,22.2,46.2,20.7,50.6z"/>
	<path fill="#3F2ABA" d="M0.7,95.3c4.2-13,8.4-25.9,12.7-38.9c0.1-0.4,0.2-0.7,0.3-1c0.1-0.4,0-0.8-0.2-1.2
		c-0.1-0.1-0.1-0.2-0.2-0.4c-0.2-0.2-0.4-0.5-0.8-0.7c-1.4-0.9-2.7-1.9-4.1-2.9c-1.4-1-2.8-2-4.2-3.1c-1-0.7-1.9-1.4-2.9-2.2
		c-0.8-0.6-1.4-0.8-2.1-0.7v52.8c0.2,0,0.3,0,0.5,0C0.2,96.6,0.6,96,0.7,95.3z"/>
	<path fill="#3F2ABA" d="M426,30.4c0.2,0,0.4-0.1,0.6-0.1c0.7-0.3,1.5-1.1,1.7-1.8c1.6-4.4,3-8.8,4.3-13.3c0.2-0.8-0.3-2.2-0.9-2.7
		c-3.6-2.8-7.4-5.3-11-8.1c-1.1-0.8-2-0.9-3-0.5c-0.3,0.1-0.6,0.3-1,0.6c-9.5,7-19,13.8-28.5,20.7c-2.1,1.5-4.1,3.1-6.5,4.9
		c0.9,0.3,1.2,0.4,1.6,0.4C397.5,30.5,411.8,30.5,426,30.4z"/>
	<path fill="#3F2ABA" d="M43.1,12.5c-1.3,0.9-1.5,1.7-1,3.1c1.4,4.1,2.9,8.1,4,12.3c0.6,2.1,1.6,2.6,3.7,2.6c0,0,0,0,0,0
		c13.4,0,26.7,0,40.1,0c0,0,0.1,0,0.1,0c0.8,0,1.5,0,2.6,0c-0.4-0.7-0.5-1-0.6-1.1c-3.1-2.2-6.2-4.5-9.3-6.7
		c-6-4.4-12.1-8.7-18.1-13.1c-2.5-1.8-5-3.7-7.6-5.5c-0.2-0.2-0.6-0.2-1-0.2c-0.6,0-1.3,0.2-1.6,0.4C50.6,7,46.9,9.8,43.1,12.5z"/>
	<path fill="#3F2ABA" d="M430,38.6c-2.7,8.5-5.5,17.1-8.3,25.6c-1.5,4.8-3,9.5-4.5,14.2c0.1,0.1,0.2,0.1,0.3,0.3
		c0.1,0.1,0.1,0.2,0.2,0.2c0,0,0.1,0,0.1-0.1c1-0.7,1.9-1.4,2.9-2c10.3-7.5,20.6-15,31-22.4c2.1-1.4,2.7-2.7,1.7-5.1
		c-1.5-3.8-2.7-7.7-3.8-11.6c-0.5-1.6-1.3-2.2-2.9-2.2c0,0,0,0-0.1,0c-3.4,0-6.9,0.1-10.3,0c-0.6,0-1.2,0-1.9-0.1
		c-0.3,0-0.5,0-0.7,0C431.6,35.4,430.7,36.5,430,38.6z"/>
	<path fill="#3F2ABA" d="M90.7,314.2c-13.9-0.1-27.8-0.1-41.7-0.1c-1.5,0-2.3,0.5-2.7,2c-1.4,4.3-2.8,8.7-4.3,13
		c-0.1,0.3-0.2,0.7-0.2,0.9c0,0.9,0.5,1.5,1.4,2.2c3.5,2.5,7.1,4.9,10.5,7.6c1.6,1.2,2.6,1.2,4.3,0c9.6-7.1,19.4-14.1,29.1-21.1
		c1.2-0.8,2.4-1.7,3.6-2.7c0.7-0.5,1.4-1,2.1-1.6C91.7,314.2,91.2,314,90.7,314.2z"/>
	<path fill="#3F2ABA" d="M462,53.2c-1.3,0.9-1.5,1.8-1,3.3c4.3,13,8.5,26.1,12.7,39.1c0.1,0.3,0.3,0.6,0.5,1v-52
		c-0.5,0.1-1,0.4-1.5,0.8C469.2,48.1,465.6,50.7,462,53.2z"/>
	<path fill="#3F2ABA" d="M20.7,293.5c1.3,4.5,2.9,8.8,4.2,13.3c0.4,1.5,1.1,2,2.6,2c4.2,0,8.5-0.1,12.7,0.1c0.9,0,1.6-0.1,2.2-0.4
		c1.1-0.5,1.6-1.5,2.1-2.9c2.9-9.4,6-18.7,9-28c0.3-0.9,0.6-1.9,0.9-2.8c0.9-3,1.9-6,2.9-9.3c-0.6,0.2-0.9,0.3-1.2,0.3
		c0,0-0.1,0-0.1,0c0,0-0.1,0-0.1,0c0,0,0,0,0,0c0,0,0,0,0,0c-11.5,8.3-22.9,16.6-34.3,25C21,291.3,20.5,292.7,20.7,293.5z"/>
	<path fill="#3F2ABA" d="M1,299.5c4-2.7,7.7-5.6,11.6-8.3c0.5-0.3,0.8-0.7,1-1c0.3-0.6,0.2-1.2-0.1-2c-4.2-13-8.5-25.9-12.7-38.9
		c-0.2-0.8-0.7-1.4-1.1-2.2c-0.1,0.1-0.3,0.2-0.4,0.3v52.4C0,299.9,0.6,299.8,1,299.5z"/>
	<path fill="#1212E0" d="M436.5,9.7c1.3,0.9,1.8,1.7,1.8,2.8c0,0.5-0.1,1.1-0.3,1.8c-1.6,4.5-3,9-4.5,13.5c-0.3,0.7-0.4,1.3-0.3,1.7
		c0.2,0.6,0.8,0.9,2.1,0.9c5-0.1,10.1,0,15.2,0c1.3,0,2.1,0.3,2.5,1.8c0.9,3,1.9,6,2.9,9c0.9,2.6,1.8,5.1,2.8,7.9
		c4.9-3.5,9.4-6.6,13.6-9.9c0.7-0.5,1.3-0.8,1.9-0.9V0.4c-16.8,0-33.7-0.1-50.5-0.2C428,3.4,432.1,6.7,436.5,9.7z"/>
	<path fill="#1212E0" d="M1.2,38.7c1.9,1.5,3.9,2.9,5.9,4.3c2.7,2,5.5,3.9,8.5,6.1c0.5-0.9,0.9-1.6,1.1-2.4c0,0,0-0.1,0-0.1
		c0.7-1.9,1.3-3.9,2-5.8c0.6-1.9,1.3-3.8,1.9-5.7c0.3-0.8,0.5-1.7,0.8-2.5c0.1-0.3,0.2-0.5,0.3-0.7c0.5-1,1.3-1.4,2.6-1.4
		c4.8,0,9.7,0,14.5,0c0.8,0,1.7-0.1,2.8-0.2c0-0.1,0-0.1,0-0.2c-0.4-1.3-0.6-2.4-0.9-3.3c-1.4-4.1-2.7-8.2-4.1-12.3
		c-0.2-0.8-0.3-1.5-0.3-2.2c0.1-0.9,0.6-1.7,1.8-2.4c4.4-3,8.5-6.3,12.8-9.5c-0.1,0-0.1,0-0.2,0c-17.1,0-34.1,0-51.2,0v37.7
		C-0.1,38,0.5,38.2,1.2,38.7z"/>
	<path fill="#1212E0" d="M472,305c-4.2-3.3-8.7-6.4-13.2-9.6c0,0,0,0-0.1-0.1c-0.4,1-0.9,1.7-1.1,2.5c-1.5,4.6-3.1,9.3-4.5,14
		c-0.5,1.8-1.4,2.2-3,2.2c0,0,0,0,0,0c-4.8,0-9.6,0-14.4,0c0,0-0.1,0-0.1,0c-2.7,0-2.9,0.3-2.1,2.9c1.4,4.3,2.8,8.7,4.3,13
		c0.7,2,0.6,3.3-1.4,4.6c-3.9,2.5-7.6,5.3-11.4,8.1c-0.7,0.5-1.4,1.1-2.2,1.8c0.2,0.2,0.3,0.3,0.5,0.4h50.9V306c-0.1,0-0.2,0-0.3,0
		C473.4,305.9,472.7,305.5,472,305z"/>
	<path fill="#1212E0" d="M49.7,342.9c-3.8-2.6-7.5-5.6-11.4-8.1c-2.2-1.5-2.6-2.9-1.7-5.4c1.8-4.9,3.3-9.9,5-15.2
		c-1.2-0.1-2-0.3-2.9-0.3c-4.8,0-9.7,0-14.5,0c-1.5,0-2.4-0.4-2.9-2c-0.8-3-1.8-5.9-2.8-8.8c-0.4-1.1-0.7-2.2-1.1-3.4
		c-0.5-1.4-1-2.9-1.6-4.5c-2.8,2.1-5.5,4-8.2,5.9c-2.1,1.5-4.1,3-6.2,4.5c0,0-0.1,0-0.1,0.1c-0.7,0.5-1.3,0.7-1.9,0.7v38.4h51.3
		C51.1,344.2,50.7,343.6,49.7,342.9z"/>
	<path fill="#1212E0" d="M220,126.3c-1.5,4.4-3,8.8-4.3,13.3c-0.4,1.6-1.2,2.1-2.8,2.1c-4.8-0.1-9.7,0-14.5,0c-0.8,0-1.7,0.1-3,0.2
		c1.3,4.1,2.4,7.9,3.7,11.7c2.3,7,2.3,7-3.7,11.2c-3.2,2.3-6.4,4.7-9.9,7.2c0,0,0.1,0.1,0.1,0.1c0.3,0.2,0.5,0.5,0.8,0.7
		c0.5,0.4,0.9,0.8,1.4,1.1c0.1,0.1,0.2,0.1,0.3,0.2c0.8,0.6,1.6,1.2,2.5,1.8c2.6,1.9,5.2,3.9,7.8,5.7c0.4,0.3,0.8,0.6,1.2,0.8
		c0.3,0.2,0.6,0.5,0.8,0.7c0.6,0.7,0.8,1.4,0.3,2.6c-1.5,4.3-2.8,8.8-4.2,13.1c-0.8,2.4-1.1,3.3-0.2,3.7c0.5,0.2,1.5,0.2,3,0.2
		c4.6,0,9.2,0,13.8,0c0.9,0,1.5,0.1,2,0.6c0.3,0.3,0.5,0.7,0.6,1.3c0.6,2.6,1.6,5.2,2.5,7.8c0.9,2.8,1.9,5.6,3,8.8c0,0,0,0,0.1,0
		c3.3-2.3,6.1-4.3,8.8-6.3c2.4-1.6,4.7-4.5,7-4.5c1.2,0,2.4,0.7,3.6,1.6c0.9,0.7,1.8,1.5,2.7,2.2c0.3,0.2,0.6,0.4,0.9,0.6
		c2.9,2,5.7,4.1,8.8,6.3c0.5-1.1,0.9-1.8,1.1-2.6c1.5-4.4,2.9-8.7,4.2-13.1c0.6-2.1,1.5-3,3.8-2.9c4.7,0.2,9.3,0.1,14,0
		c2.7,0,2.9-0.3,2.1-2.9c-1.4-4.5-2.8-9-4.4-13.5c-0.7-1.7-0.4-2.8,1.2-3.9c2.9-1.9,5.7-4,8.5-6.1c1.7-1.2,3.3-2.6,5.2-4
		c0,0,0,0,0,0c-0.9-0.7-1.4-1.2-2-1.6c-3.9-2.9-7.7-5.8-11.7-8.5c-0.4-0.3-0.7-0.5-0.9-0.8c-0.8-0.9-0.8-1.8-0.3-3.2
		c1.2-3.4,2.3-6.8,3.4-10.2c0.7-1.9,1.1-3.8,1.8-6.1c0,0,0-0.1,0-0.1c-5.5,0-10.4,0-15.3,0c-2.4,0-3.5,0-4.1-0.7
		c-0.6-0.6-0.9-1.6-1.5-3.4c-1.5-4.7-3.1-9.5-4.8-14.7c-3.9,2.8-7.3,5.4-10.9,7.7c-6.6,4.7-4,4.5-10.3,0.1c-3.5-2.5-7-5-10.7-7.7
		C220.8,124.3,220.3,125.3,220,126.3z"/>
</g>
</svg>
